<?xml version="1.0" encoding="UTF-8" standalone="no"?>
<!-- Created with Inkscape (http://www.inkscape.org/) -->

<svg
   width="210mm"
   height="297mm"
   viewBox="0 0 210 297"
   version="1.1"
   id="svg1"
   inkscape:version="1.3 (0e150ed6c4, 2023-07-21)"
   sodipodi:docname="fg_1.svg"
   xmlns:inkscape="http://www.inkscape.org/namespaces/inkscape"
   xmlns:sodipodi="http://sodipodi.sourceforge.net/DTD/sodipodi-0.dtd"
   xmlns="http://www.w3.org/2000/svg"
   xmlns:svg="http://www.w3.org/2000/svg">
  <sodipodi:namedview
     id="namedview1"
     pagecolor="#505050"
     bordercolor="#eeeeee"
     borderopacity="1"
     inkscape:showpageshadow="0"
     inkscape:pageopacity="0"
     inkscape:pagecheckerboard="0"
     inkscape:deskcolor="#d1d1d1"
     inkscape:document-units="mm"
     inkscape:zoom="1.5308737"
     inkscape:cx="465.4205"
     inkscape:cy="249.53071"
     inkscape:window-width="2560"
     inkscape:window-height="1316"
     inkscape:window-x="-12"
     inkscape:window-y="-12"
     inkscape:window-maximized="1"
     inkscape:current-layer="svg1"
     showguides="false" />
  <defs
     id="defs1">
    <marker
       style="overflow:visible"
       id="ColoredSquare"
       refX="0"
       refY="0"
       orient="auto"
       inkscape:stockid="Colored square"
       markerWidth="4"
       markerHeight="4"
       viewBox="0 0 1 1"
       inkscape:isstock="true"
       inkscape:collect="always"
       preserveAspectRatio="xMidYMid">
      <path
         transform="scale(0.5)"
         style="fill:context-fill;fill-rule:evenodd;stroke:context-stroke;stroke-width:2"
         d="M -5,-5 V 5 H 5 V -5 Z"
         id="path118" />
    </marker>
    <marker
       style="overflow:visible"
       id="marker116"
       refX="0"
       refY="0"
       orient="auto"
       inkscape:stockid="Dot"
       markerWidth="1"
       markerHeight="1"
       viewBox="0 0 1 1"
       inkscape:isstock="true"
       inkscape:collect="always"
       preserveAspectRatio="xMidYMid">
      <path
         transform="scale(0.5)"
         style="fill:context-stroke;fill-rule:evenodd;stroke:none"
         d="M 5,0 C 5,2.76 2.76,5 0,5 -2.76,5 -5,2.76 -5,0 c 0,-2.76 2.3,-5 5,-5 2.76,0 5,2.24 5,5 z"
         sodipodi:nodetypes="sssss"
         id="path116" />
    </marker>
    <marker
       style="overflow:visible"
       id="marker115"
       refX="0"
       refY="0"
       orient="auto"
       inkscape:stockid="Dot"
       markerWidth="1"
       markerHeight="1"
       viewBox="0 0 1 1"
       inkscape:isstock="true"
       inkscape:collect="always"
       preserveAspectRatio="xMidYMid">
      <path
         transform="scale(0.5)"
         style="fill:context-stroke;fill-rule:evenodd;stroke:none"
         d="M 5,0 C 5,2.76 2.76,5 0,5 -2.76,5 -5,2.76 -5,0 c 0,-2.76 2.3,-5 5,-5 2.76,0 5,2.24 5,5 z"
         sodipodi:nodetypes="sssss"
         id="path115" />
    </marker>
    <marker
       style="overflow:visible"
       id="Dot"
       refX="0"
       refY="0"
       orient="auto"
       inkscape:stockid="Dot"
       markerWidth="1"
       markerHeight="1"
       viewBox="0 0 1 1"
       inkscape:isstock="true"
       inkscape:collect="always"
       preserveAspectRatio="xMidYMid">
      <path
         transform="scale(0.5)"
         style="fill:context-stroke;fill-rule:evenodd;stroke:none"
         d="M 5,0 C 5,2.76 2.76,5 0,5 -2.76,5 -5,2.76 -5,0 c 0,-2.76 2.3,-5 5,-5 2.76,0 5,2.24 5,5 z"
         sodipodi:nodetypes="sssss"
         id="path114" />
    </marker>
  </defs>
  <g
     inkscape:label="Layer 1"
     inkscape:groupmode="layer"
     id="layer1" />
  <circle
     style="fill:#000000;fill-opacity:0.3;stroke:#000000;stroke-width:0.6;stroke-linejoin:round;stroke-dasharray:none;stroke-opacity:0.9"
     id="path1-4-8"
     cx="79.187103"
     cy="65.19416"
     r="10" />
  <circle
     style="fill:#000000;fill-opacity:0.3;stroke:#000000;stroke-width:0.6;stroke-linejoin:round;stroke-dasharray:none;stroke-opacity:0.9"
     id="path1-4-8-7"
     cx="114.18711"
     cy="65.19416"
     r="10" />
  <circle
     style="fill:#000000;fill-opacity:0.3;stroke:#000000;stroke-width:0.6;stroke-linejoin:round;stroke-dasharray:none;stroke-opacity:0.9"
     id="path1-4-8-9"
     cx="149.1871"
     cy="65.19416"
     r="10" />
  <circle
     style="fill:#000000;fill-opacity:0.3;stroke:#000000;stroke-width:0.6;stroke-linejoin:round;stroke-dasharray:none;stroke-opacity:0.9"
     id="path1-4-8-9-0"
     cx="79.187103"
     cy="30.194162"
     r="10" />
  <circle
     style="fill:#000000;fill-opacity:0.3;stroke:#000000;stroke-width:0.6;stroke-linejoin:round;stroke-dasharray:none;stroke-opacity:0.9"
     id="path1-4-8-9-0-7"
     cx="79.187103"
     cy="100.19416"
     r="10" />
  <path
     style="fill:none;fill-rule:evenodd;stroke:#000000;stroke-width:0.264583px;stroke-linecap:butt;stroke-linejoin:miter;stroke-opacity:1;marker-mid:url(#Dot)"
     d="m 89.187103,65.19416 h 7.500004 7.500003"
     id="path2"
     sodipodi:nodetypes="ccc" />
  <path
     style="fill:none;fill-rule:evenodd;stroke:#000000;stroke-width:0.264583px;stroke-linecap:butt;stroke-linejoin:miter;stroke-opacity:1;marker-mid:url(#marker115)"
     d="m 124.18711,65.19416 h 7.49999 7.5"
     id="path3"
     sodipodi:nodetypes="ccc" />
  <path
     style="fill:none;fill-rule:evenodd;stroke:#000000;stroke-width:0.264583px;stroke-linecap:butt;stroke-linejoin:miter;stroke-opacity:1;marker-mid:url(#ColoredSquare)"
     d="M 140.24295,60.722082 114.18711,47.694161 88.13126,34.666241"
     id="path35"
     sodipodi:nodetypes="ccc" />
  <path
     style="fill:none;fill-rule:evenodd;stroke:#a41a1a;stroke-width:0.264583px;stroke-linecap:butt;stroke-linejoin:miter;stroke-opacity:1;marker-mid:url(#ColoredSquare)"
     d="M 140.24295,69.666239 114.18711,82.694161 88.13126,95.722082"
     id="path37"
     sodipodi:nodetypes="ccc" />
  <path
     style="fill:none;fill-rule:evenodd;stroke:#000000;stroke-width:0.264583px;stroke-linecap:butt;stroke-linejoin:miter;stroke-opacity:1;marker-mid:url(#marker116)"
     d="m 79.187103,75.19416 v 7.5 7.5"
     id="path38"
     sodipodi:nodetypes="ccc" />
  <path
     style="fill:none;stroke:#000000;stroke-width:0.264583px;stroke-linecap:butt;stroke-linejoin:miter;stroke-dasharray:2.11666, 0.264583;stroke-dashoffset:0;stroke-opacity:1"
     d="M 69.073072,30.32451 H 46.34194"
     id="path113" />
  <path
     style="fill:none;stroke:#000000;stroke-width:0.264583px;stroke-linecap:butt;stroke-linejoin:miter;stroke-dasharray:2.11666, 0.264583;stroke-dashoffset:0;stroke-opacity:1"
     d="M 69.022867,65.58831 H 46.291735"
     id="path113-0" />
  <path
     style="fill:none;stroke:#000000;stroke-width:0.264583px;stroke-linecap:butt;stroke-linejoin:miter;stroke-dasharray:2.11666, 0.264583;stroke-dashoffset:0;stroke-opacity:1"
     d="M 68.779681,100.28495 H 46.048549"
     id="path113-0-8" />
  <g
     inkscape:label=""
     transform="translate(91.860484,68.09578)"
     id="g128">
    <g
       fill="#000000"
       fill-opacity="1"
       id="g121"
       transform="matrix(0.352778,0,0,0.352778,-0.945621,-0.638969)">
      <g
         id="g120"
         transform="translate(1.993,9.4049997)">
        <path
           d="M 5.1875,-2.046875 C 5.09375,-1.75 5.09375,-1.71875 4.859375,-1.390625 c -0.375,0.484375 -1.140625,1.21875 -1.953125,1.21875 -0.703125,0 -1.09375,-0.640625 -1.09375,-1.65625 0,-0.9375 0.53125,-2.875 0.859375,-3.59375 C 3.25,-6.625 4.0625,-7.25 4.734375,-7.25 c 1.140625,0 1.359375,1.40625 1.359375,1.546875 0,0.015625 -0.046875,0.25 -0.0625,0.28125 z m 1.09375,-4.40625 C 6.09375,-6.90625 5.625,-7.59375 4.734375,-7.59375 c -1.9375,0 -4.046875,2.515625 -4.046875,5.0625 0,1.703125 1,2.703125 2.171875,2.703125 0.953125,0 1.75,-0.734375 2.234375,-1.3125 0.171875,1.015625 0.984375,1.3125 1.5,1.3125 0.515625,0 0.9375,-0.3125 1.234375,-0.921875 C 8.109375,-1.34375 8.34375,-2.390625 8.34375,-2.46875 8.34375,-2.546875 8.28125,-2.625 8.171875,-2.625 8.03125,-2.625 8,-2.53125 7.9375,-2.265625 7.671875,-1.25 7.359375,-0.171875 6.640625,-0.171875 c -0.5,0 -0.53125,-0.453125 -0.53125,-0.796875 0,-0.390625 0.0625,-0.578125 0.203125,-1.25 0.125,-0.4375 0.21875,-0.8125 0.34375,-1.3125 0.640625,-2.578125 0.796875,-3.203125 0.796875,-3.296875 0,-0.25 -0.1875,-0.4375 -0.4375,-0.4375 -0.5625,0 -0.703125,0.609375 -0.734375,0.8125 z m 0,0"
           id="path120" />
      </g>
    </g>
    <g
       fill="#000000"
       fill-opacity="1"
       id="g123"
       transform="matrix(0.352778,0,0,0.352778,-0.945621,-0.638969)">
      <g
         id="g122"
         transform="translate(10.841,11.987)">
        <path
           d="m 3.125,-7.453125 c 0,0 0,-0.109375 -0.140625,-0.109375 -0.25,0 -1.046875,0.078125 -1.328125,0.109375 -0.078125,0 -0.203125,0.015625 -0.203125,0.21875 0,0.125 0.09375,0.125 0.265625,0.125 0.515625,0 0.53125,0.078125 0.53125,0.1875 l -0.03125,0.21875 -1.578125,6.28125 C 0.59375,-0.265625 0.59375,-0.25 0.59375,-0.1875 c 0,0.25 0.21875,0.3125 0.328125,0.3125 C 1.0625,0.125 1.21875,0.015625 1.28125,-0.109375 1.34375,-0.203125 1.828125,-2.21875 1.890625,-2.5 c 0.375,0.03125 1.265625,0.203125 1.265625,0.921875 0,0.078125 0,0.125 -0.03125,0.234375 -0.015625,0.140625 -0.03125,0.265625 -0.03125,0.390625 0,0.640625 0.421875,1.078125 1,1.078125 0.328125,0 0.625,-0.171875 0.859375,-0.578125 C 5.21875,-0.9375 5.34375,-1.53125 5.34375,-1.5625 c 0,-0.109375 -0.09375,-0.109375 -0.125,-0.109375 -0.109375,0 -0.125,0.046875 -0.15625,0.203125 -0.21875,0.796875 -0.46875,1.34375 -0.953125,1.34375 -0.203125,0 -0.34375,-0.109375 -0.34375,-0.5 0,-0.1875 0.046875,-0.4375 0.078125,-0.625 0.046875,-0.171875 0.046875,-0.21875 0.046875,-0.328125 0,-0.71875 -0.6875,-1.03125 -1.609375,-1.140625 0.34375,-0.203125 0.6875,-0.546875 0.9375,-0.8125 0.515625,-0.578125 1.03125,-1.046875 1.5625,-1.046875 0.0625,0 0.078125,0 0.09375,0.015625 C 5,-4.546875 5.015625,-4.546875 5.109375,-4.484375 5.125,-4.46875 5.125,-4.453125 5.140625,-4.4375 4.625,-4.40625 4.53125,-3.984375 4.53125,-3.84375 c 0,0.171875 0.109375,0.375 0.40625,0.375 0.28125,0 0.609375,-0.234375 0.609375,-0.671875 0,-0.3125 -0.25,-0.6875 -0.75,-0.6875 -0.296875,0 -0.8125,0.09375 -1.59375,0.96875 C 2.828125,-3.453125 2.40625,-3.015625 2,-2.84375 Z m 0,0"
           id="path121" />
      </g>
    </g>
    <g
       fill="#000000"
       fill-opacity="1"
       id="g125"
       transform="matrix(0.352778,0,0,0.352778,-0.945621,-0.638969)">
      <g
         id="g124"
         transform="translate(16.864,11.987)">
        <path
           d="m 7.1875,-2.515625 c 0.1875,0 0.375,0 0.375,-0.203125 0,-0.21875 -0.1875,-0.21875 -0.375,-0.21875 H 1.28125 c -0.1875,0 -0.375,0 -0.375,0.21875 0,0.203125 0.1875,0.203125 0.375,0.203125 z m 0,0"
           id="path123" />
      </g>
    </g>
    <g
       fill="#000000"
       fill-opacity="1"
       id="g127"
       transform="matrix(0.352778,0,0,0.352778,-0.945621,-0.638969)">
      <g
         id="g126"
         transform="translate(25.349001,11.987)">
        <path
           d="m 3.203125,-6.984375 c 0,-0.25 0,-0.28125 -0.25,-0.28125 C 2.28125,-6.5625 1.3125,-6.5625 0.96875,-6.5625 v 0.328125 c 0.21875,0 0.859375,0 1.4375,-0.28125 v 5.65625 c 0,0.390625 -0.046875,0.515625 -1.015625,0.515625 H 1.03125 V 0 c 0.390625,-0.03125 1.328125,-0.03125 1.765625,-0.03125 0.4375,0 1.390625,0 1.765625,0.03125 V -0.34375 H 4.21875 c -0.984375,0 -1.015625,-0.109375 -1.015625,-0.515625 z m 0,0"
           id="path125" />
      </g>
    </g>
  </g>
  <g
     inkscape:label=""
     transform="translate(127.63662,67.83659)"
     id="g133">
    <g
       fill="#000000"
       fill-opacity="1"
       id="g130"
       transform="matrix(0.352778,0,0,0.352778,-0.945621,-0.638969)">
      <g
         id="g129"
         transform="translate(1.993,9.4049997)">
        <path
           d="M 5.1875,-2.046875 C 5.09375,-1.75 5.09375,-1.71875 4.859375,-1.390625 c -0.375,0.484375 -1.140625,1.21875 -1.953125,1.21875 -0.703125,0 -1.09375,-0.640625 -1.09375,-1.65625 0,-0.9375 0.53125,-2.875 0.859375,-3.59375 C 3.25,-6.625 4.0625,-7.25 4.734375,-7.25 c 1.140625,0 1.359375,1.40625 1.359375,1.546875 0,0.015625 -0.046875,0.25 -0.0625,0.28125 z m 1.09375,-4.40625 C 6.09375,-6.90625 5.625,-7.59375 4.734375,-7.59375 c -1.9375,0 -4.046875,2.515625 -4.046875,5.0625 0,1.703125 1,2.703125 2.171875,2.703125 0.953125,0 1.75,-0.734375 2.234375,-1.3125 0.171875,1.015625 0.984375,1.3125 1.5,1.3125 0.515625,0 0.9375,-0.3125 1.234375,-0.921875 C 8.109375,-1.34375 8.34375,-2.390625 8.34375,-2.46875 8.34375,-2.546875 8.28125,-2.625 8.171875,-2.625 8.03125,-2.625 8,-2.53125 7.9375,-2.265625 7.671875,-1.25 7.359375,-0.171875 6.640625,-0.171875 c -0.5,0 -0.53125,-0.453125 -0.53125,-0.796875 0,-0.390625 0.0625,-0.578125 0.203125,-1.25 0.125,-0.4375 0.21875,-0.8125 0.34375,-1.3125 0.640625,-2.578125 0.796875,-3.203125 0.796875,-3.296875 0,-0.25 -0.1875,-0.4375 -0.4375,-0.4375 -0.5625,0 -0.703125,0.609375 -0.734375,0.8125 z m 0,0"
           id="path128" />
      </g>
    </g>
    <g
       fill="#000000"
       fill-opacity="1"
       id="g132"
       transform="matrix(0.352778,0,0,0.352778,-0.945621,-0.638969)">
      <g
         id="g131"
         transform="translate(10.841,11.987)">
        <path
           d="m 3.125,-7.453125 c 0,0 0,-0.109375 -0.140625,-0.109375 -0.25,0 -1.046875,0.078125 -1.328125,0.109375 -0.078125,0 -0.203125,0.015625 -0.203125,0.21875 0,0.125 0.09375,0.125 0.265625,0.125 0.515625,0 0.53125,0.078125 0.53125,0.1875 l -0.03125,0.21875 -1.578125,6.28125 C 0.59375,-0.265625 0.59375,-0.25 0.59375,-0.1875 c 0,0.25 0.21875,0.3125 0.328125,0.3125 C 1.0625,0.125 1.21875,0.015625 1.28125,-0.109375 1.34375,-0.203125 1.828125,-2.21875 1.890625,-2.5 c 0.375,0.03125 1.265625,0.203125 1.265625,0.921875 0,0.078125 0,0.125 -0.03125,0.234375 -0.015625,0.140625 -0.03125,0.265625 -0.03125,0.390625 0,0.640625 0.421875,1.078125 1,1.078125 0.328125,0 0.625,-0.171875 0.859375,-0.578125 C 5.21875,-0.9375 5.34375,-1.53125 5.34375,-1.5625 c 0,-0.109375 -0.09375,-0.109375 -0.125,-0.109375 -0.109375,0 -0.125,0.046875 -0.15625,0.203125 -0.21875,0.796875 -0.46875,1.34375 -0.953125,1.34375 -0.203125,0 -0.34375,-0.109375 -0.34375,-0.5 0,-0.1875 0.046875,-0.4375 0.078125,-0.625 0.046875,-0.171875 0.046875,-0.21875 0.046875,-0.328125 0,-0.71875 -0.6875,-1.03125 -1.609375,-1.140625 0.34375,-0.203125 0.6875,-0.546875 0.9375,-0.8125 0.515625,-0.578125 1.03125,-1.046875 1.5625,-1.046875 0.0625,0 0.078125,0 0.09375,0.015625 C 5,-4.546875 5.015625,-4.546875 5.109375,-4.484375 5.125,-4.46875 5.125,-4.453125 5.140625,-4.4375 4.625,-4.40625 4.53125,-3.984375 4.53125,-3.84375 c 0,0.171875 0.109375,0.375 0.40625,0.375 0.28125,0 0.609375,-0.234375 0.609375,-0.671875 0,-0.3125 -0.25,-0.6875 -0.75,-0.6875 -0.296875,0 -0.8125,0.09375 -1.59375,0.96875 C 2.828125,-3.453125 2.40625,-3.015625 2,-2.84375 Z m 0,0"
           id="path130" />
      </g>
    </g>
  </g>
  <g
     inkscape:label=""
     transform="translate(81.144926,78.55198)"
     id="g144">
    <g
       fill="#000000"
       fill-opacity="1"
       id="g135"
       transform="matrix(0.352778,0,0,0.352778,-0.962157,-0.619963)">
      <g
         id="g134"
         transform="translate(1.993,15.27)">
        <path
           d="m 2.1875,-1.390625 c 0.734375,-0.84375 1.34375,-1.375 2.203125,-2.15625 C 5.421875,-4.4375 5.875,-4.875 6.109375,-5.125 7.3125,-6.3125 7.921875,-7.3125 7.921875,-7.453125 7.921875,-7.59375 7.78125,-7.59375 7.75,-7.59375 c -0.125,0 -0.15625,0.0625 -0.25,0.1875 -0.421875,0.75 -0.84375,1.109375 -1.28125,1.109375 -0.359375,0 -0.546875,-0.15625 -0.875,-0.578125 -0.375,-0.421875 -0.65625,-0.71875 -1.15625,-0.71875 -1.265625,0 -2.015625,1.5625 -2.015625,1.921875 0,0.0625 0.015625,0.15625 0.171875,0.15625 0.140625,0 0.15625,-0.0625 0.203125,-0.1875 0.296875,-0.6875 1.125,-0.8125 1.453125,-0.8125 0.359375,0 0.703125,0.125 1.0625,0.28125 0.65625,0.28125 0.921875,0.28125 1.109375,0.28125 0.109375,0 0.1875,0 0.265625,-0.015625 -0.5625,0.671875 -1.5,1.484375 -2.265625,2.203125 l -1.75,1.59375 c -1.046875,1.0625 -1.6875,2.078125 -1.6875,2.203125 0,0.109375 0.09375,0.140625 0.203125,0.140625 0.09375,0 0.109375,-0.015625 0.234375,-0.21875 C 1.453125,-0.484375 2,-1.125 2.640625,-1.125 3,-1.125 3.171875,-1 3.515625,-0.5625 3.84375,-0.1875 4.125,0.171875 4.6875,0.171875 c 1.6875,0 2.640625,-2.1875 2.640625,-2.578125 0,-0.078125 -0.015625,-0.171875 -0.1875,-0.171875 -0.125,0 -0.15625,0.0625 -0.203125,0.234375 -0.375,1.015625 -1.390625,1.4375 -2.0625,1.4375 -0.359375,0 -0.703125,-0.125 -1.0625,-0.28125 -0.703125,-0.28125 -0.890625,-0.28125 -1.109375,-0.28125 -0.171875,0 -0.359375,0 -0.515625,0.078125 z m 0,0"
           id="path133" />
      </g>
    </g>
    <g
       fill="#000000"
       fill-opacity="1"
       id="g137"
       transform="matrix(0.352778,0,0,0.352778,-0.962157,-0.619963)">
      <g
         id="g136"
         transform="translate(10.59,9.0229998)">
        <path
           d="m 3.203125,-6.984375 c 0,-0.25 0,-0.28125 -0.25,-0.28125 C 2.28125,-6.5625 1.3125,-6.5625 0.96875,-6.5625 v 0.328125 c 0.21875,0 0.859375,0 1.4375,-0.28125 v 5.65625 c 0,0.390625 -0.046875,0.515625 -1.015625,0.515625 H 1.03125 V 0 c 0.390625,-0.03125 1.328125,-0.03125 1.765625,-0.03125 0.4375,0 1.390625,0 1.765625,0.03125 V -0.34375 H 4.21875 c -0.984375,0 -1.015625,-0.109375 -1.015625,-0.515625 z m 0,0"
           id="path135" />
      </g>
    </g>
    <g
       fill="#000000"
       fill-opacity="1"
       id="g139"
       transform="matrix(0.352778,0,0,0.352778,-0.962157,-0.619963)">
      <g
         id="g138"
         transform="translate(9.823,19.525999)">
        <path
           d="m 3.125,-7.453125 c 0,0 0,-0.109375 -0.140625,-0.109375 -0.25,0 -1.046875,0.078125 -1.328125,0.109375 -0.078125,0 -0.203125,0.015625 -0.203125,0.21875 0,0.125 0.09375,0.125 0.265625,0.125 0.515625,0 0.53125,0.078125 0.53125,0.1875 l -0.03125,0.21875 -1.578125,6.28125 C 0.59375,-0.265625 0.59375,-0.25 0.59375,-0.1875 c 0,0.25 0.21875,0.3125 0.328125,0.3125 C 1.0625,0.125 1.21875,0.015625 1.28125,-0.109375 1.34375,-0.203125 1.828125,-2.21875 1.890625,-2.5 c 0.375,0.03125 1.265625,0.203125 1.265625,0.921875 0,0.078125 0,0.125 -0.03125,0.234375 -0.015625,0.140625 -0.03125,0.265625 -0.03125,0.390625 0,0.640625 0.421875,1.078125 1,1.078125 0.328125,0 0.625,-0.171875 0.859375,-0.578125 C 5.21875,-0.9375 5.34375,-1.53125 5.34375,-1.5625 c 0,-0.109375 -0.09375,-0.109375 -0.125,-0.109375 -0.109375,0 -0.125,0.046875 -0.15625,0.203125 -0.21875,0.796875 -0.46875,1.34375 -0.953125,1.34375 -0.203125,0 -0.34375,-0.109375 -0.34375,-0.5 0,-0.1875 0.046875,-0.4375 0.078125,-0.625 0.046875,-0.171875 0.046875,-0.21875 0.046875,-0.328125 0,-0.71875 -0.6875,-1.03125 -1.609375,-1.140625 0.34375,-0.203125 0.6875,-0.546875 0.9375,-0.8125 0.515625,-0.578125 1.03125,-1.046875 1.5625,-1.046875 0.0625,0 0.078125,0 0.09375,0.015625 C 5,-4.546875 5.015625,-4.546875 5.109375,-4.484375 5.125,-4.46875 5.125,-4.453125 5.140625,-4.4375 4.625,-4.40625 4.53125,-3.984375 4.53125,-3.84375 c 0,0.171875 0.109375,0.375 0.40625,0.375 0.28125,0 0.609375,-0.234375 0.609375,-0.671875 0,-0.3125 -0.25,-0.6875 -0.75,-0.6875 -0.296875,0 -0.8125,0.09375 -1.59375,0.96875 C 2.828125,-3.453125 2.40625,-3.015625 2,-2.84375 Z m 0,0"
           id="path137" />
      </g>
    </g>
    <g
       fill="#000000"
       fill-opacity="1"
       id="g141"
       transform="matrix(0.352778,0,0,0.352778,-0.962157,-0.619963)">
      <g
         id="g140"
         transform="translate(15.846,19.525999)">
        <path
           d="m 7.1875,-2.515625 c 0.1875,0 0.375,0 0.375,-0.203125 0,-0.21875 -0.1875,-0.21875 -0.375,-0.21875 H 1.28125 c -0.1875,0 -0.375,0 -0.375,0.21875 0,0.203125 0.1875,0.203125 0.375,0.203125 z m 0,0"
           id="path139" />
      </g>
    </g>
    <g
       fill="#000000"
       fill-opacity="1"
       id="g143"
       transform="matrix(0.352778,0,0,0.352778,-0.962157,-0.619963)">
      <g
         id="g142"
         transform="translate(24.330999,19.525999)">
        <path
           d="m 3.203125,-6.984375 c 0,-0.25 0,-0.28125 -0.25,-0.28125 C 2.28125,-6.5625 1.3125,-6.5625 0.96875,-6.5625 v 0.328125 c 0.21875,0 0.859375,0 1.4375,-0.28125 v 5.65625 c 0,0.390625 -0.046875,0.515625 -1.015625,0.515625 H 1.03125 V 0 c 0.390625,-0.03125 1.328125,-0.03125 1.765625,-0.03125 0.4375,0 1.390625,0 1.765625,0.03125 V -0.34375 H 4.21875 c -0.984375,0 -1.015625,-0.109375 -1.015625,-0.515625 z m 0,0"
           id="path141" />
      </g>
    </g>
  </g>
  <g
     inkscape:label=""
     transform="translate(118.82221,40.3562)"
     id="g154">
    <g
       fill="#000000"
       fill-opacity="1"
       id="g146"
       transform="matrix(0.352778,0,0,0.352778,-0.956645,-0.619963)">
      <g
         id="g145"
         transform="translate(1.993,15.27)">
        <path
           d="m 4.15625,-5.875 c 0.234375,-0.015625 0.453125,0 0.703125,-0.015625 0.6875,-0.03125 1.53125,-0.078125 2.21875,-0.09375 C 6.59375,-5.53125 6.3125,-5.25 4.578125,-3.9375 1.109375,-1.296875 0.71875,-0.171875 0.71875,-0.109375 c 0,0.25 0.25,0.25 0.40625,0.25 0.265625,0 0.28125,-0.015625 0.40625,-0.1875 0.625,-0.859375 1.265625,-0.984375 1.53125,-0.984375 0.46875,0 0.859375,0.296875 1.125,0.484375 0.53125,0.375 0.953125,0.6875 1.609375,0.6875 1.9375,0 3.1875,-2.109375 3.1875,-2.765625 0,-0.234375 -0.28125,-0.234375 -0.40625,-0.234375 -0.125,0 -0.3125,0 -0.359375,0.15625 C 8.0625,-2.375 7.890625,-1.953125 6.734375,-1.8125 6.625,-1.796875 3.265625,-1.65625 2.890625,-1.640625 3.375,-2.09375 3.65625,-2.375 5.40625,-3.703125 c 3.484375,-2.65625 3.859375,-3.765625 3.859375,-3.84375 0,-0.234375 -0.25,-0.234375 -0.390625,-0.234375 -0.265625,0 -0.296875,0 -0.40625,0.171875 -0.40625,0.59375 -0.734375,1 -1.15625,1 -0.4375,0 -0.828125,-0.28125 -1.21875,-0.546875 C 5.6875,-7.46875 5.25,-7.78125 4.609375,-7.78125 3.09375,-7.78125 2.125,-6.25 2.125,-5.71875 c 0,0.25 0.265625,0.25 0.40625,0.25 0.15625,0 0.34375,0 0.390625,-0.234375 C 3.171875,-5.8125 3.28125,-5.84375 3.8125,-5.875 Z m 0,0"
           id="path144" />
      </g>
    </g>
    <g
       fill="#000000"
       fill-opacity="1"
       id="g148"
       transform="matrix(0.352778,0,0,0.352778,-0.956645,-0.619963)">
      <g
         id="g147"
         transform="translate(12.274,9.0229998)">
        <path
           d="m 3.203125,-6.984375 c 0,-0.25 0,-0.28125 -0.25,-0.28125 C 2.28125,-6.5625 1.3125,-6.5625 0.96875,-6.5625 v 0.328125 c 0.21875,0 0.859375,0 1.4375,-0.28125 v 5.65625 c 0,0.390625 -0.046875,0.515625 -1.015625,0.515625 H 1.03125 V 0 c 0.390625,-0.03125 1.328125,-0.03125 1.765625,-0.03125 0.4375,0 1.390625,0 1.765625,0.03125 V -0.34375 H 4.21875 c -0.984375,0 -1.015625,-0.109375 -1.015625,-0.515625 z m 0,0"
           id="path146" />
      </g>
    </g>
    <g
       fill="#000000"
       fill-opacity="1"
       id="g150"
       transform="matrix(0.352778,0,0,0.352778,-0.956645,-0.619963)">
      <g
         id="g149"
         transform="translate(12.274,19.525999)">
        <path
           d="m 3.125,-7.453125 c 0,0 0,-0.109375 -0.140625,-0.109375 -0.25,0 -1.046875,0.078125 -1.328125,0.109375 -0.078125,0 -0.203125,0.015625 -0.203125,0.21875 0,0.125 0.09375,0.125 0.265625,0.125 0.515625,0 0.53125,0.078125 0.53125,0.1875 l -0.03125,0.21875 -1.578125,6.28125 C 0.59375,-0.265625 0.59375,-0.25 0.59375,-0.1875 c 0,0.25 0.21875,0.3125 0.328125,0.3125 C 1.0625,0.125 1.21875,0.015625 1.28125,-0.109375 1.34375,-0.203125 1.828125,-2.21875 1.890625,-2.5 c 0.375,0.03125 1.265625,0.203125 1.265625,0.921875 0,0.078125 0,0.125 -0.03125,0.234375 -0.015625,0.140625 -0.03125,0.265625 -0.03125,0.390625 0,0.640625 0.421875,1.078125 1,1.078125 0.328125,0 0.625,-0.171875 0.859375,-0.578125 C 5.21875,-0.9375 5.34375,-1.53125 5.34375,-1.5625 c 0,-0.109375 -0.09375,-0.109375 -0.125,-0.109375 -0.109375,0 -0.125,0.046875 -0.15625,0.203125 -0.21875,0.796875 -0.46875,1.34375 -0.953125,1.34375 -0.203125,0 -0.34375,-0.109375 -0.34375,-0.5 0,-0.1875 0.046875,-0.4375 0.078125,-0.625 0.046875,-0.171875 0.046875,-0.21875 0.046875,-0.328125 0,-0.71875 -0.6875,-1.03125 -1.609375,-1.140625 0.34375,-0.203125 0.6875,-0.546875 0.9375,-0.8125 0.515625,-0.578125 1.03125,-1.046875 1.5625,-1.046875 0.0625,0 0.078125,0 0.09375,0.015625 C 5,-4.546875 5.015625,-4.546875 5.109375,-4.484375 5.125,-4.46875 5.125,-4.453125 5.140625,-4.4375 4.625,-4.40625 4.53125,-3.984375 4.53125,-3.84375 c 0,0.171875 0.109375,0.375 0.40625,0.375 0.28125,0 0.609375,-0.234375 0.609375,-0.671875 0,-0.3125 -0.25,-0.6875 -0.75,-0.6875 -0.296875,0 -0.8125,0.09375 -1.59375,0.96875 C 2.828125,-3.453125 2.40625,-3.015625 2,-2.84375 Z m 0,0"
           id="path148" />
      </g>
    </g>
    <g
       fill="#000000"
       fill-opacity="1"
       id="g153"
       transform="matrix(0.352778,0,0,0.352778,-0.956645,-0.619963)">
      <g
         id="g151"
         transform="translate(18.297001,19.525999)">
        <path
           d="M 4.453125,-2.515625 H 7.5 c 0.15625,0 0.359375,0 0.359375,-0.203125 C 7.859375,-2.9375 7.65625,-2.9375 7.5,-2.9375 H 4.453125 V -6 c 0,-0.15625 0,-0.359375 -0.203125,-0.359375 -0.21875,0 -0.21875,0.203125 -0.21875,0.359375 v 3.0625 h -3.0625 c -0.15625,0 -0.359375,0 -0.359375,0.21875 0,0.203125 0.203125,0.203125 0.359375,0.203125 h 3.0625 v 3.0625 c 0,0.15625 0,0.359375 0.21875,0.359375 0.203125,0 0.203125,-0.203125 0.203125,-0.359375 z m 0,0"
           id="path150" />
      </g>
      <g
         id="g152"
         transform="translate(26.782099,19.525999)">
        <path
           d="m 3.203125,-6.984375 c 0,-0.25 0,-0.28125 -0.25,-0.28125 C 2.28125,-6.5625 1.3125,-6.5625 0.96875,-6.5625 v 0.328125 c 0.21875,0 0.859375,0 1.4375,-0.28125 v 5.65625 c 0,0.390625 -0.046875,0.515625 -1.015625,0.515625 H 1.03125 V 0 c 0.390625,-0.03125 1.328125,-0.03125 1.765625,-0.03125 0.4375,0 1.390625,0 1.765625,0.03125 V -0.34375 H 4.21875 c -0.984375,0 -1.015625,-0.109375 -1.015625,-0.515625 z m 0,0"
           id="path151" />
      </g>
    </g>
  </g>
  <g
     inkscape:label=""
     transform="translate(119.68637,84.94638)"
     id="g164">
    <g
       fill="#000000"
       fill-opacity="1"
       id="g156"
       transform="matrix(0.352778,0,0,0.352778,-0.956645,-0.619963)">
      <g
         id="g155"
         transform="translate(1.993,15.27)">
        <path
           d="m 4.15625,-5.875 c 0.234375,-0.015625 0.453125,0 0.703125,-0.015625 0.6875,-0.03125 1.53125,-0.078125 2.21875,-0.09375 C 6.59375,-5.53125 6.3125,-5.25 4.578125,-3.9375 1.109375,-1.296875 0.71875,-0.171875 0.71875,-0.109375 c 0,0.25 0.25,0.25 0.40625,0.25 0.265625,0 0.28125,-0.015625 0.40625,-0.1875 0.625,-0.859375 1.265625,-0.984375 1.53125,-0.984375 0.46875,0 0.859375,0.296875 1.125,0.484375 0.53125,0.375 0.953125,0.6875 1.609375,0.6875 1.9375,0 3.1875,-2.109375 3.1875,-2.765625 0,-0.234375 -0.28125,-0.234375 -0.40625,-0.234375 -0.125,0 -0.3125,0 -0.359375,0.15625 C 8.0625,-2.375 7.890625,-1.953125 6.734375,-1.8125 6.625,-1.796875 3.265625,-1.65625 2.890625,-1.640625 3.375,-2.09375 3.65625,-2.375 5.40625,-3.703125 c 3.484375,-2.65625 3.859375,-3.765625 3.859375,-3.84375 0,-0.234375 -0.25,-0.234375 -0.390625,-0.234375 -0.265625,0 -0.296875,0 -0.40625,0.171875 -0.40625,0.59375 -0.734375,1 -1.15625,1 -0.4375,0 -0.828125,-0.28125 -1.21875,-0.546875 C 5.6875,-7.46875 5.25,-7.78125 4.609375,-7.78125 3.09375,-7.78125 2.125,-6.25 2.125,-5.71875 c 0,0.25 0.265625,0.25 0.40625,0.25 0.15625,0 0.34375,0 0.390625,-0.234375 C 3.171875,-5.8125 3.28125,-5.84375 3.8125,-5.875 Z m 0,0"
           id="path154" />
      </g>
    </g>
    <g
       fill="#000000"
       fill-opacity="1"
       id="g158"
       transform="matrix(0.352778,0,0,0.352778,-0.956645,-0.619963)">
      <g
         id="g157"
         transform="translate(12.274,9.0229998)">
        <path
           d="m 1.390625,-0.84375 1.15625,-1.125 c 1.703125,-1.5 2.34375,-2.09375 2.34375,-3.171875 0,-1.25 -0.96875,-2.125 -2.3125,-2.125 -1.21875,0 -2.03125,1 -2.03125,1.96875 0,0.625 0.546875,0.625 0.578125,0.625 0.1875,0 0.5625,-0.140625 0.5625,-0.578125 0,-0.296875 -0.1875,-0.578125 -0.578125,-0.578125 -0.078125,0 -0.109375,0 -0.140625,0.015625 0.25,-0.703125 0.84375,-1.109375 1.46875,-1.109375 1,0 1.46875,0.875 1.46875,1.78125 0,0.859375 -0.546875,1.734375 -1.140625,2.40625 l -2.09375,2.328125 c -0.125,0.125 -0.125,0.140625 -0.125,0.40625 H 4.59375 L 4.890625,-1.890625 H 4.625 C 4.5625,-1.578125 4.5,-1.09375 4.390625,-0.921875 4.3125,-0.84375 3.59375,-0.84375 3.34375,-0.84375 Z m 0,0"
           id="path156" />
      </g>
    </g>
    <g
       fill="#000000"
       fill-opacity="1"
       id="g160"
       transform="matrix(0.352778,0,0,0.352778,-0.956645,-0.619963)">
      <g
         id="g159"
         transform="translate(12.274,19.525999)">
        <path
           d="m 3.125,-7.453125 c 0,0 0,-0.109375 -0.140625,-0.109375 -0.25,0 -1.046875,0.078125 -1.328125,0.109375 -0.078125,0 -0.203125,0.015625 -0.203125,0.21875 0,0.125 0.09375,0.125 0.265625,0.125 0.515625,0 0.53125,0.078125 0.53125,0.1875 l -0.03125,0.21875 -1.578125,6.28125 C 0.59375,-0.265625 0.59375,-0.25 0.59375,-0.1875 c 0,0.25 0.21875,0.3125 0.328125,0.3125 C 1.0625,0.125 1.21875,0.015625 1.28125,-0.109375 1.34375,-0.203125 1.828125,-2.21875 1.890625,-2.5 c 0.375,0.03125 1.265625,0.203125 1.265625,0.921875 0,0.078125 0,0.125 -0.03125,0.234375 -0.015625,0.140625 -0.03125,0.265625 -0.03125,0.390625 0,0.640625 0.421875,1.078125 1,1.078125 0.328125,0 0.625,-0.171875 0.859375,-0.578125 C 5.21875,-0.9375 5.34375,-1.53125 5.34375,-1.5625 c 0,-0.109375 -0.09375,-0.109375 -0.125,-0.109375 -0.109375,0 -0.125,0.046875 -0.15625,0.203125 -0.21875,0.796875 -0.46875,1.34375 -0.953125,1.34375 -0.203125,0 -0.34375,-0.109375 -0.34375,-0.5 0,-0.1875 0.046875,-0.4375 0.078125,-0.625 0.046875,-0.171875 0.046875,-0.21875 0.046875,-0.328125 0,-0.71875 -0.6875,-1.03125 -1.609375,-1.140625 0.34375,-0.203125 0.6875,-0.546875 0.9375,-0.8125 0.515625,-0.578125 1.03125,-1.046875 1.5625,-1.046875 0.0625,0 0.078125,0 0.09375,0.015625 C 5,-4.546875 5.015625,-4.546875 5.109375,-4.484375 5.125,-4.46875 5.125,-4.453125 5.140625,-4.4375 4.625,-4.40625 4.53125,-3.984375 4.53125,-3.84375 c 0,0.171875 0.109375,0.375 0.40625,0.375 0.28125,0 0.609375,-0.234375 0.609375,-0.671875 0,-0.3125 -0.25,-0.6875 -0.75,-0.6875 -0.296875,0 -0.8125,0.09375 -1.59375,0.96875 C 2.828125,-3.453125 2.40625,-3.015625 2,-2.84375 Z m 0,0"
           id="path158" />
      </g>
    </g>
    <g
       fill="#000000"
       fill-opacity="1"
       id="g163"
       transform="matrix(0.352778,0,0,0.352778,-0.956645,-0.619963)">
      <g
         id="g161"
         transform="translate(18.297001,19.525999)">
        <path
           d="M 4.453125,-2.515625 H 7.5 c 0.15625,0 0.359375,0 0.359375,-0.203125 C 7.859375,-2.9375 7.65625,-2.9375 7.5,-2.9375 H 4.453125 V -6 c 0,-0.15625 0,-0.359375 -0.203125,-0.359375 -0.21875,0 -0.21875,0.203125 -0.21875,0.359375 v 3.0625 h -3.0625 c -0.15625,0 -0.359375,0 -0.359375,0.21875 0,0.203125 0.203125,0.203125 0.359375,0.203125 h 3.0625 v 3.0625 c 0,0.15625 0,0.359375 0.21875,0.359375 0.203125,0 0.203125,-0.203125 0.203125,-0.359375 z m 0,0"
           id="path160" />
      </g>
      <g
         id="g162"
         transform="translate(26.782099,19.525999)">
        <path
           d="m 3.203125,-6.984375 c 0,-0.25 0,-0.28125 -0.25,-0.28125 C 2.28125,-6.5625 1.3125,-6.5625 0.96875,-6.5625 v 0.328125 c 0.21875,0 0.859375,0 1.4375,-0.28125 v 5.65625 c 0,0.390625 -0.046875,0.515625 -1.015625,0.515625 H 1.03125 V 0 c 0.390625,-0.03125 1.328125,-0.03125 1.765625,-0.03125 0.4375,0 1.390625,0 1.765625,0.03125 V -0.34375 H 4.21875 c -0.984375,0 -1.015625,-0.109375 -1.015625,-0.515625 z m 0,0"
           id="path161" />
      </g>
    </g>
  </g>
  <g
     inkscape:label=""
     transform="translate(144.05563,63.68809)"
     id="g172">
    <g
       fill="#000000"
       fill-opacity="1"
       id="g166"
       transform="matrix(0.352778,0,0,0.352778,-0.934597,-0.657137)">
      <g
         id="g165"
         transform="translate(1.993,9.6440001)">
        <path
           d="m 9.234375,-6.90625 c -0.625,0.171875 -0.9375,0.765625 -0.9375,1.1875 0,0.375 0.296875,0.796875 0.859375,0.796875 0.609375,0 1.25,-0.5 1.25,-1.34375 0,-0.921875 -0.921875,-1.515625 -1.96875,-1.515625 -0.984375,0 -1.625,0.734375 -1.84375,1.046875 -0.421875,-0.71875 -1.390625,-1.046875 -2.375,-1.046875 -2.171875,0 -3.34375,2.109375 -3.34375,2.6875 0,0.234375 0.265625,0.234375 0.421875,0.234375 0.203125,0 0.328125,0 0.390625,-0.21875 0.5,-1.5625 1.734375,-2.078125 2.4375,-2.078125 0.65625,0 0.96875,0.296875 0.96875,0.859375 0,0.328125 -0.234375,1.265625 -0.390625,1.890625 l -0.59375,2.359375 c -0.25,1.046875 -0.875,1.5625 -1.453125,1.5625 -0.09375,0 -0.484375,0 -0.828125,-0.25 C 2.4375,-0.90625 2.75,-1.5 2.75,-1.921875 2.75,-2.3125 2.46875,-2.71875 1.890625,-2.71875 c -0.59375,0 -1.234375,0.5 -1.234375,1.34375 0,0.90625 0.90625,1.515625 1.96875,1.515625 0.96875,0 1.609375,-0.75 1.828125,-1.046875 0.4375,0.71875 1.40625,1.046875 2.375,1.046875 2.171875,0 3.34375,-2.125 3.34375,-2.6875 0,-0.25 -0.25,-0.25 -0.40625,-0.25 -0.203125,0 -0.328125,0 -0.40625,0.234375 C 8.875,-1 7.625,-0.484375 6.921875,-0.484375 c -0.65625,0 -0.96875,-0.3125 -0.96875,-0.859375 0,-0.359375 0.234375,-1.28125 0.390625,-1.90625 0.109375,-0.453125 0.515625,-2.078125 0.59375,-2.34375 0.265625,-1.03125 0.859375,-1.5625 1.46875,-1.5625 0.078125,0 0.484375,0 0.828125,0.25 z m 0,0"
           id="path164" />
      </g>
    </g>
    <g
       fill="#000000"
       fill-opacity="1"
       id="g168"
       transform="matrix(0.352778,0,0,0.352778,-0.934597,-0.657137)">
      <g
         id="g167"
         transform="translate(13.338,12.226)">
        <path
           d="m 3.125,-7.453125 c 0,0 0,-0.109375 -0.140625,-0.109375 -0.25,0 -1.046875,0.078125 -1.328125,0.109375 -0.078125,0 -0.203125,0.015625 -0.203125,0.21875 0,0.125 0.09375,0.125 0.265625,0.125 0.515625,0 0.53125,0.078125 0.53125,0.1875 l -0.03125,0.21875 -1.578125,6.28125 C 0.59375,-0.265625 0.59375,-0.25 0.59375,-0.1875 c 0,0.25 0.21875,0.3125 0.328125,0.3125 C 1.0625,0.125 1.21875,0.015625 1.28125,-0.109375 1.34375,-0.203125 1.828125,-2.21875 1.890625,-2.5 c 0.375,0.03125 1.265625,0.203125 1.265625,0.921875 0,0.078125 0,0.125 -0.03125,0.234375 -0.015625,0.140625 -0.03125,0.265625 -0.03125,0.390625 0,0.640625 0.421875,1.078125 1,1.078125 0.328125,0 0.625,-0.171875 0.859375,-0.578125 C 5.21875,-0.9375 5.34375,-1.53125 5.34375,-1.5625 c 0,-0.109375 -0.09375,-0.109375 -0.125,-0.109375 -0.109375,0 -0.125,0.046875 -0.15625,0.203125 -0.21875,0.796875 -0.46875,1.34375 -0.953125,1.34375 -0.203125,0 -0.34375,-0.109375 -0.34375,-0.5 0,-0.1875 0.046875,-0.4375 0.078125,-0.625 0.046875,-0.171875 0.046875,-0.21875 0.046875,-0.328125 0,-0.71875 -0.6875,-1.03125 -1.609375,-1.140625 0.34375,-0.203125 0.6875,-0.546875 0.9375,-0.8125 0.515625,-0.578125 1.03125,-1.046875 1.5625,-1.046875 0.0625,0 0.078125,0 0.09375,0.015625 C 5,-4.546875 5.015625,-4.546875 5.109375,-4.484375 5.125,-4.46875 5.125,-4.453125 5.140625,-4.4375 4.625,-4.40625 4.53125,-3.984375 4.53125,-3.84375 c 0,0.171875 0.109375,0.375 0.40625,0.375 0.28125,0 0.609375,-0.234375 0.609375,-0.671875 0,-0.3125 -0.25,-0.6875 -0.75,-0.6875 -0.296875,0 -0.8125,0.09375 -1.59375,0.96875 C 2.828125,-3.453125 2.40625,-3.015625 2,-2.84375 Z m 0,0"
           id="path166" />
      </g>
    </g>
    <g
       fill="#000000"
       fill-opacity="1"
       id="g171"
       transform="matrix(0.352778,0,0,0.352778,-0.934597,-0.657137)">
      <g
         id="g169"
         transform="translate(19.361,12.226)">
        <path
           d="M 4.453125,-2.515625 H 7.5 c 0.15625,0 0.359375,0 0.359375,-0.203125 C 7.859375,-2.9375 7.65625,-2.9375 7.5,-2.9375 H 4.453125 V -6 c 0,-0.15625 0,-0.359375 -0.203125,-0.359375 -0.21875,0 -0.21875,0.203125 -0.21875,0.359375 v 3.0625 h -3.0625 c -0.15625,0 -0.359375,0 -0.359375,0.21875 0,0.203125 0.203125,0.203125 0.359375,0.203125 h 3.0625 v 3.0625 c 0,0.15625 0,0.359375 0.21875,0.359375 0.203125,0 0.203125,-0.203125 0.203125,-0.359375 z m 0,0"
           id="path168" />
      </g>
      <g
         id="g170"
         transform="translate(27.846098,12.226)">
        <path
           d="m 3.203125,-6.984375 c 0,-0.25 0,-0.28125 -0.25,-0.28125 C 2.28125,-6.5625 1.3125,-6.5625 0.96875,-6.5625 v 0.328125 c 0.21875,0 0.859375,0 1.4375,-0.28125 v 5.65625 c 0,0.390625 -0.046875,0.515625 -1.015625,0.515625 H 1.03125 V 0 c 0.390625,-0.03125 1.328125,-0.03125 1.765625,-0.03125 0.4375,0 1.390625,0 1.765625,0.03125 V -0.34375 H 4.21875 c -0.984375,0 -1.015625,-0.109375 -1.015625,-0.515625 z m 0,0"
           id="path169" />
      </g>
    </g>
  </g>
  <g
     inkscape:label=""
     transform="translate(112.08178,63.6881)"
     id="g177">
    <g
       fill="#000000"
       fill-opacity="1"
       id="g174"
       transform="matrix(0.352778,0,0,0.352778,-0.934597,-0.657137)">
      <g
         id="g173"
         transform="translate(1.993,9.6440001)">
        <path
           d="m 9.234375,-6.90625 c -0.625,0.171875 -0.9375,0.765625 -0.9375,1.1875 0,0.375 0.296875,0.796875 0.859375,0.796875 0.609375,0 1.25,-0.5 1.25,-1.34375 0,-0.921875 -0.921875,-1.515625 -1.96875,-1.515625 -0.984375,0 -1.625,0.734375 -1.84375,1.046875 -0.421875,-0.71875 -1.390625,-1.046875 -2.375,-1.046875 -2.171875,0 -3.34375,2.109375 -3.34375,2.6875 0,0.234375 0.265625,0.234375 0.421875,0.234375 0.203125,0 0.328125,0 0.390625,-0.21875 0.5,-1.5625 1.734375,-2.078125 2.4375,-2.078125 0.65625,0 0.96875,0.296875 0.96875,0.859375 0,0.328125 -0.234375,1.265625 -0.390625,1.890625 l -0.59375,2.359375 c -0.25,1.046875 -0.875,1.5625 -1.453125,1.5625 -0.09375,0 -0.484375,0 -0.828125,-0.25 C 2.4375,-0.90625 2.75,-1.5 2.75,-1.921875 2.75,-2.3125 2.46875,-2.71875 1.890625,-2.71875 c -0.59375,0 -1.234375,0.5 -1.234375,1.34375 0,0.90625 0.90625,1.515625 1.96875,1.515625 0.96875,0 1.609375,-0.75 1.828125,-1.046875 0.4375,0.71875 1.40625,1.046875 2.375,1.046875 2.171875,0 3.34375,-2.125 3.34375,-2.6875 0,-0.25 -0.25,-0.25 -0.40625,-0.25 -0.203125,0 -0.328125,0 -0.40625,0.234375 C 8.875,-1 7.625,-0.484375 6.921875,-0.484375 c -0.65625,0 -0.96875,-0.3125 -0.96875,-0.859375 0,-0.359375 0.234375,-1.28125 0.390625,-1.90625 0.109375,-0.453125 0.515625,-2.078125 0.59375,-2.34375 0.265625,-1.03125 0.859375,-1.5625 1.46875,-1.5625 0.078125,0 0.484375,0 0.828125,0.25 z m 0,0"
           id="path172" />
      </g>
    </g>
    <g
       fill="#000000"
       fill-opacity="1"
       id="g176"
       transform="matrix(0.352778,0,0,0.352778,-0.934597,-0.657137)">
      <g
         id="g175"
         transform="translate(13.338,12.226)">
        <path
           d="m 3.125,-7.453125 c 0,0 0,-0.109375 -0.140625,-0.109375 -0.25,0 -1.046875,0.078125 -1.328125,0.109375 -0.078125,0 -0.203125,0.015625 -0.203125,0.21875 0,0.125 0.09375,0.125 0.265625,0.125 0.515625,0 0.53125,0.078125 0.53125,0.1875 l -0.03125,0.21875 -1.578125,6.28125 C 0.59375,-0.265625 0.59375,-0.25 0.59375,-0.1875 c 0,0.25 0.21875,0.3125 0.328125,0.3125 C 1.0625,0.125 1.21875,0.015625 1.28125,-0.109375 1.34375,-0.203125 1.828125,-2.21875 1.890625,-2.5 c 0.375,0.03125 1.265625,0.203125 1.265625,0.921875 0,0.078125 0,0.125 -0.03125,0.234375 -0.015625,0.140625 -0.03125,0.265625 -0.03125,0.390625 0,0.640625 0.421875,1.078125 1,1.078125 0.328125,0 0.625,-0.171875 0.859375,-0.578125 C 5.21875,-0.9375 5.34375,-1.53125 5.34375,-1.5625 c 0,-0.109375 -0.09375,-0.109375 -0.125,-0.109375 -0.109375,0 -0.125,0.046875 -0.15625,0.203125 -0.21875,0.796875 -0.46875,1.34375 -0.953125,1.34375 -0.203125,0 -0.34375,-0.109375 -0.34375,-0.5 0,-0.1875 0.046875,-0.4375 0.078125,-0.625 0.046875,-0.171875 0.046875,-0.21875 0.046875,-0.328125 0,-0.71875 -0.6875,-1.03125 -1.609375,-1.140625 0.34375,-0.203125 0.6875,-0.546875 0.9375,-0.8125 0.515625,-0.578125 1.03125,-1.046875 1.5625,-1.046875 0.0625,0 0.078125,0 0.09375,0.015625 C 5,-4.546875 5.015625,-4.546875 5.109375,-4.484375 5.125,-4.46875 5.125,-4.453125 5.140625,-4.4375 4.625,-4.40625 4.53125,-3.984375 4.53125,-3.84375 c 0,0.171875 0.109375,0.375 0.40625,0.375 0.28125,0 0.609375,-0.234375 0.609375,-0.671875 0,-0.3125 -0.25,-0.6875 -0.75,-0.6875 -0.296875,0 -0.8125,0.09375 -1.59375,0.96875 C 2.828125,-3.453125 2.40625,-3.015625 2,-2.84375 Z m 0,0"
           id="path174" />
      </g>
    </g>
  </g>
  <g
     inkscape:label=""
     transform="translate(73.71317,63.86092)"
     id="g186">
    <g
       fill="#000000"
       fill-opacity="1"
       id="g179"
       transform="matrix(0.352778,0,0,0.352778,-0.934597,-0.657137)">
      <g
         id="g178"
         transform="translate(1.993,9.6440001)">
        <path
           d="m 9.234375,-6.90625 c -0.625,0.171875 -0.9375,0.765625 -0.9375,1.1875 0,0.375 0.296875,0.796875 0.859375,0.796875 0.609375,0 1.25,-0.5 1.25,-1.34375 0,-0.921875 -0.921875,-1.515625 -1.96875,-1.515625 -0.984375,0 -1.625,0.734375 -1.84375,1.046875 -0.421875,-0.71875 -1.390625,-1.046875 -2.375,-1.046875 -2.171875,0 -3.34375,2.109375 -3.34375,2.6875 0,0.234375 0.265625,0.234375 0.421875,0.234375 0.203125,0 0.328125,0 0.390625,-0.21875 0.5,-1.5625 1.734375,-2.078125 2.4375,-2.078125 0.65625,0 0.96875,0.296875 0.96875,0.859375 0,0.328125 -0.234375,1.265625 -0.390625,1.890625 l -0.59375,2.359375 c -0.25,1.046875 -0.875,1.5625 -1.453125,1.5625 -0.09375,0 -0.484375,0 -0.828125,-0.25 C 2.4375,-0.90625 2.75,-1.5 2.75,-1.921875 2.75,-2.3125 2.46875,-2.71875 1.890625,-2.71875 c -0.59375,0 -1.234375,0.5 -1.234375,1.34375 0,0.90625 0.90625,1.515625 1.96875,1.515625 0.96875,0 1.609375,-0.75 1.828125,-1.046875 0.4375,0.71875 1.40625,1.046875 2.375,1.046875 2.171875,0 3.34375,-2.125 3.34375,-2.6875 0,-0.25 -0.25,-0.25 -0.40625,-0.25 -0.203125,0 -0.328125,0 -0.40625,0.234375 C 8.875,-1 7.625,-0.484375 6.921875,-0.484375 c -0.65625,0 -0.96875,-0.3125 -0.96875,-0.859375 0,-0.359375 0.234375,-1.28125 0.390625,-1.90625 0.109375,-0.453125 0.515625,-2.078125 0.59375,-2.34375 0.265625,-1.03125 0.859375,-1.5625 1.46875,-1.5625 0.078125,0 0.484375,0 0.828125,0.25 z m 0,0"
           id="path177" />
      </g>
    </g>
    <g
       fill="#000000"
       fill-opacity="1"
       id="g181"
       transform="matrix(0.352778,0,0,0.352778,-0.934597,-0.657137)">
      <g
         id="g180"
         transform="translate(13.338,12.226)">
        <path
           d="m 3.125,-7.453125 c 0,0 0,-0.109375 -0.140625,-0.109375 -0.25,0 -1.046875,0.078125 -1.328125,0.109375 -0.078125,0 -0.203125,0.015625 -0.203125,0.21875 0,0.125 0.09375,0.125 0.265625,0.125 0.515625,0 0.53125,0.078125 0.53125,0.1875 l -0.03125,0.21875 -1.578125,6.28125 C 0.59375,-0.265625 0.59375,-0.25 0.59375,-0.1875 c 0,0.25 0.21875,0.3125 0.328125,0.3125 C 1.0625,0.125 1.21875,0.015625 1.28125,-0.109375 1.34375,-0.203125 1.828125,-2.21875 1.890625,-2.5 c 0.375,0.03125 1.265625,0.203125 1.265625,0.921875 0,0.078125 0,0.125 -0.03125,0.234375 -0.015625,0.140625 -0.03125,0.265625 -0.03125,0.390625 0,0.640625 0.421875,1.078125 1,1.078125 0.328125,0 0.625,-0.171875 0.859375,-0.578125 C 5.21875,-0.9375 5.34375,-1.53125 5.34375,-1.5625 c 0,-0.109375 -0.09375,-0.109375 -0.125,-0.109375 -0.109375,0 -0.125,0.046875 -0.15625,0.203125 -0.21875,0.796875 -0.46875,1.34375 -0.953125,1.34375 -0.203125,0 -0.34375,-0.109375 -0.34375,-0.5 0,-0.1875 0.046875,-0.4375 0.078125,-0.625 0.046875,-0.171875 0.046875,-0.21875 0.046875,-0.328125 0,-0.71875 -0.6875,-1.03125 -1.609375,-1.140625 0.34375,-0.203125 0.6875,-0.546875 0.9375,-0.8125 0.515625,-0.578125 1.03125,-1.046875 1.5625,-1.046875 0.0625,0 0.078125,0 0.09375,0.015625 C 5,-4.546875 5.015625,-4.546875 5.109375,-4.484375 5.125,-4.46875 5.125,-4.453125 5.140625,-4.4375 4.625,-4.40625 4.53125,-3.984375 4.53125,-3.84375 c 0,0.171875 0.109375,0.375 0.40625,0.375 0.28125,0 0.609375,-0.234375 0.609375,-0.671875 0,-0.3125 -0.25,-0.6875 -0.75,-0.6875 -0.296875,0 -0.8125,0.09375 -1.59375,0.96875 C 2.828125,-3.453125 2.40625,-3.015625 2,-2.84375 Z m 0,0"
           id="path179" />
      </g>
    </g>
    <g
       fill="#000000"
       fill-opacity="1"
       id="g183"
       transform="matrix(0.352778,0,0,0.352778,-0.934597,-0.657137)">
      <g
         id="g182"
         transform="translate(19.361,12.226)">
        <path
           d="m 7.1875,-2.515625 c 0.1875,0 0.375,0 0.375,-0.203125 0,-0.21875 -0.1875,-0.21875 -0.375,-0.21875 H 1.28125 c -0.1875,0 -0.375,0 -0.375,0.21875 0,0.203125 0.1875,0.203125 0.375,0.203125 z m 0,0"
           id="path181" />
      </g>
    </g>
    <g
       fill="#000000"
       fill-opacity="1"
       id="g185"
       transform="matrix(0.352778,0,0,0.352778,-0.934597,-0.657137)">
      <g
         id="g184"
         transform="translate(27.846001,12.226)">
        <path
           d="m 3.203125,-6.984375 c 0,-0.25 0,-0.28125 -0.25,-0.28125 C 2.28125,-6.5625 1.3125,-6.5625 0.96875,-6.5625 v 0.328125 c 0.21875,0 0.859375,0 1.4375,-0.28125 v 5.65625 c 0,0.390625 -0.046875,0.515625 -1.015625,0.515625 H 1.03125 V 0 c 0.390625,-0.03125 1.328125,-0.03125 1.765625,-0.03125 0.4375,0 1.390625,0 1.765625,0.03125 V -0.34375 H 4.21875 c -0.984375,0 -1.015625,-0.109375 -1.015625,-0.515625 z m 0,0"
           id="path183" />
      </g>
    </g>
  </g>
  <g
     inkscape:label=""
     transform="translate(77.515461,27.73913)"
     id="g191">
    <g
       fill="#000000"
       fill-opacity="1"
       id="g188"
       transform="matrix(0.352778,0,0,0.352778,-0.901524,-0.703748)">
      <g
         id="g187"
         transform="translate(1.993,13.948)">
        <path
           d="m 4.890625,-11.34375 c 0.0625,-0.25 0.0625,-0.28125 0.0625,-0.296875 0,-0.21875 -0.1875,-0.3125 -0.375,-0.3125 -0.0625,0 -0.078125,0 -0.125,0.01563 l -2.21875,0.109375 C 2,-11.8125 1.6875,-11.796875 1.6875,-11.3125 1.6875,-11 2.015625,-11 2.140625,-11 c 0.1875,0 0.5,0 0.71875,0.03125 L 0.65625,-2.140625 c -0.046875,0.1875 -0.09375,0.34375 -0.09375,0.59375 0,1.140625 1.140625,1.6875 2.15625,1.6875 0.640625,0 1.125,-0.359375 1.5,-0.984375 C 4.625,-1.515625 4.875,-2.4375 4.875,-2.546875 c 0,-0.25 -0.265625,-0.25 -0.421875,-0.25 -0.1875,0 -0.25,0 -0.34375,0.09375 -0.03125,0.03125 -0.03125,0.0625 -0.125,0.5 -0.328125,1.3125 -0.71875,1.71875 -1.171875,1.71875 -0.265625,0 -0.40625,-0.171875 -0.40625,-0.625 0,-0.34375 0.0625,-0.515625 0.109375,-0.75 z m 0,0"
           id="path186" />
      </g>
    </g>
    <g
       fill="#000000"
       fill-opacity="1"
       id="g190"
       transform="matrix(0.352778,0,0,0.352778,-0.901524,-0.703748)">
      <g
         id="g189"
         transform="translate(8.1370001,16.530001)">
        <path
           d="m 3.203125,-6.984375 c 0,-0.25 0,-0.28125 -0.25,-0.28125 C 2.28125,-6.5625 1.3125,-6.5625 0.96875,-6.5625 v 0.328125 c 0.21875,0 0.859375,0 1.4375,-0.28125 v 5.65625 c 0,0.390625 -0.046875,0.515625 -1.015625,0.515625 H 1.03125 V 0 c 0.390625,-0.03125 1.328125,-0.03125 1.765625,-0.03125 0.4375,0 1.390625,0 1.765625,0.03125 V -0.34375 H 4.21875 c -0.984375,0 -1.015625,-0.109375 -1.015625,-0.515625 z m 0,0"
           id="path188" />
      </g>
    </g>
  </g>
  <g
     inkscape:label=""
     transform="translate(77.169798,98.25442)"
     id="g196">
    <g
       fill="#000000"
       fill-opacity="1"
       id="g193"
       transform="matrix(0.352778,0,0,0.352778,-0.901524,-0.703748)">
      <g
         id="g192"
         transform="translate(1.993,13.948)">
        <path
           d="m 4.890625,-11.34375 c 0.0625,-0.25 0.0625,-0.28125 0.0625,-0.296875 0,-0.21875 -0.1875,-0.3125 -0.375,-0.3125 -0.0625,0 -0.078125,0 -0.125,0.01563 l -2.21875,0.109375 C 2,-11.8125 1.6875,-11.796875 1.6875,-11.3125 1.6875,-11 2.015625,-11 2.140625,-11 c 0.1875,0 0.5,0 0.71875,0.03125 L 0.65625,-2.140625 c -0.046875,0.1875 -0.09375,0.34375 -0.09375,0.59375 0,1.140625 1.140625,1.6875 2.15625,1.6875 0.640625,0 1.125,-0.359375 1.5,-0.984375 C 4.625,-1.515625 4.875,-2.4375 4.875,-2.546875 c 0,-0.25 -0.265625,-0.25 -0.421875,-0.25 -0.1875,0 -0.25,0 -0.34375,0.09375 -0.03125,0.03125 -0.03125,0.0625 -0.125,0.5 -0.328125,1.3125 -0.71875,1.71875 -1.171875,1.71875 -0.265625,0 -0.40625,-0.171875 -0.40625,-0.625 0,-0.34375 0.0625,-0.515625 0.109375,-0.75 z m 0,0"
           id="path191" />
      </g>
    </g>
    <g
       fill="#000000"
       fill-opacity="1"
       id="g195"
       transform="matrix(0.352778,0,0,0.352778,-0.901524,-0.703748)">
      <g
         id="g194"
         transform="translate(8.1370001,16.530001)">
        <path
           d="m 1.390625,-0.84375 1.15625,-1.125 c 1.703125,-1.5 2.34375,-2.09375 2.34375,-3.171875 0,-1.25 -0.96875,-2.125 -2.3125,-2.125 -1.21875,0 -2.03125,1 -2.03125,1.96875 0,0.625 0.546875,0.625 0.578125,0.625 0.1875,0 0.5625,-0.140625 0.5625,-0.578125 0,-0.296875 -0.1875,-0.578125 -0.578125,-0.578125 -0.078125,0 -0.109375,0 -0.140625,0.015625 0.25,-0.703125 0.84375,-1.109375 1.46875,-1.109375 1,0 1.46875,0.875 1.46875,1.78125 0,0.859375 -0.546875,1.734375 -1.140625,2.40625 l -2.09375,2.328125 c -0.125,0.125 -0.125,0.140625 -0.125,0.40625 H 4.59375 L 4.890625,-1.890625 H 4.625 C 4.5625,-1.578125 4.5,-1.09375 4.390625,-0.921875 4.3125,-0.84375 3.59375,-0.84375 3.34375,-0.84375 Z m 0,0"
           id="path193" />
      </g>
    </g>
  </g>
</svg>
