<?xml version="1.0" encoding="UTF-8" standalone="no"?>
<!-- Created with Inkscape (http://www.inkscape.org/) -->

<svg
   width="210mm"
   height="297mm"
   viewBox="0 0 210 297"
   version="1.1"
   id="svg1"
   inkscape:version="1.3 (0e150ed6c4, 2023-07-21)"
   sodipodi:docname="dependent_sets.svg"
   xmlns:inkscape="http://www.inkscape.org/namespaces/inkscape"
   xmlns:sodipodi="http://sodipodi.sourceforge.net/DTD/sodipodi-0.dtd"
   xmlns="http://www.w3.org/2000/svg"
   xmlns:svg="http://www.w3.org/2000/svg">
  <sodipodi:namedview
     id="namedview1"
     pagecolor="#505050"
     bordercolor="#eeeeee"
     borderopacity="1"
     inkscape:showpageshadow="0"
     inkscape:pageopacity="0"
     inkscape:pagecheckerboard="0"
     inkscape:deskcolor="#d1d1d1"
     inkscape:document-units="mm"
     inkscape:zoom="2"
     inkscape:cx="386.25"
     inkscape:cy="262.5"
     inkscape:window-width="2560"
     inkscape:window-height="1316"
     inkscape:window-x="-12"
     inkscape:window-y="-12"
     inkscape:window-maximized="1"
     inkscape:current-layer="layer1" />
  <defs
     id="defs1">
    <marker
       style="overflow:visible"
       id="ConcaveTriangle"
       refX="0"
       refY="0"
       orient="auto-start-reverse"
       inkscape:stockid="Concave triangle arrow"
       markerWidth="1"
       markerHeight="1"
       viewBox="0 0 1 1"
       inkscape:isstock="true"
       inkscape:collect="always"
       preserveAspectRatio="xMidYMid">
      <path
         transform="scale(0.7)"
         d="M -2,-4 9,0 -2,4 c 2,-2.33 2,-5.66 0,-8 z"
         style="fill:context-stroke;fill-rule:evenodd;stroke:none"
         id="path7" />
    </marker>
    <marker
       style="overflow:visible"
       id="ConcaveTriangle-4"
       refX="0"
       refY="0"
       orient="auto-start-reverse"
       inkscape:stockid="Concave triangle arrow"
       markerWidth="1"
       markerHeight="1"
       viewBox="0 0 1 1"
       inkscape:isstock="true"
       inkscape:collect="always"
       preserveAspectRatio="xMidYMid">
      <path
         transform="scale(0.7)"
         d="M -2,-4 9,0 -2,4 c 2,-2.33 2,-5.66 0,-8 z"
         style="fill:context-stroke;fill-rule:evenodd;stroke:none"
         id="path7-5" />
    </marker>
  </defs>
  <g
     inkscape:label="Layer 1"
     inkscape:groupmode="layer"
     id="layer1">
    <rect
       style="fill:#800000;fill-opacity:0.2;stroke:none;stroke-width:0.355616"
       id="rect15"
       width="66.599358"
       height="67.056953"
       x="77.143631"
       y="36.84267" />
    <rect
       style="fill:#1d2e62;fill-opacity:1;stroke:none;stroke-width:0.306407"
       id="rect18"
       width="40"
       height="1.341139"
       x="90"
       y="104.31023" />
    <path
       style="fill:none;stroke:#000000;stroke-width:0.518188;stroke-linecap:butt;stroke-linejoin:miter;stroke-dasharray:none;stroke-opacity:1;marker-end:url(#ConcaveTriangle)"
       d="M 68.949696,104.18516 H 145.61304"
       id="path1" />
    <path
       style="fill:none;stroke:#000000;stroke-width:0.518188;stroke-linecap:butt;stroke-linejoin:miter;stroke-dasharray:none;stroke-opacity:1;marker-end:url(#ConcaveTriangle-4)"
       d="M 77.236646,112.52842 V 35.338328"
       id="path1-0" />
    <g
       inkscape:label=""
       transform="translate(67.75999,35.165266)"
       id="g29">
      <g
         fill="#000000"
         fill-opacity="1"
         id="g28"
         transform="matrix(0.352778,0,0,0.352778,-0.951133,-0.458082)">
        <g
           id="g27"
           transform="translate(1.993,16.111)">
          <path
             d="m 10.03125,-12.828125 h 3.4375 c 2.71875,0 3.765625,-1.5625 3.765625,-1.84375 0,-0.09375 -0.09375,-0.140625 -0.1875,-0.140625 -0.234375,0 -0.765625,0.203125 -1.28125,0.578125 -0.171875,0.125 -0.21875,0.125 -0.609375,0.125 H 6.140625 c -2.5625,0 -5.4375,2.21875 -5.4375,3.90625 0,0.125 0,0.25 0.171875,0.25 0.484375,0 1.796875,-0.6875 1.828125,-1.1875 0.03125,-0.34375 0.0625,-0.734375 0.484375,-1.28125 0.203125,-0.234375 0.359375,-0.40625 1.28125,-0.40625 h 4.109375 c -0.359375,0.234375 -0.4375,0.53125 -0.484375,0.75 L 5.75,-2.734375 C 5.5,-1.71875 5.0625,-0.40625 4.46875,0.921875 c -0.125,0.25 -0.125,0.296875 -0.125,0.34375 0,0.125 0.078125,0.140625 0.1875,0.140625 0.40625,0 1.421875,-0.5625 1.734375,-1 C 6.375,0.203125 7.296875,-1.90625 7.71875,-3.609375 Z m 0,0"
             id="path26" />
        </g>
      </g>
    </g>
    <g
       inkscape:label=""
       transform="translate(141.01433,106.18964)"
       id="g32">
      <g
         fill="#000000"
         fill-opacity="1"
         id="g31"
         transform="matrix(0.352778,0,0,0.352778,-0.835378,-0.546276)">
        <g
           id="g30"
           transform="translate(1.993,16.111)">
          <path
             d="M 2.375,-4.53125 C 2.625,-4.625 3.34375,-5.078125 3.34375,-5.375 c 0,-0.140625 -0.125,-0.140625 -0.25,-0.140625 -0.703125,0 -2.71875,0.890625 -2.71875,2.953125 0,1.484375 1.671875,3.015625 4.1875,3.015625 3.375,0 7.28125,-2.328125 7.28125,-5.140625 0,-1.96875 -2.078125,-2.90625 -3.75,-3.65625 C 6.65625,-9 5.703125,-9.859375 5.703125,-11.03125 c 0,-0.4375 0.1875,-1.234375 0.828125,-1.796875 0.609375,-0.53125 1.765625,-0.59375 2.0625,-0.59375 0.21875,0 1.09375,0.01563 1.984375,0.40625 0.390625,0.1875 0.921875,0.4375 0.921875,1.328125 0,0.28125 -0.01563,0.390625 -0.07813,0.609375 -0.01563,0.0625 -0.04687,0.15625 -0.04687,0.21875 0,0.140625 0.125,0.140625 0.21875,0.140625 0.265625,0 0.765625,-0.203125 1.171875,-0.5625 0.265625,-0.203125 0.5,-0.46875 0.5,-1.28125 0,-1.015625 -0.546875,-1.296875 -1.09375,-1.546875 C 11.203125,-14.5625 10.25,-14.5625 9.953125,-14.5625 c -2.703125,0 -6,2.0625 -6,4.421875 0,1.734375 1.796875,2.5625 2.78125,3 1.46875,0.65625 3.34375,1.609375 3.34375,3.34375 0,1.375 -1.015625,3.109375 -4.15625,3.109375 -2.09375,0 -3.796875,-1.359375 -3.796875,-2.765625 0,-0.375 0.109375,-0.734375 0.25,-1.078125 z m 0,0"
             id="path29" />
        </g>
      </g>
    </g>
    <g
       id="g23">
      <rect
         style="fill:#1d2e62;fill-opacity:1;stroke:none;stroke-width:0.136862"
         id="rect18-3"
         width="8.9433832"
         height="1.1967431"
         x="170.59488"
         y="41.601753" />
      <rect
         style="fill:#5ec400;fill-opacity:1;stroke:none;stroke-width:0.136862"
         id="rect18-3-7"
         width="8.9433832"
         height="1.1967431"
         x="170.59488"
         y="50.577358" />
      <rect
         style="fill:none;fill-opacity:1;stroke:#000000;stroke-width:0.490129;stroke-linecap:round;stroke-linejoin:bevel;stroke-dasharray:none;stroke-opacity:1"
         id="rect20"
         width="29.509871"
         height="17.509871"
         x="153.14606"
         y="38.088776" />
      <g
         inkscape:label=""
         transform="translate(158,40.736034)"
         id="g20">
        <g
           fill="#000000"
           fill-opacity="1"
           id="g3"
           transform="matrix(0.352778,0,0,0.352778,-0.884987,-0.564356)">
          <g
             id="use2"
             transform="translate(1.993,13.756)">
            <path
               d="m 4.828125,-11.6875 c 0.03125,-0.1875 0.03125,-0.234375 0.03125,-0.28125 0,-0.125 -0.03125,-0.171875 -0.1875,-0.171875 -0.1875,0 -0.71875,0.265625 -1.0625,0.4375 -0.78125,0.390625 -1.4375,0.71875 -1.4375,1.03125 0,0.09375 0.125,0.09375 0.1875,0.09375 0.203125,0 0.65625,-0.234375 0.984375,-0.390625 -0.203125,1.6875 -0.625,3.890625 -0.9375,5.375 -0.625,2.921875 -0.953125,3.96875 -1.796875,5.640625 -0.09375,0.15625 -0.09375,0.1875 -0.09375,0.21875 C 0.515625,0.375 0.65625,0.375 0.6875,0.375 c 0.28125,0 1,-0.3125 1.28125,-0.78125 0.21875,-0.40625 0.875,-1.65625 1.390625,-3.65625 0.375,-1.484375 1.03125,-3.734375 2.25,-5.515625 0.796875,-1.109375 1.515625,-1.625 2.609375,-1.625 0.921875,0 1.765625,0.59375 1.765625,1.515625 0,1.515625 -1.640625,2.0625 -3.421875,2.65625 -0.203125,0.078125 -1.390625,0.484375 -1.390625,0.921875 0,0.09375 0.109375,0.125 0.171875,0.125 0.0625,0 0.453125,-0.078125 0.828125,-0.078125 1.734375,0 3.140625,1.03125 3.140625,2.671875 0,2.140625 -1.828125,2.828125 -3.390625,2.828125 -1.328125,0 -1.96875,-0.734375 -2.1875,-0.96875 -0.0625,-0.09375 -0.078125,-0.125 -0.21875,-0.125 -0.375,0 -1.265625,0.53125 -1.265625,0.84375 0,0.0625 0.671875,1.1875 2.53125,1.1875 2.4375,0 6,-1.71875 6,-4.484375 0,-1.453125 -0.96875,-2.53125 -2.71875,-2.859375 1.375,-0.59375 3.390625,-1.828125 3.390625,-3.453125 0,-1 -0.828125,-1.734375 -2.109375,-1.734375 -0.578125,0 -2.78125,0.15625 -4.859375,2.734375 z m 0,0"
               id="path4" />
          </g>
        </g>
        <g
           fill="#000000"
           fill-opacity="1"
           id="g4"
           transform="matrix(0.352778,0,0,0.352778,-0.884987,-0.564356)">
          <g
             id="use3"
             transform="translate(13.3,16.337999)">
            <path
               d="m 1.25,-2.390625 c 0.140625,-0.046875 0.515625,-0.296875 0.515625,-0.4375 0,-0.078125 -0.0625,-0.078125 -0.125,-0.078125 -0.375,0 -1.4375,0.46875 -1.4375,1.546875 0,0.796875 0.875,1.59375 2.203125,1.59375 C 4.1875,0.234375 6.25,-1 6.25,-2.46875 6.25,-3.515625 5.15625,-4.015625 4.28125,-4.40625 3.515625,-4.75 3.015625,-5.203125 3.015625,-5.828125 c 0,-0.21875 0.09375,-0.65625 0.4375,-0.9375 0.328125,-0.296875 0.9375,-0.328125 1.078125,-0.328125 0.125,0 0.578125,0.015625 1.046875,0.21875 0.21875,0.109375 0.5,0.234375 0.5,0.703125 0,0.15625 -0.015625,0.203125 -0.046875,0.328125 -0.015625,0.03125 -0.015625,0.078125 -0.015625,0.109375 0,0.078125 0.0625,0.078125 0.109375,0.078125 0.140625,0 0.390625,-0.109375 0.609375,-0.296875 C 6.875,-6.0625 7,-6.203125 7,-6.625 7,-7.171875 6.71875,-7.3125 6.421875,-7.453125 5.90625,-7.6875 5.40625,-7.6875 5.25,-7.6875 c -1.421875,0 -3.171875,1.09375 -3.171875,2.328125 C 2.078125,-4.4375 3.03125,-4 3.5625,-3.78125 4.328125,-3.421875 5.328125,-2.921875 5.328125,-2 c 0,0.71875 -0.546875,1.640625 -2.203125,1.640625 -1.109375,0 -2,-0.71875 -2,-1.46875 0,-0.1875 0.046875,-0.390625 0.125,-0.5625 z m 0,0"
               id="path5" />
          </g>
        </g>
      </g>
      <g
         inkscape:label=""
         transform="translate(154.58275,47.757258)"
         id="g22">
        <g
           fill="#000000"
           fill-opacity="1"
           id="g5"
           transform="matrix(0.352778,0,0,0.352778,-0.884987,-0.704982)">
          <g
             id="g2"
             transform="translate(1.993,14.889)">
            <path
               d="m 4.828125,-11.6875 c 0.03125,-0.1875 0.03125,-0.234375 0.03125,-0.28125 0,-0.125 -0.03125,-0.171875 -0.1875,-0.171875 -0.1875,0 -0.71875,0.265625 -1.0625,0.4375 -0.78125,0.390625 -1.4375,0.71875 -1.4375,1.03125 0,0.09375 0.125,0.09375 0.1875,0.09375 0.203125,0 0.65625,-0.234375 0.984375,-0.390625 -0.203125,1.6875 -0.625,3.890625 -0.9375,5.375 -0.625,2.921875 -0.953125,3.96875 -1.796875,5.640625 -0.09375,0.15625 -0.09375,0.1875 -0.09375,0.21875 C 0.515625,0.375 0.65625,0.375 0.6875,0.375 c 0.28125,0 1,-0.3125 1.28125,-0.78125 0.21875,-0.40625 0.875,-1.65625 1.390625,-3.65625 0.375,-1.484375 1.03125,-3.734375 2.25,-5.515625 0.796875,-1.109375 1.515625,-1.625 2.609375,-1.625 0.921875,0 1.765625,0.59375 1.765625,1.515625 0,1.515625 -1.640625,2.0625 -3.421875,2.65625 -0.203125,0.078125 -1.390625,0.484375 -1.390625,0.921875 0,0.09375 0.109375,0.125 0.171875,0.125 0.0625,0 0.453125,-0.078125 0.828125,-0.078125 1.734375,0 3.140625,1.03125 3.140625,2.671875 0,2.140625 -1.828125,2.828125 -3.390625,2.828125 -1.328125,0 -1.96875,-0.734375 -2.1875,-0.96875 -0.0625,-0.09375 -0.078125,-0.125 -0.21875,-0.125 -0.375,0 -1.265625,0.53125 -1.265625,0.84375 0,0.0625 0.671875,1.1875 2.53125,1.1875 2.4375,0 6,-1.71875 6,-4.484375 0,-1.453125 -0.96875,-2.53125 -2.71875,-2.859375 1.375,-0.59375 3.390625,-1.828125 3.390625,-3.453125 0,-1 -0.828125,-1.734375 -2.109375,-1.734375 -0.578125,0 -2.78125,0.15625 -4.859375,2.734375 z m 0,0"
               id="path2" />
          </g>
        </g>
        <g
           fill="#000000"
           fill-opacity="1"
           id="g12"
           transform="matrix(0.352778,0,0,0.352778,-0.884987,-0.704982)">
          <g
             id="g11"
             transform="translate(13.3,17.471001)">
            <path
               d="m 5.296875,-6.765625 h 1.8125 c 1.4375,0 1.984375,-0.84375 1.984375,-0.984375 0,-0.046875 -0.046875,-0.0625 -0.09375,-0.0625 -0.125,0 -0.40625,0.109375 -0.671875,0.296875 -0.09375,0.0625 -0.109375,0.0625 -0.328125,0.0625 H 3.234375 c -1.34375,0 -2.859375,1.171875 -2.859375,2.0625 0,0.0625 0,0.140625 0.078125,0.140625 0.265625,0 0.953125,-0.359375 0.96875,-0.625 0.015625,-0.1875 0.046875,-0.390625 0.25,-0.671875 C 1.78125,-6.6875 1.875,-6.765625 2.359375,-6.765625 H 4.53125 c -0.1875,0.109375 -0.234375,0.28125 -0.25,0.390625 l -1.25,4.9375 c -0.125,0.53125 -0.359375,1.21875 -0.671875,1.921875 -0.0625,0.140625 -0.0625,0.15625 -0.0625,0.1875 0,0.0625 0.03125,0.0625 0.09375,0.0625 0.21875,0 0.75,-0.28125 0.90625,-0.515625 C 3.375,0.109375 3.84375,-1 4.078125,-1.90625 Z m 0,0"
               id="path6" />
          </g>
        </g>
        <g
           fill="#000000"
           fill-opacity="1"
           id="g16"
           transform="matrix(0.352778,0,0,0.352778,-0.884987,-0.704982)">
          <g
             id="g15"
             transform="translate(22.511999,14.889)">
            <path
               d="m 5.265625,4.203125 c 0,-0.015625 0,-0.046875 -0.046875,-0.109375 -0.796875,-0.8125 -2.90625,-3.015625 -2.90625,-8.375 0,-5.375 2.078125,-7.5625 2.921875,-8.421875 0,-0.01563 0.03125,-0.0625 0.03125,-0.109375 0,-0.04687 -0.046875,-0.07813 -0.125,-0.07813 -0.1875,0 -1.640625,1.265625 -2.484375,3.15625 -0.859375,1.921875 -1.109375,3.78125 -1.109375,5.421875 0,1.25 0.125,3.34375 1.15625,5.5625 0.828125,1.796875 2.234375,3.0625 2.4375,3.0625 0.09375,0 0.125,-0.046875 0.125,-0.109375 z m 0,0"
               id="path15" />
          </g>
        </g>
        <g
           fill="#000000"
           fill-opacity="1"
           id="g18"
           transform="matrix(0.352778,0,0,0.352778,-0.884987,-0.704982)">
          <g
             id="g17"
             transform="translate(28.608999,14.889)">
            <path
               d="m 1.984375,-3.765625 c 0.203125,-0.09375 0.8125,-0.46875 0.8125,-0.71875 0,-0.109375 -0.109375,-0.109375 -0.21875,-0.109375 C 2,-4.59375 0.3125,-3.859375 0.3125,-2.140625 c 0,1.25 1.390625,2.515625 3.5,2.515625 2.796875,0 6.046875,-1.9375 6.046875,-4.28125 0,-1.640625 -1.71875,-2.4375 -3.109375,-3.046875 C 5.546875,-7.5 4.75,-8.21875 4.75,-9.1875 c 0,-0.375 0.15625,-1.046875 0.6875,-1.5 0.515625,-0.453125 1.484375,-0.5 1.71875,-0.5 0.203125,0 0.921875,0.01563 1.65625,0.34375 0.328125,0.15625 0.78125,0.359375 0.78125,1.09375 0,0.25 -0.015625,0.328125 -0.078125,0.515625 -0.015625,0.0625 -0.03125,0.125 -0.03125,0.171875 0,0.125 0.109375,0.125 0.171875,0.125 0.234375,0 0.640625,-0.171875 0.984375,-0.46875 0.21875,-0.171875 0.40625,-0.390625 0.40625,-1.0625 0,-0.84375 -0.4375,-1.078125 -0.90625,-1.296875 -0.8125,-0.375 -1.59375,-0.375 -1.84375,-0.375 -2.25,0 -5.015625,1.71875 -5.015625,3.6875 0,1.4375 1.5,2.140625 2.328125,2.5 1.21875,0.546875 2.796875,1.34375 2.796875,2.78125 0,1.15625 -0.84375,2.609375 -3.46875,2.609375 -1.75,0 -3.15625,-1.140625 -3.15625,-2.3125 0,-0.3125 0.078125,-0.625 0.203125,-0.890625 z m 0,0"
               id="path16" />
          </g>
        </g>
        <g
           fill="#000000"
           fill-opacity="1"
           id="g21"
           transform="matrix(0.352778,0,0,0.352778,-0.884987,-0.704982)">
          <g
             id="g19"
             transform="translate(40.325001,14.889)">
            <path
               d="m 4.53125,-4.28125 c 0,-1.25 -0.125,-3.34375 -1.15625,-5.5625 -0.828125,-1.796875 -2.234375,-3.046875 -2.4375,-3.046875 -0.0625,0 -0.125,0.01563 -0.125,0.09375 0,0.03125 0.015625,0.0625 0.03125,0.09375 0.828125,0.859375 2.921875,3.046875 2.921875,8.390625 0,5.375 -2.078125,7.5625 -2.921875,8.421875 C 0.828125,4.15625 0.8125,4.171875 0.8125,4.203125 0.8125,4.28125 0.875,4.3125 0.9375,4.3125 1.125,4.3125 2.578125,3.03125 3.421875,1.140625 4.28125,-0.78125 4.53125,-2.640625 4.53125,-4.28125 Z m 0,0"
               id="path18" />
          </g>
        </g>
      </g>
    </g>
    <path
       d="M 113.9734,82.164494 V 60.020109 c -0.15548,0.0073 -0.3082,0.0079 -0.46715,0.02377 -0.29153,0.02913 -0.58873,0.07245 -0.8909,0.129191 -0.30217,0.05674 -0.60941,0.126976 -0.92088,0.209807 -0.31146,0.08283 -0.62728,0.178376 -0.94671,0.28577 -0.31943,0.107395 -0.64236,0.226648 -0.96841,0.357084 -0.32606,0.130437 -0.65516,0.272309 -0.98651,0.424264 -0.33135,0.151955 -0.66515,0.314324 -1.00045,0.486275 -0.33531,0.171952 -0.67236,0.353211 -1.01028,0.543636 -0.33792,0.190425 -0.67675,0.390004 -1.01596,0.59738 -0.3392,0.207375 -0.67887,0.422635 -1.01802,0.645438 -0.33915,0.222804 -0.67768,0.453173 -1.01544,0.689881 -0.33777,0.236708 -0.67472,0.479547 -1.00976,0.728637 -0.33504,0.249091 -0.66844,0.504345 -0.99942,0.764295 -0.33098,0.25995 -0.65937,0.52498 -0.98496,0.794267 -0.32558,0.269286 -0.64801,0.542488 -0.966862,0.819588 -0.31885,0.2771 -0.63438,0.557901 -0.945162,0.841292 -0.310782,0.283391 -0.616913,0.56967 -0.91829,0.857829 -0.301378,0.288159 -0.597681,0.57831 -0.888318,0.869714 -0.290637,0.291405 -0.575651,0.583822 -0.854212,0.876949 -0.278561,0.293128 -0.550822,0.586723 -0.81597,0.88005 -0.265149,0.293327 -0.523196,0.586495 -0.773597,0.878499 -0.2504,0.292005 -0.493287,0.58314 -0.727604,0.872299 -0.234317,0.289158 -0.460064,0.576655 -0.676961,0.861446 -0.216897,0.28479 -0.42456,0.566527 -0.622701,0.845426 -0.198141,0.278899 -0.386774,0.554821 -0.564824,0.826306 -0.178049,0.271485 -0.345673,0.538954 -0.502294,0.801502 -0.156622,0.262548 -0.302292,0.519957 -0.43615,0.772046 -0.133857,0.252088 -0.256111,0.498867 -0.365869,0.738973 -0.109758,0.240106 -0.207132,0.473614 -0.291455,0.700215 -0.08432,0.226601 -0.155356,0.446268 -0.212907,0.657841 -0.05755,0.211573 -0.101298,0.415277 -0.130741,0.610299 -0.02944,0.195022 -0.04444,0.381157 -0.04444,0.558105 0,0.176949 0.0088,0.335398 0.02635,0.476457 0.01754,0.141059 0.04357,0.264624 0.07803,0.37207 0.03446,0.107447 0.07738,0.198808 0.128157,0.274919 0.05078,0.07611 0.109212,0.136915 0.1757,0.183968 0.06649,0.04705 0.141138,0.0805 0.222725,0.100769 0.08159,0.02027 0.170572,0.02749 0.266651,0.02325 0.09608,-0.0042 0.199063,-0.02005 0.309025,-0.04651 0.109961,-0.02646 0.226614,-0.06366 0.349849,-0.110071 0.123236,-0.04641 0.253224,-0.1018 0.389124,-0.165881 0.1359,-0.06408 0.277858,-0.136531 0.425814,-0.216008 0.295912,-0.158953 0.615013,-0.346582 0.955497,-0.553454 0.680968,-0.413744 1.446313,-0.904831 2.276347,-1.400949 0.415017,-0.248058 0.846416,-0.497646 1.291394,-0.738972 0.444978,-0.241327 0.903491,-0.474537 1.373559,-0.690914 0.235035,-0.108189 0.473258,-0.21204 0.713652,-0.310576 0.240394,-0.09853 0.482976,-0.19193 0.728121,-0.278536 0.245144,-0.08661 0.492787,-0.166347 0.742077,-0.238745 0.24928,-0.0724 0.50062,-0.137356 0.75344,-0.19327 0.25282,-0.05591 0.507,-0.102891 0.76274,-0.140043 0.25575,-0.03715 0.51296,-0.0645 0.77102,-0.08061 0.25806,-0.01611 0.51693,-0.02115 0.77669,-0.01395 0.25977,0.0072 0.52049,0.02663 0.78135,0.05943 0.26086,0.0328 0.52206,0.07886 0.78341,0.139527 0.26136,0.06067 0.5227,0.136047 0.78394,0.226859 0.26123,0.09081 0.52239,0.197157 0.78289,0.320394 0.26051,0.123237 0.52012,0.263225 0.77928,0.421163 1.05624,0.643676 2.06588,1.245624 3.03031,1.807125 0.96443,0.561501 1.88414,1.082823 2.76056,1.565796 0.26465,0.145844 0.49865,0.264176 0.7555,0.403076 z"
       style="fill:#003c80;fill-opacity:0.4;stroke-width:0.163743;stroke-linecap:round;stroke-linejoin:bevel"
       id="path36" />
    <path
       d="m 115.30562,60.022176 c -0.0401,-0.0017 -0.0785,-0.0052 -0.11885,-0.0067 -0.26944,-0.01011 -0.54416,-0.0155 -0.82372,-0.0155 -0.12714,0 -0.25996,0.01404 -0.38965,0.02015 v 22.144385 c 0.45296,0.24495 0.90307,0.487282 1.33222,0.711068 z"
       style="fill:#5ec400;fill-opacity:1;stroke-width:0.163743;stroke-linecap:round;stroke-linejoin:bevel"
       id="path34" />
    <path
       d="m 115.30562,60.022176 v 22.853386 c 0.13337,0.06955 0.28282,0.153635 0.41393,0.221175 0.7922,0.408091 1.5434,0.779869 2.25516,1.116727 0.71177,0.336858 1.38438,0.639201 2.01952,0.908472 0.63513,0.269271 1.23243,0.505219 1.79472,0.710551 0.56229,0.205332 1.0896,0.379993 1.58285,0.525033 0.49324,0.145039 0.9528,0.260421 1.38079,0.348815 0.214,0.0442 0.42018,0.08194 0.61857,0.112655 0.19839,0.03072 0.38879,0.05465 0.57206,0.07235 0.18326,0.0177 0.359,0.02897 0.52761,0.03411 0.16862,0.0051 0.3303,0.0039 0.48473,-0.0031 0.15443,-0.007 0.30162,-0.01961 0.44235,-0.03824 0.14073,-0.01863 0.27506,-0.04303 0.40256,-0.07286 0.12749,-0.02983 0.24854,-0.06537 0.36328,-0.105937 0.11474,-0.04057 0.22311,-0.08608 0.32556,-0.136943 0.10246,-0.05086 0.19874,-0.106743 0.28939,-0.167431 0.0907,-0.06069 0.17545,-0.126308 0.25477,-0.196371 0.0793,-0.07006 0.15323,-0.144778 0.22169,-0.223759 0.0685,-0.07898 0.13158,-0.162153 0.18965,-0.249597 0.0581,-0.08744 0.11101,-0.178951 0.15917,-0.274402 0.0481,-0.09545 0.0915,-0.194655 0.13022,-0.297656 0.0387,-0.103001 0.0731,-0.209781 0.10284,-0.319877 0.0298,-0.110096 0.0547,-0.223812 0.076,-0.340548 0.0425,-0.23347 0.0687,-0.479614 0.0801,-0.736906 0.0114,-0.257291 0.008,-0.525586 -0.008,-0.803051 -0.0159,-0.277466 -0.0443,-0.564354 -0.0837,-0.858346 -0.0394,-0.293992 -0.0897,-0.595399 -0.14883,-0.90227 -0.0591,-0.306872 -0.12697,-0.61924 -0.20205,-0.935344 -0.0751,-0.316104 -0.15721,-0.635875 -0.24443,-0.957564 -0.17445,-0.643378 -0.36974,-1.29403 -0.56999,-1.937866 -0.20026,-0.643837 -0.4058,-1.280892 -0.60152,-1.896009 -0.19571,-0.615117 -0.38126,-1.208562 -0.54208,-1.765783 -0.0804,-0.278611 -0.15466,-0.548004 -0.22066,-0.806669 -0.066,-0.258666 -0.12377,-0.506483 -0.17157,-0.741557 -0.0478,-0.235074 -0.0858,-0.457241 -0.11162,-0.665076 -0.0258,-0.207835 -0.0393,-0.401311 -0.0393,-0.578259 0,-0.353897 -0.0149,-0.706243 -0.0444,-1.05575 -0.0296,-0.349507 -0.074,-0.695943 -0.13384,-1.038696 -0.0599,-0.342753 -0.13546,-0.681807 -0.22635,-1.015442 -0.0909,-0.333635 -0.19726,-0.662282 -0.31987,-0.984436 -0.12261,-0.322154 -0.26095,-0.637887 -0.416,-0.946195 -0.15505,-0.308309 -0.32701,-0.609138 -0.51521,-0.901237 -0.18821,-0.2921 -0.39287,-0.575518 -0.61495,-0.849044 -0.11104,-0.136764 -0.22659,-0.270883 -0.34624,-0.40256 -0.11964,-0.131677 -0.24322,-0.260761 -0.37155,-0.387056 -0.12833,-0.126295 -0.26131,-0.249903 -0.39842,-0.37052 -0.13712,-0.120618 -0.2788,-0.238305 -0.42478,-0.35295 -0.14599,-0.114645 -0.29619,-0.22597 -0.45114,-0.334347 -0.15494,-0.108376 -0.31453,-0.21393 -0.47852,-0.315743 -0.164,-0.101812 -0.33227,-0.200119 -0.5054,-0.295072 -0.17313,-0.09495 -0.35094,-0.186087 -0.5333,-0.273885 -0.18236,-0.0878 -0.36953,-0.17235 -0.56121,-0.252698 -0.19167,-0.08035 -0.38802,-0.156841 -0.58911,-0.229443 -0.20108,-0.0726 -0.40695,-0.141111 -0.61753,-0.205673 -0.21058,-0.06456 -0.42579,-0.125159 -0.64596,-0.181384 -0.22016,-0.05622 -0.44505,-0.107953 -0.67489,-0.155546 -0.22984,-0.04759 -0.46474,-0.09104 -0.70435,-0.129708 -0.23961,-0.03866 -0.48383,-0.07288 -0.73329,-0.102319 -0.24946,-0.02944 -0.50385,-0.05397 -0.76326,-0.0739 -0.22054,-0.01694 -0.44659,-0.02838 -0.67438,-0.03824 z"
       style="fill:#003c80;fill-opacity:0.4;stroke-width:0.163743;stroke-linecap:round;stroke-linejoin:bevel"
       id="path33" />
    <g
       inkscape:label=""
       transform="translate(107.61896,67.468725)"
       id="g7">
      <g
         fill="#000000"
         fill-opacity="1"
         id="g6"
         transform="matrix(0.352778,0,0,0.352778,-0.884987,-0.564356)">
        <g
           id="use1"
           transform="translate(1.993,13.756)">
          <path
             d="m 4.828125,-11.6875 c 0.03125,-0.1875 0.03125,-0.234375 0.03125,-0.28125 0,-0.125 -0.03125,-0.171875 -0.1875,-0.171875 -0.1875,0 -0.71875,0.265625 -1.0625,0.4375 -0.78125,0.390625 -1.4375,0.71875 -1.4375,1.03125 0,0.09375 0.125,0.09375 0.1875,0.09375 0.203125,0 0.65625,-0.234375 0.984375,-0.390625 -0.203125,1.6875 -0.625,3.890625 -0.9375,5.375 -0.625,2.921875 -0.953125,3.96875 -1.796875,5.640625 -0.09375,0.15625 -0.09375,0.1875 -0.09375,0.21875 C 0.515625,0.375 0.65625,0.375 0.6875,0.375 c 0.28125,0 1,-0.3125 1.28125,-0.78125 0.21875,-0.40625 0.875,-1.65625 1.390625,-3.65625 0.375,-1.484375 1.03125,-3.734375 2.25,-5.515625 0.796875,-1.109375 1.515625,-1.625 2.609375,-1.625 0.921875,0 1.765625,0.59375 1.765625,1.515625 0,1.515625 -1.640625,2.0625 -3.421875,2.65625 -0.203125,0.078125 -1.390625,0.484375 -1.390625,0.921875 0,0.09375 0.109375,0.125 0.171875,0.125 0.0625,0 0.453125,-0.078125 0.828125,-0.078125 1.734375,0 3.140625,1.03125 3.140625,2.671875 0,2.140625 -1.828125,2.828125 -3.390625,2.828125 -1.328125,0 -1.96875,-0.734375 -2.1875,-0.96875 -0.0625,-0.09375 -0.078125,-0.125 -0.21875,-0.125 -0.375,0 -1.265625,0.53125 -1.265625,0.84375 0,0.0625 0.671875,1.1875 2.53125,1.1875 2.4375,0 6,-1.71875 6,-4.484375 0,-1.453125 -0.96875,-2.53125 -2.71875,-2.859375 1.375,-0.59375 3.390625,-1.828125 3.390625,-3.453125 0,-1 -0.828125,-1.734375 -2.109375,-1.734375 -0.578125,0 -2.78125,0.15625 -4.859375,2.734375 z m 0,0"
             id="path3" />
        </g>
      </g>
    </g>
    <g
       inkscape:label=""
       transform="translate(91.214792,47.095808)"
       id="g14">
      <g
         fill="#000000"
         fill-opacity="1"
         id="g9"
         transform="matrix(0.352778,0,0,0.352778,-0.884987,-0.564356)">
        <g
           id="g8"
           transform="translate(1.993,13.756)">
          <path
             d="m 4.828125,-11.6875 c 0.03125,-0.1875 0.03125,-0.234375 0.03125,-0.28125 0,-0.125 -0.03125,-0.171875 -0.1875,-0.171875 -0.1875,0 -0.71875,0.265625 -1.0625,0.4375 -0.78125,0.390625 -1.4375,0.71875 -1.4375,1.03125 0,0.09375 0.125,0.09375 0.1875,0.09375 0.203125,0 0.65625,-0.234375 0.984375,-0.390625 -0.203125,1.6875 -0.625,3.890625 -0.9375,5.375 -0.625,2.921875 -0.953125,3.96875 -1.796875,5.640625 -0.09375,0.15625 -0.09375,0.1875 -0.09375,0.21875 C 0.515625,0.375 0.65625,0.375 0.6875,0.375 c 0.28125,0 1,-0.3125 1.28125,-0.78125 0.21875,-0.40625 0.875,-1.65625 1.390625,-3.65625 0.375,-1.484375 1.03125,-3.734375 2.25,-5.515625 0.796875,-1.109375 1.515625,-1.625 2.609375,-1.625 0.921875,0 1.765625,0.59375 1.765625,1.515625 0,1.515625 -1.640625,2.0625 -3.421875,2.65625 -0.203125,0.078125 -1.390625,0.484375 -1.390625,0.921875 0,0.09375 0.109375,0.125 0.171875,0.125 0.0625,0 0.453125,-0.078125 0.828125,-0.078125 1.734375,0 3.140625,1.03125 3.140625,2.671875 0,2.140625 -1.828125,2.828125 -3.390625,2.828125 -1.328125,0 -1.96875,-0.734375 -2.1875,-0.96875 -0.0625,-0.09375 -0.078125,-0.125 -0.21875,-0.125 -0.375,0 -1.265625,0.53125 -1.265625,0.84375 0,0.0625 0.671875,1.1875 2.53125,1.1875 2.4375,0 6,-1.71875 6,-4.484375 0,-1.453125 -0.96875,-2.53125 -2.71875,-2.859375 1.375,-0.59375 3.390625,-1.828125 3.390625,-3.453125 0,-1 -0.828125,-1.734375 -2.109375,-1.734375 -0.578125,0 -2.78125,0.15625 -4.859375,2.734375 z m 0,0"
             id="path8" />
        </g>
      </g>
      <g
         fill="#000000"
         fill-opacity="1"
         id="g13"
         transform="matrix(0.352778,0,0,0.352778,-0.884987,-0.564356)">
        <g
           id="g10"
           transform="translate(13.823,7.5089998)">
          <path
             d="M 4.46875,-4.5625 C 3.828125,-4.921875 3.453125,-5.03125 2.796875,-5.03125 c -1.515625,0 -2.40625,1.328125 -2.40625,2.609375 0,1.359375 1,2.546875 2.359375,2.546875 0.59375,0 1.1875,-0.15625 1.78125,-0.5625 L 4.453125,-1.171875 c -0.546875,0.4375 -1.140625,0.59375 -1.6875,0.59375 -0.90625,0 -1.515625,-0.78125 -1.515625,-1.859375 0,-0.84375 0.390625,-1.890625 1.546875,-1.890625 0.578125,0 0.9375,0.078125 1.546875,0.484375 z m 0,0"
             id="path9" />
        </g>
      </g>
    </g>
  </g>
</svg>
