<?xml version="1.0" encoding="UTF-8" standalone="no"?>
<!-- Created with Inkscape (http://www.inkscape.org/) -->

<svg
   width="210mm"
   height="297mm"
   viewBox="0 0 210 297"
   version="1.1"
   id="svg1"
   inkscape:version="1.3 (0e150ed6c4, 2023-07-21)"
   sodipodi:docname="independent_sets.svg"
   xmlns:inkscape="http://www.inkscape.org/namespaces/inkscape"
   xmlns:sodipodi="http://sodipodi.sourceforge.net/DTD/sodipodi-0.dtd"
   xmlns="http://www.w3.org/2000/svg"
   xmlns:svg="http://www.w3.org/2000/svg">
  <sodipodi:namedview
     id="namedview1"
     pagecolor="#505050"
     bordercolor="#eeeeee"
     borderopacity="1"
     inkscape:showpageshadow="0"
     inkscape:pageopacity="0"
     inkscape:pagecheckerboard="0"
     inkscape:deskcolor="#d1d1d1"
     inkscape:document-units="mm"
     inkscape:zoom="2"
     inkscape:cx="413.25"
     inkscape:cy="304"
     inkscape:window-width="2560"
     inkscape:window-height="1316"
     inkscape:window-x="-12"
     inkscape:window-y="-12"
     inkscape:window-maximized="1"
     inkscape:current-layer="layer1" />
  <defs
     id="defs1">
    <marker
       style="overflow:visible"
       id="ConcaveTriangle"
       refX="0"
       refY="0"
       orient="auto-start-reverse"
       inkscape:stockid="Concave triangle arrow"
       markerWidth="1"
       markerHeight="1"
       viewBox="0 0 1 1"
       inkscape:isstock="true"
       inkscape:collect="always"
       preserveAspectRatio="xMidYMid">
      <path
         transform="scale(0.7)"
         d="M -2,-4 9,0 -2,4 c 2,-2.33 2,-5.66 0,-8 z"
         style="fill:context-stroke;fill-rule:evenodd;stroke:none"
         id="path7" />
    </marker>
    <marker
       style="overflow:visible"
       id="ConcaveTriangle-4"
       refX="0"
       refY="0"
       orient="auto-start-reverse"
       inkscape:stockid="Concave triangle arrow"
       markerWidth="1"
       markerHeight="1"
       viewBox="0 0 1 1"
       inkscape:isstock="true"
       inkscape:collect="always"
       preserveAspectRatio="xMidYMid">
      <path
         transform="scale(0.7)"
         d="M -2,-4 9,0 -2,4 c 2,-2.33 2,-5.66 0,-8 z"
         style="fill:context-stroke;fill-rule:evenodd;stroke:none"
         id="path7-5" />
    </marker>
  </defs>
  <g
     inkscape:label="Layer 1"
     inkscape:groupmode="layer"
     id="layer1">
    <rect
       style="fill:#800000;fill-opacity:0.2;stroke:none;stroke-width:0.355616"
       id="rect15"
       width="66.599358"
       height="67.056953"
       x="77.408218"
       y="36.842667" />
    <rect
       style="fill:#55ff00;fill-opacity:0.4;stroke:none;stroke-width:0.362157"
       id="rect16"
       width="66.599358"
       height="10.729112"
       x="77.408218"
       y="93.304626" />
    <rect
       style="fill:#003e80;fill-opacity:0.4;stroke:none;stroke-width:0.333611"
       id="rect17"
       width="50"
       height="67.056953"
       x="77.408218"
       y="36.842667" />
    <rect
       style="fill:#1d2e62;fill-opacity:1;stroke:none;stroke-width:0.342574"
       id="rect18"
       width="50"
       height="1.341139"
       x="77.411804"
       y="103.93606" />
    <rect
       style="fill:#5ec400;fill-opacity:1;stroke:none;stroke-width:0.35363"
       id="rect19"
       width="1.3319871"
       height="10.729112"
       x="76.137962"
       y="93.28817" />
    <path
       style="fill:none;stroke:#000000;stroke-width:0.518188;stroke-linecap:butt;stroke-linejoin:miter;stroke-dasharray:none;stroke-opacity:1;marker-end:url(#ConcaveTriangle)"
       d="M 68.949696,104.18516 H 145.61304"
       id="path1" />
    <path
       style="fill:none;stroke:#000000;stroke-width:0.518188;stroke-linecap:butt;stroke-linejoin:miter;stroke-dasharray:none;stroke-opacity:1;marker-end:url(#ConcaveTriangle-4)"
       d="M 77.236646,112.52842 V 35.338328"
       id="path1-0" />
    <g
       id="g34">
      <rect
         style="fill:#1d2e62;fill-opacity:1;stroke:none;stroke-width:0.136862"
         id="rect18-3"
         width="8.9433832"
         height="1.1967431"
         x="170.59488"
         y="41.601753" />
      <rect
         style="fill:#5ec400;fill-opacity:1;stroke:none;stroke-width:0.136862"
         id="rect18-3-7"
         width="8.9433832"
         height="1.1967431"
         x="170.59488"
         y="50.577358" />
      <rect
         style="fill:none;fill-opacity:1;stroke:#000000;stroke-width:0.490129;stroke-linecap:round;stroke-linejoin:bevel;stroke-dasharray:none;stroke-opacity:1"
         id="rect20"
         width="29.509871"
         height="17.509871"
         x="153.14606"
         y="38.088776" />
      <g
         inkscape:label=""
         transform="translate(158,40.736034)"
         id="g20">
        <g
           fill="#000000"
           fill-opacity="1"
           id="g3"
           transform="matrix(0.352778,0,0,0.352778,-0.884987,-0.564356)">
          <g
             id="use2"
             transform="translate(1.993,13.756)">
            <path
               d="m 4.828125,-11.6875 c 0.03125,-0.1875 0.03125,-0.234375 0.03125,-0.28125 0,-0.125 -0.03125,-0.171875 -0.1875,-0.171875 -0.1875,0 -0.71875,0.265625 -1.0625,0.4375 -0.78125,0.390625 -1.4375,0.71875 -1.4375,1.03125 0,0.09375 0.125,0.09375 0.1875,0.09375 0.203125,0 0.65625,-0.234375 0.984375,-0.390625 -0.203125,1.6875 -0.625,3.890625 -0.9375,5.375 -0.625,2.921875 -0.953125,3.96875 -1.796875,5.640625 -0.09375,0.15625 -0.09375,0.1875 -0.09375,0.21875 C 0.515625,0.375 0.65625,0.375 0.6875,0.375 c 0.28125,0 1,-0.3125 1.28125,-0.78125 0.21875,-0.40625 0.875,-1.65625 1.390625,-3.65625 0.375,-1.484375 1.03125,-3.734375 2.25,-5.515625 0.796875,-1.109375 1.515625,-1.625 2.609375,-1.625 0.921875,0 1.765625,0.59375 1.765625,1.515625 0,1.515625 -1.640625,2.0625 -3.421875,2.65625 -0.203125,0.078125 -1.390625,0.484375 -1.390625,0.921875 0,0.09375 0.109375,0.125 0.171875,0.125 0.0625,0 0.453125,-0.078125 0.828125,-0.078125 1.734375,0 3.140625,1.03125 3.140625,2.671875 0,2.140625 -1.828125,2.828125 -3.390625,2.828125 -1.328125,0 -1.96875,-0.734375 -2.1875,-0.96875 -0.0625,-0.09375 -0.078125,-0.125 -0.21875,-0.125 -0.375,0 -1.265625,0.53125 -1.265625,0.84375 0,0.0625 0.671875,1.1875 2.53125,1.1875 2.4375,0 6,-1.71875 6,-4.484375 0,-1.453125 -0.96875,-2.53125 -2.71875,-2.859375 1.375,-0.59375 3.390625,-1.828125 3.390625,-3.453125 0,-1 -0.828125,-1.734375 -2.109375,-1.734375 -0.578125,0 -2.78125,0.15625 -4.859375,2.734375 z m 0,0"
               id="path4" />
          </g>
        </g>
        <g
           fill="#000000"
           fill-opacity="1"
           id="g4"
           transform="matrix(0.352778,0,0,0.352778,-0.884987,-0.564356)">
          <g
             id="use3"
             transform="translate(13.3,16.337999)">
            <path
               d="m 1.25,-2.390625 c 0.140625,-0.046875 0.515625,-0.296875 0.515625,-0.4375 0,-0.078125 -0.0625,-0.078125 -0.125,-0.078125 -0.375,0 -1.4375,0.46875 -1.4375,1.546875 0,0.796875 0.875,1.59375 2.203125,1.59375 C 4.1875,0.234375 6.25,-1 6.25,-2.46875 6.25,-3.515625 5.15625,-4.015625 4.28125,-4.40625 3.515625,-4.75 3.015625,-5.203125 3.015625,-5.828125 c 0,-0.21875 0.09375,-0.65625 0.4375,-0.9375 0.328125,-0.296875 0.9375,-0.328125 1.078125,-0.328125 0.125,0 0.578125,0.015625 1.046875,0.21875 0.21875,0.109375 0.5,0.234375 0.5,0.703125 0,0.15625 -0.015625,0.203125 -0.046875,0.328125 -0.015625,0.03125 -0.015625,0.078125 -0.015625,0.109375 0,0.078125 0.0625,0.078125 0.109375,0.078125 0.140625,0 0.390625,-0.109375 0.609375,-0.296875 C 6.875,-6.0625 7,-6.203125 7,-6.625 7,-7.171875 6.71875,-7.3125 6.421875,-7.453125 5.90625,-7.6875 5.40625,-7.6875 5.25,-7.6875 c -1.421875,0 -3.171875,1.09375 -3.171875,2.328125 C 2.078125,-4.4375 3.03125,-4 3.5625,-3.78125 4.328125,-3.421875 5.328125,-2.921875 5.328125,-2 c 0,0.71875 -0.546875,1.640625 -2.203125,1.640625 -1.109375,0 -2,-0.71875 -2,-1.46875 0,-0.1875 0.046875,-0.390625 0.125,-0.5625 z m 0,0"
               id="path5" />
          </g>
        </g>
      </g>
      <g
         inkscape:label=""
         transform="translate(158,49.202695)"
         id="g25">
        <g
           fill="#000000"
           fill-opacity="1"
           id="g22"
           transform="matrix(0.352778,0,0,0.352778,-0.884987,-0.564356)">
          <g
             id="g21"
             transform="translate(1.993,13.756)">
            <path
               d="m 4.828125,-11.6875 c 0.03125,-0.1875 0.03125,-0.234375 0.03125,-0.28125 0,-0.125 -0.03125,-0.171875 -0.1875,-0.171875 -0.1875,0 -0.71875,0.265625 -1.0625,0.4375 -0.78125,0.390625 -1.4375,0.71875 -1.4375,1.03125 0,0.09375 0.125,0.09375 0.1875,0.09375 0.203125,0 0.65625,-0.234375 0.984375,-0.390625 -0.203125,1.6875 -0.625,3.890625 -0.9375,5.375 -0.625,2.921875 -0.953125,3.96875 -1.796875,5.640625 -0.09375,0.15625 -0.09375,0.1875 -0.09375,0.21875 C 0.515625,0.375 0.65625,0.375 0.6875,0.375 c 0.28125,0 1,-0.3125 1.28125,-0.78125 0.21875,-0.40625 0.875,-1.65625 1.390625,-3.65625 0.375,-1.484375 1.03125,-3.734375 2.25,-5.515625 0.796875,-1.109375 1.515625,-1.625 2.609375,-1.625 0.921875,0 1.765625,0.59375 1.765625,1.515625 0,1.515625 -1.640625,2.0625 -3.421875,2.65625 -0.203125,0.078125 -1.390625,0.484375 -1.390625,0.921875 0,0.09375 0.109375,0.125 0.171875,0.125 0.0625,0 0.453125,-0.078125 0.828125,-0.078125 1.734375,0 3.140625,1.03125 3.140625,2.671875 0,2.140625 -1.828125,2.828125 -3.390625,2.828125 -1.328125,0 -1.96875,-0.734375 -2.1875,-0.96875 -0.0625,-0.09375 -0.078125,-0.125 -0.21875,-0.125 -0.375,0 -1.265625,0.53125 -1.265625,0.84375 0,0.0625 0.671875,1.1875 2.53125,1.1875 2.4375,0 6,-1.71875 6,-4.484375 0,-1.453125 -0.96875,-2.53125 -2.71875,-2.859375 1.375,-0.59375 3.390625,-1.828125 3.390625,-3.453125 0,-1 -0.828125,-1.734375 -2.109375,-1.734375 -0.578125,0 -2.78125,0.15625 -4.859375,2.734375 z m 0,0"
               id="path20" />
          </g>
        </g>
        <g
           fill="#000000"
           fill-opacity="1"
           id="g24"
           transform="matrix(0.352778,0,0,0.352778,-0.884987,-0.564356)">
          <g
             id="g23"
             transform="translate(13.3,16.337999)">
            <path
               d="m 5.296875,-6.765625 h 1.8125 c 1.4375,0 1.984375,-0.84375 1.984375,-0.984375 0,-0.046875 -0.046875,-0.0625 -0.09375,-0.0625 -0.125,0 -0.40625,0.109375 -0.671875,0.296875 -0.09375,0.0625 -0.109375,0.0625 -0.328125,0.0625 H 3.234375 c -1.34375,0 -2.859375,1.171875 -2.859375,2.0625 0,0.0625 0,0.140625 0.078125,0.140625 0.265625,0 0.953125,-0.359375 0.96875,-0.625 0.015625,-0.1875 0.046875,-0.390625 0.25,-0.671875 C 1.78125,-6.6875 1.875,-6.765625 2.359375,-6.765625 H 4.53125 c -0.1875,0.109375 -0.234375,0.28125 -0.25,0.390625 l -1.25,4.9375 c -0.125,0.53125 -0.359375,1.21875 -0.671875,1.921875 -0.0625,0.140625 -0.0625,0.15625 -0.0625,0.1875 0,0.0625 0.03125,0.0625 0.09375,0.0625 0.21875,0 0.75,-0.28125 0.90625,-0.515625 C 3.375,0.109375 3.84375,-1 4.078125,-1.90625 Z m 0,0"
               id="path22" />
          </g>
        </g>
      </g>
    </g>
    <g
       inkscape:label=""
       transform="translate(67.75999,35.165266)"
       id="g29">
      <g
         fill="#000000"
         fill-opacity="1"
         id="g28"
         transform="matrix(0.352778,0,0,0.352778,-0.951133,-0.458082)">
        <g
           id="g27"
           transform="translate(1.993,16.111)">
          <path
             d="m 10.03125,-12.828125 h 3.4375 c 2.71875,0 3.765625,-1.5625 3.765625,-1.84375 0,-0.09375 -0.09375,-0.140625 -0.1875,-0.140625 -0.234375,0 -0.765625,0.203125 -1.28125,0.578125 -0.171875,0.125 -0.21875,0.125 -0.609375,0.125 H 6.140625 c -2.5625,0 -5.4375,2.21875 -5.4375,3.90625 0,0.125 0,0.25 0.171875,0.25 0.484375,0 1.796875,-0.6875 1.828125,-1.1875 0.03125,-0.34375 0.0625,-0.734375 0.484375,-1.28125 0.203125,-0.234375 0.359375,-0.40625 1.28125,-0.40625 h 4.109375 c -0.359375,0.234375 -0.4375,0.53125 -0.484375,0.75 L 5.75,-2.734375 C 5.5,-1.71875 5.0625,-0.40625 4.46875,0.921875 c -0.125,0.25 -0.125,0.296875 -0.125,0.34375 0,0.125 0.078125,0.140625 0.1875,0.140625 0.40625,0 1.421875,-0.5625 1.734375,-1 C 6.375,0.203125 7.296875,-1.90625 7.71875,-3.609375 Z m 0,0"
             id="path26" />
        </g>
      </g>
    </g>
    <g
       inkscape:label=""
       transform="translate(141.01433,106.18964)"
       id="g32">
      <g
         fill="#000000"
         fill-opacity="1"
         id="g31"
         transform="matrix(0.352778,0,0,0.352778,-0.835378,-0.546276)">
        <g
           id="g30"
           transform="translate(1.993,16.111)">
          <path
             d="M 2.375,-4.53125 C 2.625,-4.625 3.34375,-5.078125 3.34375,-5.375 c 0,-0.140625 -0.125,-0.140625 -0.25,-0.140625 -0.703125,0 -2.71875,0.890625 -2.71875,2.953125 0,1.484375 1.671875,3.015625 4.1875,3.015625 3.375,0 7.28125,-2.328125 7.28125,-5.140625 0,-1.96875 -2.078125,-2.90625 -3.75,-3.65625 C 6.65625,-9 5.703125,-9.859375 5.703125,-11.03125 c 0,-0.4375 0.1875,-1.234375 0.828125,-1.796875 0.609375,-0.53125 1.765625,-0.59375 2.0625,-0.59375 0.21875,0 1.09375,0.01563 1.984375,0.40625 0.390625,0.1875 0.921875,0.4375 0.921875,1.328125 0,0.28125 -0.01563,0.390625 -0.07813,0.609375 -0.01563,0.0625 -0.04687,0.15625 -0.04687,0.21875 0,0.140625 0.125,0.140625 0.21875,0.140625 0.265625,0 0.765625,-0.203125 1.171875,-0.5625 0.265625,-0.203125 0.5,-0.46875 0.5,-1.28125 0,-1.015625 -0.546875,-1.296875 -1.09375,-1.546875 C 11.203125,-14.5625 10.25,-14.5625 9.953125,-14.5625 c -2.703125,0 -6,2.0625 -6,4.421875 0,1.734375 1.796875,2.5625 2.78125,3 1.46875,0.65625 3.34375,1.609375 3.34375,3.34375 0,1.375 -1.015625,3.109375 -4.15625,3.109375 -2.09375,0 -3.796875,-1.359375 -3.796875,-2.765625 0,-0.375 0.109375,-0.734375 0.25,-1.078125 z m 0,0"
             id="path29" />
        </g>
      </g>
    </g>
    <g
       inkscape:label=""
       transform="translate(129.3,64)"
       id="g62">
      <g
         fill="#000000"
         fill-opacity="1"
         id="g6"
         transform="matrix(0.352778,0,0,0.352778,-0.807817,-0.623976)">
        <g
           id="use5"
           transform="translate(1.993,8.8000002)">
          <path
             d="M 2.796875,-6.765625 C 2.8125,-6.875 2.8125,-6.890625 2.8125,-6.921875 2.8125,-7 2.796875,-7.03125 2.703125,-7.03125 c -0.109375,0 -0.40625,0.15625 -0.609375,0.25 C 1.640625,-6.546875 1.25,-6.359375 1.25,-6.1875 c 0,0.0625 0.078125,0.0625 0.109375,0.0625 0.125,0 0.390625,-0.140625 0.578125,-0.21875 -0.125,0.96875 -0.359375,2.25 -0.546875,3.109375 C 1.03125,-1.546875 0.84375,-0.9375 0.34375,0.03125 0.296875,0.125 0.296875,0.140625 0.296875,0.15625 c 0,0.0625 0.078125,0.0625 0.109375,0.0625 0.15625,0 0.578125,-0.171875 0.734375,-0.453125 0.125,-0.234375 0.5,-0.96875 0.796875,-2.125 0.21875,-0.84375 0.609375,-2.15625 1.3125,-3.1875 0.453125,-0.640625 0.875,-0.9375 1.5,-0.9375 0.546875,0 1.03125,0.34375 1.03125,0.875 0,0.875 -0.953125,1.1875 -1.984375,1.546875 -0.125,0.03125 -0.8125,0.28125 -0.8125,0.53125 0,0.046875 0.078125,0.0625 0.109375,0.0625 0.03125,0 0.265625,-0.046875 0.46875,-0.046875 1.015625,0 1.828125,0.609375 1.828125,1.546875 0,1.234375 -1.046875,1.640625 -1.96875,1.640625 -0.765625,0 -1.125,-0.421875 -1.265625,-0.5625 -0.03125,-0.046875 -0.046875,-0.0625 -0.125,-0.0625 -0.21875,0 -0.71875,0.3125 -0.71875,0.484375 0,0.03125 0.375,0.6875 1.453125,0.6875 1.40625,0 3.46875,-1 3.46875,-2.59375 0,-0.84375 -0.546875,-1.46875 -1.5625,-1.65625 0.796875,-0.34375 1.953125,-1.0625 1.953125,-2 0,-0.578125 -0.46875,-1 -1.21875,-1 -0.328125,0 -1.609375,0.078125 -2.8125,1.578125 z m 0,0"
             id="path12" />
        </g>
      </g>
      <g
         fill="#000000"
         fill-opacity="1"
         id="g7"
         transform="matrix(0.352778,0,0,0.352778,-0.807817,-0.623976)">
        <g
           id="use6"
           transform="translate(8.8389997,5.1849999)">
          <path
             d="M 3.03125,-0.765625 C 2.6875,-0.53125 2.3125,-0.40625 1.875,-0.40625 c -0.640625,0 -1.015625,-0.515625 -1.015625,-1.140625 0,-0.546875 0.28125,-1.171875 1.03125,-1.171875 0.484375,0 0.703125,0.09375 1.0625,0.328125 L 3.03125,-2.90625 C 2.625,-3.109375 2.4375,-3.203125 1.890625,-3.203125 c -1.046875,0 -1.640625,0.84375 -1.640625,1.65625 0,0.84375 0.671875,1.609375 1.625,1.609375 0.484375,0 0.90625,-0.140625 1.203125,-0.3125 z m 0,0"
             id="path13" />
        </g>
      </g>
      <g
         fill="#000000"
         fill-opacity="1"
         id="g8"
         transform="matrix(0.352778,0,0,0.352778,-0.807817,-0.623976)">
        <g
           id="use7"
           transform="translate(8.5360003,11.544)">
          <path
             d="M 0.984375,-1.515625 C 1.171875,-1.59375 1.34375,-1.734375 1.34375,-1.828125 1.34375,-1.875 1.28125,-1.875 1.25,-1.875 c -0.328125,0 -0.984375,0.375 -0.984375,0.96875 0,0.546875 0.734375,1.046875 1.609375,1.046875 1.375,0 2.671875,-0.8125 2.671875,-1.75 0,-0.6875 -0.796875,-1 -1.390625,-1.203125 C 2.875,-2.90625 2.171875,-3.140625 2.171875,-3.703125 2.171875,-4 2.34375,-4.234375 2.46875,-4.3125 c 0.234375,-0.125 0.578125,-0.15625 0.75,-0.15625 0.078125,0 0.359375,0 0.71875,0.109375 0.1875,0.0625 0.390625,0.140625 0.390625,0.46875 0,0.125 -0.015625,0.203125 -0.015625,0.234375 0,0.015625 0,0.0625 0.078125,0.0625 0.0625,0 0.25,-0.0625 0.40625,-0.1875 0.09375,-0.0625 0.1875,-0.140625 0.1875,-0.421875 0,-0.390625 -0.28125,-0.5 -0.453125,-0.5625 -0.375,-0.140625 -0.703125,-0.140625 -0.8125,-0.140625 -1.078125,0 -2.203125,0.71875 -2.203125,1.515625 0,0.640625 0.78125,0.90625 1.109375,1 0.515625,0.1875 1.265625,0.453125 1.265625,1.09375 0,0.25 -0.109375,0.609375 -0.4375,0.78125 -0.375,0.203125 -0.90625,0.234375 -1.078125,0.234375 -0.75,0 -1.453125,-0.421875 -1.453125,-0.9375 0,-0.09375 0.015625,-0.203125 0.0625,-0.296875 z m 0,0"
             id="path14" />
        </g>
      </g>
      <g
         fill="#000000"
         fill-opacity="1"
         id="g9"
         transform="matrix(0.352778,0,0,0.352778,-0.807817,-0.623976)">
        <g
           id="use8"
           transform="translate(16.646999,8.8000002)">
          <path
             d="M 3.875,-2.765625 1.890625,-4.75 C 1.765625,-4.875 1.75,-4.890625 1.671875,-4.890625 1.5625,-4.890625 1.46875,-4.8125 1.46875,-4.6875 c 0,0.0625 0.015625,0.078125 0.125,0.1875 l 2,2 -2,2.015625 c -0.109375,0.109375 -0.125,0.125 -0.125,0.1875 0,0.125 0.09375,0.203125 0.203125,0.203125 0.078125,0 0.09375,-0.015625 0.21875,-0.140625 L 3.875,-2.21875 l 2.0625,2.0625 c 0.015625,0.015625 0.078125,0.0625 0.140625,0.0625 0.125,0 0.203125,-0.078125 0.203125,-0.203125 0,-0.015625 0,-0.046875 -0.03125,-0.109375 C 6.234375,-0.421875 4.65625,-1.984375 4.15625,-2.5 l 1.828125,-1.8125 c 0.046875,-0.0625 0.203125,-0.1875 0.25,-0.25 0,-0.015625 0.046875,-0.0625 0.046875,-0.125 0,-0.125 -0.078125,-0.203125 -0.203125,-0.203125 C 6,-4.890625 5.96875,-4.859375 5.859375,-4.75 Z m 0,0"
             id="path15" />
        </g>
      </g>
      <g
         fill="#000000"
         fill-opacity="1"
         id="g10"
         transform="matrix(0.352778,0,0,0.352778,-0.807817,-0.623976)">
        <g
           id="use9"
           transform="translate(26.607607,8.8000002)">
          <path
             d="M 2.796875,-6.765625 C 2.8125,-6.875 2.8125,-6.890625 2.8125,-6.921875 2.8125,-7 2.796875,-7.03125 2.703125,-7.03125 c -0.109375,0 -0.40625,0.15625 -0.609375,0.25 C 1.640625,-6.546875 1.25,-6.359375 1.25,-6.1875 c 0,0.0625 0.078125,0.0625 0.109375,0.0625 0.125,0 0.390625,-0.140625 0.578125,-0.21875 -0.125,0.96875 -0.359375,2.25 -0.546875,3.109375 C 1.03125,-1.546875 0.84375,-0.9375 0.34375,0.03125 0.296875,0.125 0.296875,0.140625 0.296875,0.15625 c 0,0.0625 0.078125,0.0625 0.109375,0.0625 0.15625,0 0.578125,-0.171875 0.734375,-0.453125 0.125,-0.234375 0.5,-0.96875 0.796875,-2.125 0.21875,-0.84375 0.609375,-2.15625 1.3125,-3.1875 0.453125,-0.640625 0.875,-0.9375 1.5,-0.9375 0.546875,0 1.03125,0.34375 1.03125,0.875 0,0.875 -0.953125,1.1875 -1.984375,1.546875 -0.125,0.03125 -0.8125,0.28125 -0.8125,0.53125 0,0.046875 0.078125,0.0625 0.109375,0.0625 0.03125,0 0.265625,-0.046875 0.46875,-0.046875 1.015625,0 1.828125,0.609375 1.828125,1.546875 0,1.234375 -1.046875,1.640625 -1.96875,1.640625 -0.765625,0 -1.125,-0.421875 -1.265625,-0.5625 -0.03125,-0.046875 -0.046875,-0.0625 -0.125,-0.0625 -0.21875,0 -0.71875,0.3125 -0.71875,0.484375 0,0.03125 0.375,0.6875 1.453125,0.6875 1.40625,0 3.46875,-1 3.46875,-2.59375 0,-0.84375 -0.546875,-1.46875 -1.5625,-1.65625 0.796875,-0.34375 1.953125,-1.0625 1.953125,-2 0,-0.578125 -0.46875,-1 -1.21875,-1 -0.328125,0 -1.609375,0.078125 -2.8125,1.578125 z m 0,0"
             id="path16" />
        </g>
      </g>
      <g
         fill="#000000"
         fill-opacity="1"
         id="g11"
         transform="matrix(0.352778,0,0,0.352778,-0.807817,-0.623976)">
        <g
           id="use10"
           transform="translate(33.457001,5.1849999)">
          <path
             d="M 3.03125,-0.765625 C 2.6875,-0.53125 2.3125,-0.40625 1.875,-0.40625 c -0.640625,0 -1.015625,-0.515625 -1.015625,-1.140625 0,-0.546875 0.28125,-1.171875 1.03125,-1.171875 0.484375,0 0.703125,0.09375 1.0625,0.328125 L 3.03125,-2.90625 C 2.625,-3.109375 2.4375,-3.203125 1.890625,-3.203125 c -1.046875,0 -1.640625,0.84375 -1.640625,1.65625 0,0.84375 0.671875,1.609375 1.625,1.609375 0.484375,0 0.90625,-0.140625 1.203125,-0.3125 z m 0,0"
             id="path17" />
        </g>
      </g>
      <g
         fill="#000000"
         fill-opacity="1"
         id="g12"
         transform="matrix(0.352778,0,0,0.352778,-0.807817,-0.623976)">
        <g
           id="use11"
           transform="translate(33.153999,11.544)">
          <path
             d="m 3.8125,-4.296875 h 1.421875 c 0.890625,0 1.28125,-0.515625 1.28125,-0.640625 C 6.515625,-5 6.453125,-5 6.421875,-5 6.390625,-5 6.265625,-5 5.96875,-4.796875 l -0.03125,0.03125 c -0.0625,0 -0.5,0 -0.75,0 H 3.96875 c -0.59375,0 -1.171875,0 -1.75,0 -0.203125,0 -0.734375,0.109375 -1.265625,0.515625 C 0.40625,-3.828125 0.375,-3.4375 0.375,-3.390625 c 0,0.046875 0.046875,0.046875 0.078125,0.046875 0.046875,0 0.1875,-0.015625 0.359375,-0.140625 C 1.046875,-3.625 1.078125,-3.6875 1.09375,-3.8125 1.21875,-4.296875 1.546875,-4.296875 1.8125,-4.296875 h 1.46875 c -0.09375,0.046875 -0.125,0.15625 -0.15625,0.25 l -0.78125,3.09375 c -0.046875,0.1875 -0.171875,0.65625 -0.4375,1.234375 -0.0625,0.109375 -0.0625,0.125 -0.0625,0.140625 0,0.046875 0.0625,0.046875 0.09375,0.046875 0.15625,0 0.453125,-0.171875 0.5625,-0.296875 C 2.59375,0.0625 2.921875,-0.71875 3.046875,-1.25 Z m 0,0"
             id="path18" />
        </g>
      </g>
    </g>
    <g
       inkscape:label=""
       transform="translate(96.999999,64)"
       id="g75">
      <g
         fill="#000000"
         fill-opacity="1"
         id="g64"
         transform="matrix(0.352778,0,0,0.352778,-0.807817,-0.623976)">
        <g
           id="g63"
           transform="translate(1.993,8.8000002)">
          <path
             d="M 2.796875,-6.765625 C 2.8125,-6.875 2.8125,-6.890625 2.8125,-6.921875 2.8125,-7 2.796875,-7.03125 2.703125,-7.03125 c -0.109375,0 -0.40625,0.15625 -0.609375,0.25 C 1.640625,-6.546875 1.25,-6.359375 1.25,-6.1875 c 0,0.0625 0.078125,0.0625 0.109375,0.0625 0.125,0 0.390625,-0.140625 0.578125,-0.21875 -0.125,0.96875 -0.359375,2.25 -0.546875,3.109375 C 1.03125,-1.546875 0.84375,-0.9375 0.34375,0.03125 0.296875,0.125 0.296875,0.140625 0.296875,0.15625 c 0,0.0625 0.078125,0.0625 0.109375,0.0625 0.15625,0 0.578125,-0.171875 0.734375,-0.453125 0.125,-0.234375 0.5,-0.96875 0.796875,-2.125 0.21875,-0.84375 0.609375,-2.15625 1.3125,-3.1875 0.453125,-0.640625 0.875,-0.9375 1.5,-0.9375 0.546875,0 1.03125,0.34375 1.03125,0.875 0,0.875 -0.953125,1.1875 -1.984375,1.546875 -0.125,0.03125 -0.8125,0.28125 -0.8125,0.53125 0,0.046875 0.078125,0.0625 0.109375,0.0625 0.03125,0 0.265625,-0.046875 0.46875,-0.046875 1.015625,0 1.828125,0.609375 1.828125,1.546875 0,1.234375 -1.046875,1.640625 -1.96875,1.640625 -0.765625,0 -1.125,-0.421875 -1.265625,-0.5625 -0.03125,-0.046875 -0.046875,-0.0625 -0.125,-0.0625 -0.21875,0 -0.71875,0.3125 -0.71875,0.484375 0,0.03125 0.375,0.6875 1.453125,0.6875 1.40625,0 3.46875,-1 3.46875,-2.59375 0,-0.84375 -0.546875,-1.46875 -1.5625,-1.65625 0.796875,-0.34375 1.953125,-1.0625 1.953125,-2 0,-0.578125 -0.46875,-1 -1.21875,-1 -0.328125,0 -1.609375,0.078125 -2.8125,1.578125 z m 0,0"
             id="path11" />
        </g>
      </g>
      <g
         fill="#000000"
         fill-opacity="1"
         id="g66"
         transform="matrix(0.352778,0,0,0.352778,-0.807817,-0.623976)">
        <g
           id="g65"
           transform="translate(8.5360003,10.295)">
          <path
             d="M 0.984375,-1.515625 C 1.171875,-1.59375 1.34375,-1.734375 1.34375,-1.828125 1.34375,-1.875 1.28125,-1.875 1.25,-1.875 c -0.328125,0 -0.984375,0.375 -0.984375,0.96875 0,0.546875 0.734375,1.046875 1.609375,1.046875 1.375,0 2.671875,-0.8125 2.671875,-1.75 0,-0.6875 -0.796875,-1 -1.390625,-1.203125 C 2.875,-2.90625 2.171875,-3.140625 2.171875,-3.703125 2.171875,-4 2.34375,-4.234375 2.46875,-4.3125 c 0.234375,-0.125 0.578125,-0.15625 0.75,-0.15625 0.078125,0 0.359375,0 0.71875,0.109375 0.1875,0.0625 0.390625,0.140625 0.390625,0.46875 0,0.125 -0.015625,0.203125 -0.015625,0.234375 0,0.015625 0,0.0625 0.078125,0.0625 0.0625,0 0.25,-0.0625 0.40625,-0.1875 0.09375,-0.0625 0.1875,-0.140625 0.1875,-0.421875 0,-0.390625 -0.28125,-0.5 -0.453125,-0.5625 -0.375,-0.140625 -0.703125,-0.140625 -0.8125,-0.140625 -1.078125,0 -2.203125,0.71875 -2.203125,1.515625 0,0.640625 0.78125,0.90625 1.109375,1 0.515625,0.1875 1.265625,0.453125 1.265625,1.09375 0,0.25 -0.109375,0.609375 -0.4375,0.78125 -0.375,0.203125 -0.90625,0.234375 -1.078125,0.234375 -0.75,0 -1.453125,-0.421875 -1.453125,-0.9375 0,-0.09375 0.015625,-0.203125 0.0625,-0.296875 z m 0,0"
             id="path64" />
        </g>
      </g>
      <g
         fill="#000000"
         fill-opacity="1"
         id="g68"
         transform="matrix(0.352778,0,0,0.352778,-0.807817,-0.623976)">
        <g
           id="g67"
           transform="translate(16.646999,8.8000002)">
          <path
             d="M 3.875,-2.765625 1.890625,-4.75 C 1.765625,-4.875 1.75,-4.890625 1.671875,-4.890625 1.5625,-4.890625 1.46875,-4.8125 1.46875,-4.6875 c 0,0.0625 0.015625,0.078125 0.125,0.1875 l 2,2 -2,2.015625 c -0.109375,0.109375 -0.125,0.125 -0.125,0.1875 0,0.125 0.09375,0.203125 0.203125,0.203125 0.078125,0 0.09375,-0.015625 0.21875,-0.140625 L 3.875,-2.21875 l 2.0625,2.0625 c 0.015625,0.015625 0.078125,0.0625 0.140625,0.0625 0.125,0 0.203125,-0.078125 0.203125,-0.203125 0,-0.015625 0,-0.046875 -0.03125,-0.109375 C 6.234375,-0.421875 4.65625,-1.984375 4.15625,-2.5 l 1.828125,-1.8125 c 0.046875,-0.0625 0.203125,-0.1875 0.25,-0.25 0,-0.015625 0.046875,-0.0625 0.046875,-0.125 0,-0.125 -0.078125,-0.203125 -0.203125,-0.203125 C 6,-4.890625 5.96875,-4.859375 5.859375,-4.75 Z m 0,0"
             id="path66" />
        </g>
      </g>
      <g
         fill="#000000"
         fill-opacity="1"
         id="g70"
         transform="matrix(0.352778,0,0,0.352778,-0.807817,-0.623976)">
        <g
           id="g69"
           transform="translate(26.607607,8.8000002)">
          <path
             d="M 2.796875,-6.765625 C 2.8125,-6.875 2.8125,-6.890625 2.8125,-6.921875 2.8125,-7 2.796875,-7.03125 2.703125,-7.03125 c -0.109375,0 -0.40625,0.15625 -0.609375,0.25 C 1.640625,-6.546875 1.25,-6.359375 1.25,-6.1875 c 0,0.0625 0.078125,0.0625 0.109375,0.0625 0.125,0 0.390625,-0.140625 0.578125,-0.21875 -0.125,0.96875 -0.359375,2.25 -0.546875,3.109375 C 1.03125,-1.546875 0.84375,-0.9375 0.34375,0.03125 0.296875,0.125 0.296875,0.140625 0.296875,0.15625 c 0,0.0625 0.078125,0.0625 0.109375,0.0625 0.15625,0 0.578125,-0.171875 0.734375,-0.453125 0.125,-0.234375 0.5,-0.96875 0.796875,-2.125 0.21875,-0.84375 0.609375,-2.15625 1.3125,-3.1875 0.453125,-0.640625 0.875,-0.9375 1.5,-0.9375 0.546875,0 1.03125,0.34375 1.03125,0.875 0,0.875 -0.953125,1.1875 -1.984375,1.546875 -0.125,0.03125 -0.8125,0.28125 -0.8125,0.53125 0,0.046875 0.078125,0.0625 0.109375,0.0625 0.03125,0 0.265625,-0.046875 0.46875,-0.046875 1.015625,0 1.828125,0.609375 1.828125,1.546875 0,1.234375 -1.046875,1.640625 -1.96875,1.640625 -0.765625,0 -1.125,-0.421875 -1.265625,-0.5625 -0.03125,-0.046875 -0.046875,-0.0625 -0.125,-0.0625 -0.21875,0 -0.71875,0.3125 -0.71875,0.484375 0,0.03125 0.375,0.6875 1.453125,0.6875 1.40625,0 3.46875,-1 3.46875,-2.59375 0,-0.84375 -0.546875,-1.46875 -1.5625,-1.65625 0.796875,-0.34375 1.953125,-1.0625 1.953125,-2 0,-0.578125 -0.46875,-1 -1.21875,-1 -0.328125,0 -1.609375,0.078125 -2.8125,1.578125 z m 0,0"
             id="path68" />
        </g>
      </g>
      <g
         fill="#000000"
         fill-opacity="1"
         id="g72"
         transform="matrix(0.352778,0,0,0.352778,-0.807817,-0.623976)">
        <g
           id="g71"
           transform="translate(33.457001,5.1849999)">
          <path
             d="M 3.03125,-0.765625 C 2.6875,-0.53125 2.3125,-0.40625 1.875,-0.40625 c -0.640625,0 -1.015625,-0.515625 -1.015625,-1.140625 0,-0.546875 0.28125,-1.171875 1.03125,-1.171875 0.484375,0 0.703125,0.09375 1.0625,0.328125 L 3.03125,-2.90625 C 2.625,-3.109375 2.4375,-3.203125 1.890625,-3.203125 c -1.046875,0 -1.640625,0.84375 -1.640625,1.65625 0,0.84375 0.671875,1.609375 1.625,1.609375 0.484375,0 0.90625,-0.140625 1.203125,-0.3125 z m 0,0"
             id="path70" />
        </g>
      </g>
      <g
         fill="#000000"
         fill-opacity="1"
         id="g74"
         transform="matrix(0.352778,0,0,0.352778,-0.807817,-0.623976)">
        <g
           id="g73"
           transform="translate(33.153999,11.544)">
          <path
             d="m 3.8125,-4.296875 h 1.421875 c 0.890625,0 1.28125,-0.515625 1.28125,-0.640625 C 6.515625,-5 6.453125,-5 6.421875,-5 6.390625,-5 6.265625,-5 5.96875,-4.796875 l -0.03125,0.03125 c -0.0625,0 -0.5,0 -0.75,0 H 3.96875 c -0.59375,0 -1.171875,0 -1.75,0 -0.203125,0 -0.734375,0.109375 -1.265625,0.515625 C 0.40625,-3.828125 0.375,-3.4375 0.375,-3.390625 c 0,0.046875 0.046875,0.046875 0.078125,0.046875 0.046875,0 0.1875,-0.015625 0.359375,-0.140625 C 1.046875,-3.625 1.078125,-3.6875 1.09375,-3.8125 1.21875,-4.296875 1.546875,-4.296875 1.8125,-4.296875 h 1.46875 c -0.09375,0.046875 -0.125,0.15625 -0.15625,0.25 l -0.78125,3.09375 c -0.046875,0.1875 -0.171875,0.65625 -0.4375,1.234375 -0.0625,0.109375 -0.0625,0.125 -0.0625,0.140625 0,0.046875 0.0625,0.046875 0.09375,0.046875 0.15625,0 0.453125,-0.171875 0.5625,-0.296875 C 2.59375,0.0625 2.921875,-0.71875 3.046875,-1.25 Z m 0,0"
             id="path72" />
        </g>
      </g>
    </g>
    <g
       inkscape:label=""
       transform="translate(129.3,97)"
       id="g88">
      <g
         fill="#000000"
         fill-opacity="1"
         id="g77"
         transform="matrix(0.352778,0,0,0.352778,-0.807817,-0.623976)">
        <g
           id="g76"
           transform="translate(1.993,8.8000002)">
          <path
             d="M 2.796875,-6.765625 C 2.8125,-6.875 2.8125,-6.890625 2.8125,-6.921875 2.8125,-7 2.796875,-7.03125 2.703125,-7.03125 c -0.109375,0 -0.40625,0.15625 -0.609375,0.25 C 1.640625,-6.546875 1.25,-6.359375 1.25,-6.1875 c 0,0.0625 0.078125,0.0625 0.109375,0.0625 0.125,0 0.390625,-0.140625 0.578125,-0.21875 -0.125,0.96875 -0.359375,2.25 -0.546875,3.109375 C 1.03125,-1.546875 0.84375,-0.9375 0.34375,0.03125 0.296875,0.125 0.296875,0.140625 0.296875,0.15625 c 0,0.0625 0.078125,0.0625 0.109375,0.0625 0.15625,0 0.578125,-0.171875 0.734375,-0.453125 0.125,-0.234375 0.5,-0.96875 0.796875,-2.125 0.21875,-0.84375 0.609375,-2.15625 1.3125,-3.1875 0.453125,-0.640625 0.875,-0.9375 1.5,-0.9375 0.546875,0 1.03125,0.34375 1.03125,0.875 0,0.875 -0.953125,1.1875 -1.984375,1.546875 -0.125,0.03125 -0.8125,0.28125 -0.8125,0.53125 0,0.046875 0.078125,0.0625 0.109375,0.0625 0.03125,0 0.265625,-0.046875 0.46875,-0.046875 1.015625,0 1.828125,0.609375 1.828125,1.546875 0,1.234375 -1.046875,1.640625 -1.96875,1.640625 -0.765625,0 -1.125,-0.421875 -1.265625,-0.5625 -0.03125,-0.046875 -0.046875,-0.0625 -0.125,-0.0625 -0.21875,0 -0.71875,0.3125 -0.71875,0.484375 0,0.03125 0.375,0.6875 1.453125,0.6875 1.40625,0 3.46875,-1 3.46875,-2.59375 0,-0.84375 -0.546875,-1.46875 -1.5625,-1.65625 0.796875,-0.34375 1.953125,-1.0625 1.953125,-2 0,-0.578125 -0.46875,-1 -1.21875,-1 -0.328125,0 -1.609375,0.078125 -2.8125,1.578125 z m 0,0"
             id="path75" />
        </g>
      </g>
      <g
         fill="#000000"
         fill-opacity="1"
         id="g79"
         transform="matrix(0.352778,0,0,0.352778,-0.807817,-0.623976)">
        <g
           id="g78"
           transform="translate(8.8389997,5.1849999)">
          <path
             d="M 3.03125,-0.765625 C 2.6875,-0.53125 2.3125,-0.40625 1.875,-0.40625 c -0.640625,0 -1.015625,-0.515625 -1.015625,-1.140625 0,-0.546875 0.28125,-1.171875 1.03125,-1.171875 0.484375,0 0.703125,0.09375 1.0625,0.328125 L 3.03125,-2.90625 C 2.625,-3.109375 2.4375,-3.203125 1.890625,-3.203125 c -1.046875,0 -1.640625,0.84375 -1.640625,1.65625 0,0.84375 0.671875,1.609375 1.625,1.609375 0.484375,0 0.90625,-0.140625 1.203125,-0.3125 z m 0,0"
             id="path77" />
        </g>
      </g>
      <g
         fill="#000000"
         fill-opacity="1"
         id="g81"
         transform="matrix(0.352778,0,0,0.352778,-0.807817,-0.623976)">
        <g
           id="g80"
           transform="translate(8.5360003,11.544)">
          <path
             d="M 0.984375,-1.515625 C 1.171875,-1.59375 1.34375,-1.734375 1.34375,-1.828125 1.34375,-1.875 1.28125,-1.875 1.25,-1.875 c -0.328125,0 -0.984375,0.375 -0.984375,0.96875 0,0.546875 0.734375,1.046875 1.609375,1.046875 1.375,0 2.671875,-0.8125 2.671875,-1.75 0,-0.6875 -0.796875,-1 -1.390625,-1.203125 C 2.875,-2.90625 2.171875,-3.140625 2.171875,-3.703125 2.171875,-4 2.34375,-4.234375 2.46875,-4.3125 c 0.234375,-0.125 0.578125,-0.15625 0.75,-0.15625 0.078125,0 0.359375,0 0.71875,0.109375 0.1875,0.0625 0.390625,0.140625 0.390625,0.46875 0,0.125 -0.015625,0.203125 -0.015625,0.234375 0,0.015625 0,0.0625 0.078125,0.0625 0.0625,0 0.25,-0.0625 0.40625,-0.1875 0.09375,-0.0625 0.1875,-0.140625 0.1875,-0.421875 0,-0.390625 -0.28125,-0.5 -0.453125,-0.5625 -0.375,-0.140625 -0.703125,-0.140625 -0.8125,-0.140625 -1.078125,0 -2.203125,0.71875 -2.203125,1.515625 0,0.640625 0.78125,0.90625 1.109375,1 0.515625,0.1875 1.265625,0.453125 1.265625,1.09375 0,0.25 -0.109375,0.609375 -0.4375,0.78125 -0.375,0.203125 -0.90625,0.234375 -1.078125,0.234375 -0.75,0 -1.453125,-0.421875 -1.453125,-0.9375 0,-0.09375 0.015625,-0.203125 0.0625,-0.296875 z m 0,0"
             id="path79" />
        </g>
      </g>
      <g
         fill="#000000"
         fill-opacity="1"
         id="g83"
         transform="matrix(0.352778,0,0,0.352778,-0.807817,-0.623976)">
        <g
           id="g82"
           transform="translate(16.646999,8.8000002)">
          <path
             d="M 3.875,-2.765625 1.890625,-4.75 C 1.765625,-4.875 1.75,-4.890625 1.671875,-4.890625 1.5625,-4.890625 1.46875,-4.8125 1.46875,-4.6875 c 0,0.0625 0.015625,0.078125 0.125,0.1875 l 2,2 -2,2.015625 c -0.109375,0.109375 -0.125,0.125 -0.125,0.1875 0,0.125 0.09375,0.203125 0.203125,0.203125 0.078125,0 0.09375,-0.015625 0.21875,-0.140625 L 3.875,-2.21875 l 2.0625,2.0625 c 0.015625,0.015625 0.078125,0.0625 0.140625,0.0625 0.125,0 0.203125,-0.078125 0.203125,-0.203125 0,-0.015625 0,-0.046875 -0.03125,-0.109375 C 6.234375,-0.421875 4.65625,-1.984375 4.15625,-2.5 l 1.828125,-1.8125 c 0.046875,-0.0625 0.203125,-0.1875 0.25,-0.25 0,-0.015625 0.046875,-0.0625 0.046875,-0.125 0,-0.125 -0.078125,-0.203125 -0.203125,-0.203125 C 6,-4.890625 5.96875,-4.859375 5.859375,-4.75 Z m 0,0"
             id="path81" />
        </g>
      </g>
      <g
         fill="#000000"
         fill-opacity="1"
         id="g85"
         transform="matrix(0.352778,0,0,0.352778,-0.807817,-0.623976)">
        <g
           id="g84"
           transform="translate(26.607607,8.8000002)">
          <path
             d="M 2.796875,-6.765625 C 2.8125,-6.875 2.8125,-6.890625 2.8125,-6.921875 2.8125,-7 2.796875,-7.03125 2.703125,-7.03125 c -0.109375,0 -0.40625,0.15625 -0.609375,0.25 C 1.640625,-6.546875 1.25,-6.359375 1.25,-6.1875 c 0,0.0625 0.078125,0.0625 0.109375,0.0625 0.125,0 0.390625,-0.140625 0.578125,-0.21875 -0.125,0.96875 -0.359375,2.25 -0.546875,3.109375 C 1.03125,-1.546875 0.84375,-0.9375 0.34375,0.03125 0.296875,0.125 0.296875,0.140625 0.296875,0.15625 c 0,0.0625 0.078125,0.0625 0.109375,0.0625 0.15625,0 0.578125,-0.171875 0.734375,-0.453125 0.125,-0.234375 0.5,-0.96875 0.796875,-2.125 0.21875,-0.84375 0.609375,-2.15625 1.3125,-3.1875 0.453125,-0.640625 0.875,-0.9375 1.5,-0.9375 0.546875,0 1.03125,0.34375 1.03125,0.875 0,0.875 -0.953125,1.1875 -1.984375,1.546875 -0.125,0.03125 -0.8125,0.28125 -0.8125,0.53125 0,0.046875 0.078125,0.0625 0.109375,0.0625 0.03125,0 0.265625,-0.046875 0.46875,-0.046875 1.015625,0 1.828125,0.609375 1.828125,1.546875 0,1.234375 -1.046875,1.640625 -1.96875,1.640625 -0.765625,0 -1.125,-0.421875 -1.265625,-0.5625 -0.03125,-0.046875 -0.046875,-0.0625 -0.125,-0.0625 -0.21875,0 -0.71875,0.3125 -0.71875,0.484375 0,0.03125 0.375,0.6875 1.453125,0.6875 1.40625,0 3.46875,-1 3.46875,-2.59375 0,-0.84375 -0.546875,-1.46875 -1.5625,-1.65625 0.796875,-0.34375 1.953125,-1.0625 1.953125,-2 0,-0.578125 -0.46875,-1 -1.21875,-1 -0.328125,0 -1.609375,0.078125 -2.8125,1.578125 z m 0,0"
             id="path83" />
        </g>
      </g>
      <g
         fill="#000000"
         fill-opacity="1"
         id="g87"
         transform="matrix(0.352778,0,0,0.352778,-0.807817,-0.623976)">
        <g
           id="g86"
           transform="translate(33.153999,10.295)">
          <path
             d="m 3.8125,-4.296875 h 1.421875 c 0.890625,0 1.28125,-0.515625 1.28125,-0.640625 C 6.515625,-5 6.453125,-5 6.421875,-5 6.390625,-5 6.265625,-5 5.96875,-4.796875 l -0.03125,0.03125 c -0.0625,0 -0.5,0 -0.75,0 H 3.96875 c -0.59375,0 -1.171875,0 -1.75,0 -0.203125,0 -0.734375,0.109375 -1.265625,0.515625 C 0.40625,-3.828125 0.375,-3.4375 0.375,-3.390625 c 0,0.046875 0.046875,0.046875 0.078125,0.046875 0.046875,0 0.1875,-0.015625 0.359375,-0.140625 C 1.046875,-3.625 1.078125,-3.6875 1.09375,-3.8125 1.21875,-4.296875 1.546875,-4.296875 1.8125,-4.296875 h 1.46875 c -0.09375,0.046875 -0.125,0.15625 -0.15625,0.25 l -0.78125,3.09375 c -0.046875,0.1875 -0.171875,0.65625 -0.4375,1.234375 -0.0625,0.109375 -0.0625,0.125 -0.0625,0.140625 0,0.046875 0.0625,0.046875 0.09375,0.046875 0.15625,0 0.453125,-0.171875 0.5625,-0.296875 C 2.59375,0.0625 2.921875,-0.71875 3.046875,-1.25 Z m 0,0"
             id="path85" />
        </g>
      </g>
    </g>
    <g
       inkscape:label=""
       transform="translate(96.999999,97)"
       id="g97">
      <g
         fill="#000000"
         fill-opacity="1"
         id="g5"
         transform="matrix(0.352778,0,0,0.352778,-0.807817,-0.623976)">
        <g
           id="use4"
           transform="translate(1.993,8.8000002)">
          <path
             d="M 2.796875,-6.765625 C 2.8125,-6.875 2.8125,-6.890625 2.8125,-6.921875 2.8125,-7 2.796875,-7.03125 2.703125,-7.03125 c -0.109375,0 -0.40625,0.15625 -0.609375,0.25 C 1.640625,-6.546875 1.25,-6.359375 1.25,-6.1875 c 0,0.0625 0.078125,0.0625 0.109375,0.0625 0.125,0 0.390625,-0.140625 0.578125,-0.21875 -0.125,0.96875 -0.359375,2.25 -0.546875,3.109375 C 1.03125,-1.546875 0.84375,-0.9375 0.34375,0.03125 0.296875,0.125 0.296875,0.140625 0.296875,0.15625 c 0,0.0625 0.078125,0.0625 0.109375,0.0625 0.15625,0 0.578125,-0.171875 0.734375,-0.453125 0.125,-0.234375 0.5,-0.96875 0.796875,-2.125 0.21875,-0.84375 0.609375,-2.15625 1.3125,-3.1875 0.453125,-0.640625 0.875,-0.9375 1.5,-0.9375 0.546875,0 1.03125,0.34375 1.03125,0.875 0,0.875 -0.953125,1.1875 -1.984375,1.546875 -0.125,0.03125 -0.8125,0.28125 -0.8125,0.53125 0,0.046875 0.078125,0.0625 0.109375,0.0625 0.03125,0 0.265625,-0.046875 0.46875,-0.046875 1.015625,0 1.828125,0.609375 1.828125,1.546875 0,1.234375 -1.046875,1.640625 -1.96875,1.640625 -0.765625,0 -1.125,-0.421875 -1.265625,-0.5625 -0.03125,-0.046875 -0.046875,-0.0625 -0.125,-0.0625 -0.21875,0 -0.71875,0.3125 -0.71875,0.484375 0,0.03125 0.375,0.6875 1.453125,0.6875 1.40625,0 3.46875,-1 3.46875,-2.59375 0,-0.84375 -0.546875,-1.46875 -1.5625,-1.65625 0.796875,-0.34375 1.953125,-1.0625 1.953125,-2 0,-0.578125 -0.46875,-1 -1.21875,-1 -0.328125,0 -1.609375,0.078125 -2.8125,1.578125 z m 0,0"
             id="path9" />
        </g>
      </g>
      <g
         fill="#000000"
         fill-opacity="1"
         id="g90"
         transform="matrix(0.352778,0,0,0.352778,-0.807817,-0.623976)">
        <g
           id="g89"
           transform="translate(8.5360003,10.294)">
          <path
             d="M 0.984375,-1.515625 C 1.171875,-1.59375 1.34375,-1.734375 1.34375,-1.828125 1.34375,-1.875 1.28125,-1.875 1.25,-1.875 c -0.328125,0 -0.984375,0.375 -0.984375,0.96875 0,0.546875 0.734375,1.046875 1.609375,1.046875 1.375,0 2.671875,-0.8125 2.671875,-1.75 0,-0.6875 -0.796875,-1 -1.390625,-1.203125 C 2.875,-2.90625 2.171875,-3.140625 2.171875,-3.703125 2.171875,-4 2.34375,-4.234375 2.46875,-4.3125 c 0.234375,-0.125 0.578125,-0.15625 0.75,-0.15625 0.078125,0 0.359375,0 0.71875,0.109375 0.1875,0.0625 0.390625,0.140625 0.390625,0.46875 0,0.125 -0.015625,0.203125 -0.015625,0.234375 0,0.015625 0,0.0625 0.078125,0.0625 0.0625,0 0.25,-0.0625 0.40625,-0.1875 0.09375,-0.0625 0.1875,-0.140625 0.1875,-0.421875 0,-0.390625 -0.28125,-0.5 -0.453125,-0.5625 -0.375,-0.140625 -0.703125,-0.140625 -0.8125,-0.140625 -1.078125,0 -2.203125,0.71875 -2.203125,1.515625 0,0.640625 0.78125,0.90625 1.109375,1 0.515625,0.1875 1.265625,0.453125 1.265625,1.09375 0,0.25 -0.109375,0.609375 -0.4375,0.78125 -0.375,0.203125 -0.90625,0.234375 -1.078125,0.234375 -0.75,0 -1.453125,-0.421875 -1.453125,-0.9375 0,-0.09375 0.015625,-0.203125 0.0625,-0.296875 z m 0,0"
             id="path10" />
        </g>
      </g>
      <g
         fill="#000000"
         fill-opacity="1"
         id="g92"
         transform="matrix(0.352778,0,0,0.352778,-0.807817,-0.623976)">
        <g
           id="g91"
           transform="translate(16.646999,8.8000002)">
          <path
             d="M 3.875,-2.765625 1.890625,-4.75 C 1.765625,-4.875 1.75,-4.890625 1.671875,-4.890625 1.5625,-4.890625 1.46875,-4.8125 1.46875,-4.6875 c 0,0.0625 0.015625,0.078125 0.125,0.1875 l 2,2 -2,2.015625 c -0.109375,0.109375 -0.125,0.125 -0.125,0.1875 0,0.125 0.09375,0.203125 0.203125,0.203125 0.078125,0 0.09375,-0.015625 0.21875,-0.140625 L 3.875,-2.21875 l 2.0625,2.0625 c 0.015625,0.015625 0.078125,0.0625 0.140625,0.0625 0.125,0 0.203125,-0.078125 0.203125,-0.203125 0,-0.015625 0,-0.046875 -0.03125,-0.109375 C 6.234375,-0.421875 4.65625,-1.984375 4.15625,-2.5 l 1.828125,-1.8125 c 0.046875,-0.0625 0.203125,-0.1875 0.25,-0.25 0,-0.015625 0.046875,-0.0625 0.046875,-0.125 0,-0.125 -0.078125,-0.203125 -0.203125,-0.203125 C 6,-4.890625 5.96875,-4.859375 5.859375,-4.75 Z m 0,0"
             id="path90" />
        </g>
      </g>
      <g
         fill="#000000"
         fill-opacity="1"
         id="g94"
         transform="matrix(0.352778,0,0,0.352778,-0.807817,-0.623976)">
        <g
           id="g93"
           transform="translate(26.607607,8.8000002)">
          <path
             d="M 2.796875,-6.765625 C 2.8125,-6.875 2.8125,-6.890625 2.8125,-6.921875 2.8125,-7 2.796875,-7.03125 2.703125,-7.03125 c -0.109375,0 -0.40625,0.15625 -0.609375,0.25 C 1.640625,-6.546875 1.25,-6.359375 1.25,-6.1875 c 0,0.0625 0.078125,0.0625 0.109375,0.0625 0.125,0 0.390625,-0.140625 0.578125,-0.21875 -0.125,0.96875 -0.359375,2.25 -0.546875,3.109375 C 1.03125,-1.546875 0.84375,-0.9375 0.34375,0.03125 0.296875,0.125 0.296875,0.140625 0.296875,0.15625 c 0,0.0625 0.078125,0.0625 0.109375,0.0625 0.15625,0 0.578125,-0.171875 0.734375,-0.453125 0.125,-0.234375 0.5,-0.96875 0.796875,-2.125 0.21875,-0.84375 0.609375,-2.15625 1.3125,-3.1875 0.453125,-0.640625 0.875,-0.9375 1.5,-0.9375 0.546875,0 1.03125,0.34375 1.03125,0.875 0,0.875 -0.953125,1.1875 -1.984375,1.546875 -0.125,0.03125 -0.8125,0.28125 -0.8125,0.53125 0,0.046875 0.078125,0.0625 0.109375,0.0625 0.03125,0 0.265625,-0.046875 0.46875,-0.046875 1.015625,0 1.828125,0.609375 1.828125,1.546875 0,1.234375 -1.046875,1.640625 -1.96875,1.640625 -0.765625,0 -1.125,-0.421875 -1.265625,-0.5625 -0.03125,-0.046875 -0.046875,-0.0625 -0.125,-0.0625 -0.21875,0 -0.71875,0.3125 -0.71875,0.484375 0,0.03125 0.375,0.6875 1.453125,0.6875 1.40625,0 3.46875,-1 3.46875,-2.59375 0,-0.84375 -0.546875,-1.46875 -1.5625,-1.65625 0.796875,-0.34375 1.953125,-1.0625 1.953125,-2 0,-0.578125 -0.46875,-1 -1.21875,-1 -0.328125,0 -1.609375,0.078125 -2.8125,1.578125 z m 0,0"
             id="path92" />
        </g>
      </g>
      <g
         fill="#000000"
         fill-opacity="1"
         id="g96"
         transform="matrix(0.352778,0,0,0.352778,-0.807817,-0.623976)">
        <g
           id="g95"
           transform="translate(33.153999,10.294)">
          <path
             d="m 3.8125,-4.296875 h 1.421875 c 0.890625,0 1.28125,-0.515625 1.28125,-0.640625 C 6.515625,-5 6.453125,-5 6.421875,-5 6.390625,-5 6.265625,-5 5.96875,-4.796875 l -0.03125,0.03125 c -0.0625,0 -0.5,0 -0.75,0 H 3.96875 c -0.59375,0 -1.171875,0 -1.75,0 -0.203125,0 -0.734375,0.109375 -1.265625,0.515625 C 0.40625,-3.828125 0.375,-3.4375 0.375,-3.390625 c 0,0.046875 0.046875,0.046875 0.078125,0.046875 0.046875,0 0.1875,-0.015625 0.359375,-0.140625 C 1.046875,-3.625 1.078125,-3.6875 1.09375,-3.8125 1.21875,-4.296875 1.546875,-4.296875 1.8125,-4.296875 h 1.46875 c -0.09375,0.046875 -0.125,0.15625 -0.15625,0.25 l -0.78125,3.09375 c -0.046875,0.1875 -0.171875,0.65625 -0.4375,1.234375 -0.0625,0.109375 -0.0625,0.125 -0.0625,0.140625 0,0.046875 0.0625,0.046875 0.09375,0.046875 0.15625,0 0.453125,-0.171875 0.5625,-0.296875 C 2.59375,0.0625 2.921875,-0.71875 3.046875,-1.25 Z m 0,0"
             id="path94" />
        </g>
      </g>
    </g>
  </g>
</svg>
