<?xml version="1.0" encoding="UTF-8" standalone="no"?>
<!-- Created with Inkscape (http://www.inkscape.org/) -->

<svg
   width="210mm"
   height="297mm"
   viewBox="0 0 210 297"
   version="1.1"
   id="svg1"
   inkscape:version="1.3 (0e150ed6c4, 2023-07-21)"
   sodipodi:docname="realization_elimination.svg"
   xmlns:inkscape="http://www.inkscape.org/namespaces/inkscape"
   xmlns:sodipodi="http://sodipodi.sourceforge.net/DTD/sodipodi-0.dtd"
   xmlns="http://www.w3.org/2000/svg"
   xmlns:svg="http://www.w3.org/2000/svg">
  <sodipodi:namedview
     id="namedview1"
     pagecolor="#505050"
     bordercolor="#eeeeee"
     borderopacity="1"
     inkscape:showpageshadow="0"
     inkscape:pageopacity="0"
     inkscape:pagecheckerboard="0"
     inkscape:deskcolor="#d1d1d1"
     inkscape:document-units="mm"
     inkscape:zoom="1.5308737"
     inkscape:cx="465.4205"
     inkscape:cy="457.90845"
     inkscape:window-width="2560"
     inkscape:window-height="1316"
     inkscape:window-x="-12"
     inkscape:window-y="-12"
     inkscape:window-maximized="1"
     inkscape:current-layer="svg1"
     showguides="false" />
  <defs
     id="defs1" />
  <g
     inkscape:label="Layer 1"
     inkscape:groupmode="layer"
     id="layer1" />
  <circle
     style="fill:#000000;fill-opacity:0.3;stroke:#000000;stroke-width:1;stroke-linejoin:round;stroke-dasharray:none;stroke-opacity:0.9"
     id="path1"
     cx="113.16505"
     cy="85.04007"
     r="10" />
  <rect
     style="fill:#000000;fill-opacity:0.3;stroke:#000000;stroke-width:0.47619;stroke-linecap:butt;stroke-linejoin:round;stroke-dasharray:none;stroke-opacity:0.9"
     id="rect1"
     width="9.5238094"
     height="9.5238094"
     x="82.903152"
     y="109.77817" />
  <rect
     style="fill:#000000;fill-opacity:0.3;stroke:#000000;stroke-width:0.47619;stroke-linecap:butt;stroke-linejoin:round;stroke-dasharray:none;stroke-opacity:0.9"
     id="rect1-2"
     width="9.5238094"
     height="9.5238094"
     x="132.90315"
     y="109.77817" />
  <rect
     style="fill:#000000;fill-opacity:0.3;stroke:#000000;stroke-width:0.47619;stroke-linecap:butt;stroke-linejoin:round;stroke-dasharray:none;stroke-opacity:0.9"
     id="rect1-1"
     width="9.5238094"
     height="9.5238094"
     x="97.903152"
     y="109.77817" />
  <rect
     style="fill:#000000;fill-opacity:0.3;stroke:#000000;stroke-width:0.47619;stroke-linecap:butt;stroke-linejoin:round;stroke-dasharray:none;stroke-opacity:0.9"
     id="rect1-78"
     width="9.5238094"
     height="9.5238094"
     x="109.90315"
     y="109.77817" />
  <rect
     style="fill:#000000;fill-opacity:0.3;stroke:#000000;stroke-width:0.47619;stroke-linecap:butt;stroke-linejoin:round;stroke-dasharray:none;stroke-opacity:0.9"
     id="rect1-5"
     width="9.5238094"
     height="9.5238094"
     x="105.90315"
     y="109.77817" />
  <rect
     style="fill:#000000;fill-opacity:0.3;stroke:#000000;stroke-width:0.47619;stroke-linecap:butt;stroke-linejoin:round;stroke-dasharray:none;stroke-opacity:0.9"
     id="rect1-4"
     width="9.5238094"
     height="9.5238094"
     x="117.90315"
     y="109.77817" />
  <rect
     style="fill:#000000;fill-opacity:0.3;stroke:#000000;stroke-width:0.47619;stroke-linecap:butt;stroke-linejoin:round;stroke-dasharray:none;stroke-opacity:0.9"
     id="rect1-9"
     width="9.5238094"
     height="9.5238094"
     x="113.90315"
     y="109.77817" />
  <rect
     style="fill:#000000;fill-opacity:0.3;stroke:#000000;stroke-width:0.47619;stroke-linecap:butt;stroke-linejoin:round;stroke-dasharray:none;stroke-opacity:0.9"
     id="rect1-73"
     width="9.5238094"
     height="9.5238094"
     x="101.90315"
     y="109.77817" />
  <path
     sodipodi:type="star"
     style="fill:#000000;fill-opacity:0.3;stroke:#000000;stroke-width:2.63187;stroke-linecap:round;stroke-linejoin:bevel;stroke-dasharray:none;stroke-opacity:0.9"
     id="path5"
     inkscape:flatsided="true"
     sodipodi:sides="3"
     sodipodi:cx="54.750252"
     sodipodi:cy="122.69923"
     sodipodi:r1="31.909784"
     sodipodi:r2="15.954892"
     sodipodi:arg1="-1.5707963"
     sodipodi:arg2="-0.52359878"
     inkscape:rounded="0"
     inkscape:randomized="0"
     d="m 54.750253,90.789442 27.634682,47.864678 -55.269368,0 z"
     inkscape:transform-center-y="-1.3862095"
     transform="matrix(0.17376606,0,0,0.17376606,55.151317,113.87828)" />
  <path
     sodipodi:type="star"
     style="fill:#000000;fill-opacity:0.3;stroke:#000000;stroke-width:2.63187;stroke-linecap:round;stroke-linejoin:bevel;stroke-dasharray:none;stroke-opacity:0.9"
     id="path5-6"
     inkscape:flatsided="true"
     sodipodi:sides="3"
     sodipodi:cx="54.750252"
     sodipodi:cy="122.69923"
     sodipodi:r1="31.909784"
     sodipodi:r2="15.954892"
     sodipodi:arg1="-1.5707963"
     sodipodi:arg2="-0.52359878"
     inkscape:rounded="0"
     inkscape:randomized="0"
     d="m 54.750253,90.789442 27.634682,47.864678 -55.269368,0 z"
     inkscape:transform-center-y="-1.3862095"
     transform="matrix(0.17376606,0,0,0.17376606,101.15132,113.87828)" />
  <path
     sodipodi:type="star"
     style="fill:#000000;fill-opacity:0.3;stroke:#000000;stroke-width:2.63187;stroke-linecap:round;stroke-linejoin:bevel;stroke-dasharray:none;stroke-opacity:0.9"
     id="path5-1"
     inkscape:flatsided="true"
     sodipodi:sides="3"
     sodipodi:cx="54.750252"
     sodipodi:cy="122.69923"
     sodipodi:r1="31.909784"
     sodipodi:r2="15.954892"
     sodipodi:arg1="-1.5707963"
     sodipodi:arg2="-0.52359878"
     inkscape:rounded="0"
     inkscape:randomized="0"
     d="m 54.750253,90.789442 27.634682,47.864678 -55.269368,0 z"
     inkscape:transform-center-y="-1.3862095"
     transform="matrix(0.17376606,0,0,0.17376606,83.151317,113.87828)" />
  <path
     sodipodi:type="star"
     style="fill:#000000;fill-opacity:0.3;stroke:#000000;stroke-width:2.63187;stroke-linecap:round;stroke-linejoin:bevel;stroke-dasharray:none;stroke-opacity:0.9"
     id="path5-1-2"
     inkscape:flatsided="true"
     sodipodi:sides="3"
     sodipodi:cx="54.750252"
     sodipodi:cy="122.69923"
     sodipodi:r1="31.909784"
     sodipodi:r2="15.954892"
     sodipodi:arg1="-1.5707963"
     sodipodi:arg2="-0.52359878"
     inkscape:rounded="0"
     inkscape:randomized="0"
     d="m 54.750253,90.789442 27.634682,47.864678 -55.269368,0 z"
     inkscape:transform-center-y="-1.3862095"
     transform="matrix(0.17376606,0,0,0.17376606,85.151317,113.87828)" />
  <path
     sodipodi:type="star"
     style="fill:#000000;fill-opacity:0.3;stroke:#000000;stroke-width:2.63187;stroke-linecap:round;stroke-linejoin:bevel;stroke-dasharray:none;stroke-opacity:0.9"
     id="path5-1-3"
     inkscape:flatsided="true"
     sodipodi:sides="3"
     sodipodi:cx="54.750252"
     sodipodi:cy="122.69923"
     sodipodi:r1="31.909784"
     sodipodi:r2="15.954892"
     sodipodi:arg1="-1.5707963"
     sodipodi:arg2="-0.52359878"
     inkscape:rounded="0"
     inkscape:randomized="0"
     d="m 54.750253,90.789442 27.634682,47.864678 -55.269368,0 z"
     inkscape:transform-center-y="-1.3862095"
     transform="matrix(0.17376606,0,0,0.17376606,89.151317,113.87828)" />
  <path
     sodipodi:type="star"
     style="fill:#000000;fill-opacity:0.3;stroke:#000000;stroke-width:2.63187;stroke-linecap:round;stroke-linejoin:bevel;stroke-dasharray:none;stroke-opacity:0.9"
     id="path5-1-7"
     inkscape:flatsided="true"
     sodipodi:sides="3"
     sodipodi:cx="54.750252"
     sodipodi:cy="122.69923"
     sodipodi:r1="31.909784"
     sodipodi:r2="15.954892"
     sodipodi:arg1="-1.5707963"
     sodipodi:arg2="-0.52359878"
     inkscape:rounded="0"
     inkscape:randomized="0"
     d="m 54.750253,90.789442 27.634682,47.864678 -55.269368,0 z"
     inkscape:transform-center-y="-1.3862095"
     transform="matrix(0.17376606,0,0,0.17376606,87.151317,113.87828)" />
  <path
     sodipodi:type="star"
     style="fill:#000000;fill-opacity:0.3;stroke:#000000;stroke-width:2.63187;stroke-linecap:round;stroke-linejoin:bevel;stroke-dasharray:none;stroke-opacity:0.9"
     id="path5-8"
     inkscape:flatsided="true"
     sodipodi:sides="3"
     sodipodi:cx="54.750252"
     sodipodi:cy="122.69923"
     sodipodi:r1="31.909784"
     sodipodi:r2="15.954892"
     sodipodi:arg1="-1.5707963"
     sodipodi:arg2="-0.52359878"
     inkscape:rounded="0"
     inkscape:randomized="0"
     d="m 54.750253,90.789442 27.634682,47.864678 -55.269368,0 z"
     inkscape:transform-center-y="-1.3862095"
     transform="matrix(0.17376606,0,0,0.17376606,71.151317,113.87828)" />
  <path
     style="fill:none;fill-rule:evenodd;stroke:#000000;stroke-width:0.264583px;stroke-linecap:butt;stroke-linejoin:miter;stroke-opacity:1"
     d="M 106.62555,92.605374 91.781278,109.77817"
     id="path7"
     inkscape:connector-type="polyline"
     inkscape:connector-curvature="0"
     inkscape:connection-start="#path1"
     inkscape:connection-end="#rect1" />
  <path
     style="fill:none;fill-rule:evenodd;stroke:#000000;stroke-width:0.265;stroke-linecap:butt;stroke-linejoin:miter;stroke-dasharray:1.06, 0.265;stroke-dashoffset:0;stroke-opacity:1"
     d="m 109.81183,94.461014 -5.45186,15.317156"
     id="path14"
     inkscape:connector-type="polyline"
     inkscape:connector-curvature="0"
     inkscape:connection-start="#path1"
     inkscape:connection-end="#rect1-1" />
  <path
     style="fill:none;fill-rule:evenodd;stroke:#000000;stroke-width:0.264583px;stroke-linecap:butt;stroke-linejoin:miter;stroke-dasharray:1.05833, 0.264583;stroke-dashoffset:0;stroke-opacity:1"
     d="m 113.67286,95.027077 0.75006,14.751093"
     id="path15"
     inkscape:connector-type="polyline"
     inkscape:connector-curvature="0"
     inkscape:connection-start="#path1"
     inkscape:connection-end="#rect1-78" />
  <path
     style="fill:none;fill-rule:evenodd;stroke:#000000;stroke-width:0.264583px;stroke-linecap:butt;stroke-linejoin:miter;stroke-dasharray:1.05833, 0.264583;stroke-dashoffset:0;stroke-opacity:1"
     d="m 114.99787,94.870657 2.77937,14.907513"
     id="path16"
     inkscape:connector-type="polyline"
     inkscape:connector-curvature="0"
     inkscape:connection-start="#path1"
     inkscape:connection-end="#rect1-9" />
  <path
     style="fill:none;fill-rule:evenodd;stroke:#000000;stroke-width:0.264583px;stroke-linecap:butt;stroke-linejoin:miter;stroke-dasharray:1.05833, 0.264583;stroke-dashoffset:0;stroke-opacity:1"
     d="m 112.32063,95.004279 -1.25202,14.773891"
     id="path17"
     inkscape:connector-type="polyline"
     inkscape:connector-curvature="0"
     inkscape:connection-start="#path1"
     inkscape:connection-end="#rect1-5" />
  <path
     style="fill:none;fill-rule:evenodd;stroke:#000000;stroke-width:0.264583px;stroke-linecap:butt;stroke-linejoin:miter;stroke-dasharray:1.05833, 0.264583;stroke-dashoffset:0;stroke-opacity:1"
     d="M 121.13156,109.77817 116.23031,94.558504"
     id="path18"
     inkscape:connector-type="polyline"
     inkscape:connector-curvature="0"
     inkscape:connection-start="#rect1-4"
     inkscape:connection-end="#path1" />
  <path
     style="fill:none;fill-rule:evenodd;stroke:#000000;stroke-width:0.264583px;stroke-linecap:butt;stroke-linejoin:miter;stroke-dasharray:1.05833, 0.264583;stroke-dashoffset:0;stroke-opacity:1"
     d="m 107.71429,109.77817 3.29902,-14.972512"
     id="path19"
     inkscape:connector-type="polyline"
     inkscape:connector-curvature="0"
     inkscape:connection-start="#rect1-73"
     inkscape:connection-end="#path1" />
  <path
     style="fill:none;fill-rule:evenodd;stroke:#000000;stroke-width:0.264583px;stroke-linecap:butt;stroke-linejoin:miter;stroke-opacity:1"
     d="M 133.71025,109.77817 119.55394,92.732814"
     id="path20"
     inkscape:connector-type="polyline"
     inkscape:connector-curvature="0"
     inkscape:connection-start="#rect1-2"
     inkscape:connection-end="#path1" />
  <path
     style="fill:none;fill-rule:evenodd;stroke:#000000;stroke-width:0.264583px;stroke-linecap:butt;stroke-linejoin:miter;stroke-dasharray:1.05833, 0.264583;stroke-dashoffset:0;stroke-opacity:1"
     d="m 90.374865,119.30198 7.081994,12.44508"
     id="path21"
     inkscape:connector-type="polyline"
     inkscape:connector-curvature="0"
     inkscape:connection-start="#rect1"
     inkscape:connection-end="#path5-1-3" />
  <path
     style="fill:none;fill-rule:evenodd;stroke:#000000;stroke-width:0.264583px;stroke-linecap:butt;stroke-linejoin:miter;stroke-dasharray:1.05833, 0.264583;stroke-dashoffset:0;stroke-opacity:1"
     d="m 88.896787,119.30198 3.015187,11.65679"
     id="path22"
     inkscape:connector-type="polyline"
     inkscape:connector-curvature="0"
     inkscape:connection-start="#rect1"
     inkscape:connection-end="#path5-1" />
  <path
     style="fill:none;fill-rule:evenodd;stroke:#000000;stroke-width:0.264583px;stroke-linecap:butt;stroke-linejoin:miter;stroke-dasharray:1.05833, 0.264583;stroke-dashoffset:0;stroke-opacity:1"
     d="m 89.882173,119.30198 5.696291,12.23445"
     id="path23"
     inkscape:connector-type="polyline"
     inkscape:connector-curvature="0"
     inkscape:connection-start="#rect1"
     inkscape:connection-end="#path5-1-7" />
  <path
     style="fill:none;fill-rule:evenodd;stroke:#000000;stroke-width:0.264583px;stroke-linecap:butt;stroke-linejoin:miter;stroke-dasharray:1.05833, 0.264583;stroke-dashoffset:0;stroke-opacity:1"
     d="M 93.726854,131.27941 89.38948,119.30198"
     id="path24"
     inkscape:connector-type="polyline"
     inkscape:connector-curvature="0"
     inkscape:connection-start="#path5-1-2"
     inkscape:connection-end="#rect1" />
  <path
     style="fill:none;fill-rule:evenodd;stroke:#000000;stroke-width:0.264583px;stroke-linecap:butt;stroke-linejoin:miter;stroke-opacity:1"
     d="m 85.940632,119.30198 -4.33738,11.97743"
     id="path25"
     inkscape:connector-type="polyline"
     inkscape:connector-curvature="0"
     inkscape:connection-start="#rect1"
     inkscape:connection-end="#path5-8" />
  <path
     style="fill:none;fill-rule:evenodd;stroke:#000000;stroke-width:0.264583px;stroke-linecap:butt;stroke-linejoin:miter;stroke-opacity:1"
     d="M 66.303851,132.49289 82.903152,118.54217"
     id="path26"
     inkscape:connector-type="polyline"
     inkscape:connector-curvature="0"
     inkscape:connection-start="#path5"
     inkscape:connection-end="#rect1" />
  <circle
     style="fill:#000000;fill-opacity:0.3;stroke:#000000;stroke-width:1;stroke-linejoin:round;stroke-dasharray:none;stroke-opacity:0.9"
     id="path1-3"
     cx="73.165054"
     cy="160.04007"
     r="10" />
  <circle
     style="fill:#000000;fill-opacity:0.3;stroke:#000000;stroke-width:1;stroke-linejoin:round;stroke-dasharray:none;stroke-opacity:0.9"
     id="path1-3-9"
     cx="78.165054"
     cy="160.04007"
     r="10" />
  <circle
     style="fill:#000000;fill-opacity:0.3;stroke:#000000;stroke-width:1;stroke-linejoin:round;stroke-dasharray:none;stroke-opacity:0.9"
     id="path1-3-2"
     cx="93.165054"
     cy="160.04007"
     r="10" />
  <circle
     style="fill:#000000;fill-opacity:0.3;stroke:#000000;stroke-width:1;stroke-linejoin:round;stroke-dasharray:none;stroke-opacity:0.9"
     id="path1-3-7"
     cx="83.165054"
     cy="160.04007"
     r="10" />
  <circle
     style="fill:#000000;fill-opacity:0.3;stroke:#000000;stroke-width:1;stroke-linejoin:round;stroke-dasharray:none;stroke-opacity:0.9"
     id="path1-3-70"
     cx="88.165054"
     cy="160.04007"
     r="10" />
  <circle
     style="fill:#000000;fill-opacity:0.3;stroke:#000000;stroke-width:1;stroke-linejoin:round;stroke-dasharray:none;stroke-opacity:0.9"
     id="path1-6"
     cx="48.165054"
     cy="160.04007"
     r="10" />
  <circle
     style="fill:#000000;fill-opacity:0.3;stroke:#000000;stroke-width:1;stroke-linejoin:round;stroke-dasharray:none;stroke-opacity:0.9"
     id="path1-4"
     cx="118.16505"
     cy="160.04007"
     r="10" />
  <path
     style="fill:none;fill-rule:evenodd;stroke:#000000;stroke-width:0.264583px;stroke-linecap:butt;stroke-linejoin:miter;stroke-opacity:1"
     d="m 76.116406,137.53289 -20.16267,16.23552"
     id="path27"
     inkscape:connector-type="polyline"
     inkscape:connector-curvature="0"
     inkscape:connection-start="#path5-8"
     inkscape:connection-end="#path1-6" />
  <path
     style="fill:none;fill-rule:evenodd;stroke:#000000;stroke-width:0.264583px;stroke-linecap:butt;stroke-linejoin:miter;stroke-opacity:1"
     d="m 84.741484,136.71499 25.223156,17.60232"
     id="path28"
     inkscape:connector-type="polyline"
     inkscape:connector-curvature="0"
     inkscape:connection-start="#path5-8"
     inkscape:connection-end="#path1-4" />
  <path
     style="fill:none;fill-rule:evenodd;stroke:#000000;stroke-width:0.264583px;stroke-linecap:butt;stroke-linejoin:miter;stroke-dasharray:1.05833, 0.264583;stroke-dashoffset:0;stroke-opacity:1"
     d="m 79.489618,137.97166 -3.569619,12.45553"
     id="path29"
     inkscape:connector-type="polyline"
     inkscape:connector-curvature="0"
     inkscape:connection-start="#path5-8"
     inkscape:connection-end="#path1-3" />
  <path
     style="fill:none;fill-rule:evenodd;stroke:#000000;stroke-width:0.264583px;stroke-linecap:butt;stroke-linejoin:miter;stroke-dasharray:1.05833, 0.264583;stroke-dashoffset:0;stroke-opacity:1"
     d="m 80.273241,137.97166 -1.157233,12.11387"
     id="path30"
     inkscape:connector-type="polyline"
     inkscape:connector-curvature="0"
     inkscape:connection-start="#path5-8"
     inkscape:connection-end="#path1-3-9" />
  <path
     style="fill:none;fill-rule:evenodd;stroke:#000000;stroke-width:0.264583px;stroke-linecap:butt;stroke-linejoin:miter;stroke-dasharray:1.05833, 0.264583;stroke-dashoffset:0;stroke-opacity:1"
     d="m 81.840487,137.97166 3.569621,12.45553"
     id="path31"
     inkscape:connector-type="polyline"
     inkscape:connector-curvature="0"
     inkscape:connection-start="#path5-8"
     inkscape:connection-end="#path1-3-70" />
  <path
     style="fill:none;fill-rule:evenodd;stroke:#000000;stroke-width:0.264583px;stroke-linecap:butt;stroke-linejoin:miter;stroke-dasharray:1.05833, 0.264583;stroke-dashoffset:0;stroke-opacity:1"
     d="m 82.62411,137.97166 6.230956,13.04506"
     id="path32"
     inkscape:connector-type="polyline"
     inkscape:connector-curvature="0"
     inkscape:connection-start="#path5-8"
     inkscape:connection-end="#path1-3-2" />
  <path
     style="fill:none;fill-rule:evenodd;stroke:#000000;stroke-width:0.264583px;stroke-linecap:butt;stroke-linejoin:miter;stroke-dasharray:1.05833, 0.264583;stroke-dashoffset:0;stroke-opacity:1"
     d="m 81.056864,137.97166 1.157235,12.11387"
     id="path33"
     inkscape:connector-type="polyline"
     inkscape:connector-curvature="0"
     inkscape:connection-start="#path5-8"
     inkscape:connection-end="#path1-3-7" />
  <g
     inkscape:label=""
     transform="translate(111.46942,82.080909)"
     id="g34">
    <g
       fill="#000000"
       fill-opacity="1"
       id="g3"
       transform="matrix(0.352778,0,0,0.352778,-0.978694,-0.703748)">
      <g
         id="use2"
         transform="translate(1.993,13.948)">
        <path
           d="M 3.984375,-11.515625 C 4,-11.59375 4.03125,-11.6875 4.03125,-11.78125 c 0,-0.171875 -0.171875,-0.171875 -0.203125,-0.171875 -0.015625,0 -0.640625,0.0625 -0.953125,0.09375 -0.296875,0.01563 -0.546875,0.04687 -0.859375,0.0625 -0.421875,0.03125 -0.53125,0.04687 -0.53125,0.359375 0,0.171875 0.171875,0.171875 0.34375,0.171875 0.875,0 0.875,0.15625 0.875,0.328125 0,0.125 -0.140625,0.625 -0.203125,0.9375 L 2.078125,-8.34375 C 1.90625,-7.65625 0.9375,-3.75 0.859375,-3.4375 0.78125,-3.015625 0.78125,-2.71875 0.78125,-2.5 c 0,1.765625 0.96875,2.671875 2.09375,2.671875 2,0 4.0625,-2.5625 4.0625,-5.0625 0,-1.578125 -0.890625,-2.703125 -2.1875,-2.703125 -0.890625,0 -1.703125,0.734375 -2.03125,1.078125 z m -1.09375,11.34375 c -0.546875,0 -1.15625,-0.40625 -1.15625,-1.75 0,-0.578125 0.0625,-0.90625 0.359375,-2.109375 C 2.15625,-4.25 2.421875,-5.359375 2.5,-5.578125 2.53125,-5.71875 3.546875,-7.25 4.71875,-7.25 c 0.75,0 1.09375,0.765625 1.09375,1.65625 0,0.828125 -0.46875,2.765625 -0.90625,3.671875 -0.421875,0.921875 -1.21875,1.75 -2.015625,1.75 z m 0,0"
           id="path4" />
      </g>
    </g>
    <g
       fill="#000000"
       fill-opacity="1"
       id="g4"
       transform="matrix(0.352778,0,0,0.352778,-0.978694,-0.703748)">
      <g
         id="use3"
         transform="translate(9.1599998,16.530001)">
        <path
           d="m 3.125,-7.453125 c 0,0 0,-0.109375 -0.140625,-0.109375 -0.25,0 -1.046875,0.078125 -1.328125,0.109375 -0.078125,0 -0.203125,0.015625 -0.203125,0.21875 0,0.125 0.09375,0.125 0.265625,0.125 0.515625,0 0.53125,0.078125 0.53125,0.1875 l -0.03125,0.21875 -1.578125,6.28125 C 0.59375,-0.265625 0.59375,-0.25 0.59375,-0.1875 c 0,0.25 0.21875,0.3125 0.328125,0.3125 C 1.0625,0.125 1.21875,0.015625 1.28125,-0.109375 1.34375,-0.203125 1.828125,-2.21875 1.890625,-2.5 c 0.375,0.03125 1.265625,0.203125 1.265625,0.921875 0,0.078125 0,0.125 -0.03125,0.234375 -0.015625,0.140625 -0.03125,0.265625 -0.03125,0.390625 0,0.640625 0.421875,1.078125 1,1.078125 0.328125,0 0.625,-0.171875 0.859375,-0.578125 C 5.21875,-0.9375 5.34375,-1.53125 5.34375,-1.5625 c 0,-0.109375 -0.09375,-0.109375 -0.125,-0.109375 -0.109375,0 -0.125,0.046875 -0.15625,0.203125 -0.21875,0.796875 -0.46875,1.34375 -0.953125,1.34375 -0.203125,0 -0.34375,-0.109375 -0.34375,-0.5 0,-0.1875 0.046875,-0.4375 0.078125,-0.625 0.046875,-0.171875 0.046875,-0.21875 0.046875,-0.328125 0,-0.71875 -0.6875,-1.03125 -1.609375,-1.140625 0.34375,-0.203125 0.6875,-0.546875 0.9375,-0.8125 0.515625,-0.578125 1.03125,-1.046875 1.5625,-1.046875 0.0625,0 0.078125,0 0.09375,0.015625 C 5,-4.546875 5.015625,-4.546875 5.109375,-4.484375 5.125,-4.46875 5.125,-4.453125 5.140625,-4.4375 4.625,-4.40625 4.53125,-3.984375 4.53125,-3.84375 c 0,0.171875 0.109375,0.375 0.40625,0.375 0.28125,0 0.609375,-0.234375 0.609375,-0.671875 0,-0.3125 -0.25,-0.6875 -0.75,-0.6875 -0.296875,0 -0.8125,0.09375 -1.59375,0.96875 C 2.828125,-3.453125 2.40625,-3.015625 2,-2.84375 Z m 0,0"
           id="path34" />
      </g>
    </g>
  </g>
  <g
     inkscape:label=""
     transform="translate(93.494937,97.808583)"
     id="g37">
    <g
       fill="#000000"
       fill-opacity="1"
       id="g36"
       transform="matrix(0.352778,0,0,0.352778,-0.873963,-0.646333)">
      <g
         id="g35"
         transform="translate(1.993,11.467)">
        <path
           d="M 3.59375,-1.421875 C 3.53125,-1.21875 3.53125,-1.1875 3.375,-0.96875 3.109375,-0.640625 2.578125,-0.125 2.015625,-0.125 1.53125,-0.125 1.25,-0.5625 1.25,-1.265625 c 0,-0.65625 0.375,-2 0.609375,-2.5 0.40625,-0.84375 0.96875,-1.265625 1.421875,-1.265625 0.796875,0 0.953125,0.984375 0.953125,1.078125 0,0.015625 -0.03125,0.15625 -0.046875,0.1875 z m 0.765625,-3.0625 c -0.125,-0.3125 -0.453125,-0.78125 -1.078125,-0.78125 -1.34375,0 -2.796875,1.734375 -2.796875,3.515625 0,1.171875 0.6875,1.875 1.5,1.875 0.65625,0 1.21875,-0.515625 1.546875,-0.90625 0.125,0.703125 0.6875,0.90625 1.046875,0.90625 0.359375,0 0.640625,-0.21875 0.859375,-0.65625 0.1875,-0.40625 0.359375,-1.125 0.359375,-1.171875 0,-0.0625 -0.046875,-0.109375 -0.125,-0.109375 C 5.5625,-1.8125 5.5625,-1.75 5.515625,-1.578125 5.328125,-0.875 5.109375,-0.125 4.609375,-0.125 4.265625,-0.125 4.25,-0.4375 4.25,-0.671875 c 0,-0.265625 0.03125,-0.40625 0.140625,-0.875 C 4.46875,-1.84375 4.53125,-2.109375 4.625,-2.453125 5.0625,-4.25 5.171875,-4.671875 5.171875,-4.75 c 0,-0.15625 -0.125,-0.296875 -0.3125,-0.296875 -0.375,0 -0.46875,0.421875 -0.5,0.5625 z m 0,0"
           id="path6" />
      </g>
    </g>
    <g
       fill="#000000"
       fill-opacity="1"
       id="g5"
       transform="matrix(0.352778,0,0,0.352778,-0.873963,-0.646333)">
      <g
         id="use4"
         transform="translate(8.1370001,7.1290002)">
        <path
           d="m 2.5,-5.078125 c 0,-0.21875 -0.015625,-0.21875 -0.234375,-0.21875 -0.328125,0.3125 -0.75,0.5 -1.5,0.5 v 0.265625 c 0.21875,0 0.640625,0 1.109375,-0.203125 v 4.078125 c 0,0.296875 -0.03125,0.390625 -0.78125,0.390625 H 0.8125 V 0 c 0.328125,-0.03125 1.015625,-0.03125 1.375,-0.03125 0.359375,0 1.046875,0 1.375,0.03125 V -0.265625 H 3.28125 c -0.75,0 -0.78125,-0.09375 -0.78125,-0.390625 z m 0,0"
           id="path36" />
      </g>
    </g>
    <g
       fill="#000000"
       fill-opacity="1"
       id="g6"
       transform="matrix(0.352778,0,0,0.352778,-0.873963,-0.646333)">
      <g
         id="use5"
         transform="translate(8.1370001,14.576)">
        <path
           d="m 2.328125,-5.296875 c 0,-0.015625 0.03125,-0.109375 0.03125,-0.125 0,-0.03125 -0.03125,-0.109375 -0.125,-0.109375 -0.03125,0 -0.28125,0.03125 -0.46875,0.046875 l -0.4375,0.03125 C 1.140625,-5.4375 1.0625,-5.4375 1.0625,-5.296875 c 0,0.125 0.109375,0.125 0.21875,0.125 0.375,0 0.375,0.046875 0.375,0.109375 0,0.03125 0,0.046875 -0.03125,0.1875 l -1.140625,4.53125 c -0.03125,0.125 -0.03125,0.171875 -0.03125,0.171875 0,0.140625 0.109375,0.25 0.265625,0.25 0.265625,0 0.328125,-0.25 0.359375,-0.359375 0.078125,-0.34375 0.296875,-1.1875 0.375,-1.515625 0.4375,0.046875 0.984375,0.1875 0.984375,0.65625 0,0.03125 0,0.078125 -0.015625,0.15625 -0.03125,0.09375 -0.046875,0.21875 -0.046875,0.25 0,0.46875 0.34375,0.8125 0.8125,0.8125 0.328125,0 0.546875,-0.25 0.640625,-0.390625 C 4.03125,-0.609375 4.15625,-1.09375 4.15625,-1.140625 4.15625,-1.21875 4.09375,-1.25 4.03125,-1.25 c -0.09375,0 -0.109375,0.0625 -0.140625,0.203125 -0.109375,0.375 -0.3125,0.90625 -0.6875,0.90625 -0.203125,0 -0.25,-0.171875 -0.25,-0.390625 0,-0.109375 0,-0.203125 0.046875,-0.390625 0,-0.03125 0.03125,-0.15625 0.03125,-0.234375 0,-0.65625 -0.8125,-0.796875 -1.21875,-0.859375 C 2.109375,-2.1875 2.375,-2.46875 2.46875,-2.5625 2.90625,-3 3.265625,-3.296875 3.65625,-3.296875 c 0.09375,0 0.1875,0.03125 0.25,0.109375 C 3.484375,-3.125 3.484375,-2.75 3.484375,-2.75 c 0,0.171875 0.140625,0.296875 0.3125,0.296875 0.21875,0 0.453125,-0.171875 0.453125,-0.5 0,-0.28125 -0.1875,-0.5625 -0.59375,-0.5625 -0.453125,0 -0.875,0.359375 -1.328125,0.8125 -0.46875,0.453125 -0.65625,0.53125 -0.796875,0.59375 z m 0,0"
           id="path8" />
      </g>
    </g>
  </g>
  <g
     inkscape:label=""
     transform="translate(64.45923,122.13462)"
     id="g49">
    <g
       fill="#000000"
       fill-opacity="1"
       id="g46"
       transform="matrix(0.352778,0,0,0.352778,-0.823497,-0.646333)">
      <g
         id="g45"
         transform="translate(1.993,11.467)">
        <path
           d="m 6.765625,-6.953125 c 0,-0.71875 -0.609375,-1.46875 -1.703125,-1.46875 -1.53125,0 -2.515625,1.890625 -2.828125,3.125 l -1.890625,7.5 C 0.328125,2.296875 0.390625,2.3125 0.453125,2.3125 c 0.078125,0 0.140625,0 0.15625,-0.0625 l 0.84375,-3.34375 C 1.5625,-0.4375 2.21875,0.125 2.921875,0.125 4.640625,0.125 6.25,-1.21875 6.25,-3 6.25,-3.453125 6.140625,-3.90625 5.890625,-4.296875 5.75,-4.515625 5.5625,-4.6875 5.375,-4.828125 c 0.859375,-0.453125 1.390625,-1.1875 1.390625,-2.125 z M 4.6875,-4.84375 C 4.5,-4.765625 4.296875,-4.75 4.078125,-4.75 3.90625,-4.75 3.75,-4.734375 3.53125,-4.8125 c 0.125,-0.078125 0.3125,-0.09375 0.5625,-0.09375 0.203125,0 0.421875,0.015625 0.59375,0.0625 z M 6.140625,-7.0625 c 0,0.65625 -0.3125,1.609375 -1.09375,2.046875 C 4.8125,-5.09375 4.5,-5.15625 4.25,-5.15625 4,-5.15625 3.28125,-5.171875 3.28125,-4.796875 3.28125,-4.46875 3.9375,-4.5 4.140625,-4.5 c 0.3125,0 0.578125,-0.078125 0.875,-0.15625 0.375,0.3125 0.546875,0.71875 0.546875,1.3125 0,0.6875 -0.203125,1.25 -0.421875,1.765625 C 4.75,-0.6875 3.8125,-0.125 2.984375,-0.125 c -0.875,0 -1.328125,-0.6875 -1.328125,-1.5 0,-0.109375 0,-0.265625 0.046875,-0.4375 l 0.78125,-3.15625 c 0.390625,-1.5625 1.40625,-2.96875 2.5625,-2.96875 0.859375,0 1.09375,0.59375 1.09375,1.125 z m 0,0"
           id="path44" />
      </g>
    </g>
    <g
       fill="#000000"
       fill-opacity="1"
       id="g48"
       transform="matrix(0.352778,0,0,0.352778,-0.823497,-0.646333)">
      <g
         id="g47"
         transform="translate(9.2639999,7.1290002)">
        <path
           d="m 2.5,-5.078125 c 0,-0.21875 -0.015625,-0.21875 -0.234375,-0.21875 -0.328125,0.3125 -0.75,0.5 -1.5,0.5 v 0.265625 c 0.21875,0 0.640625,0 1.109375,-0.203125 v 4.078125 c 0,0.296875 -0.03125,0.390625 -0.78125,0.390625 H 0.8125 V 0 c 0.328125,-0.03125 1.015625,-0.03125 1.375,-0.03125 0.359375,0 1.046875,0 1.375,0.03125 V -0.265625 H 3.28125 c -0.75,0 -0.78125,-0.09375 -0.78125,-0.390625 z m 0,0"
           id="path9" />
      </g>
    </g>
    <g
       fill="#000000"
       fill-opacity="1"
       id="g7"
       transform="matrix(0.352778,0,0,0.352778,-0.823497,-0.646333)">
      <g
         id="use6"
         transform="translate(8.6009998,14.576)">
        <path
           d="m 2.328125,-5.296875 c 0,-0.015625 0.03125,-0.109375 0.03125,-0.125 0,-0.03125 -0.03125,-0.109375 -0.125,-0.109375 -0.03125,0 -0.28125,0.03125 -0.46875,0.046875 l -0.4375,0.03125 C 1.140625,-5.4375 1.0625,-5.4375 1.0625,-5.296875 c 0,0.125 0.109375,0.125 0.21875,0.125 0.375,0 0.375,0.046875 0.375,0.109375 0,0.03125 0,0.046875 -0.03125,0.1875 l -1.140625,4.53125 c -0.03125,0.125 -0.03125,0.171875 -0.03125,0.171875 0,0.140625 0.109375,0.25 0.265625,0.25 0.265625,0 0.328125,-0.25 0.359375,-0.359375 0.078125,-0.34375 0.296875,-1.1875 0.375,-1.515625 0.4375,0.046875 0.984375,0.1875 0.984375,0.65625 0,0.03125 0,0.078125 -0.015625,0.15625 -0.03125,0.09375 -0.046875,0.21875 -0.046875,0.25 0,0.46875 0.34375,0.8125 0.8125,0.8125 0.328125,0 0.546875,-0.25 0.640625,-0.390625 C 4.03125,-0.609375 4.15625,-1.09375 4.15625,-1.140625 4.15625,-1.21875 4.09375,-1.25 4.03125,-1.25 c -0.09375,0 -0.109375,0.0625 -0.140625,0.203125 -0.109375,0.375 -0.3125,0.90625 -0.6875,0.90625 -0.203125,0 -0.25,-0.171875 -0.25,-0.390625 0,-0.109375 0,-0.203125 0.046875,-0.390625 0,-0.03125 0.03125,-0.15625 0.03125,-0.234375 0,-0.65625 -0.8125,-0.796875 -1.21875,-0.859375 C 2.109375,-2.1875 2.375,-2.46875 2.46875,-2.5625 2.90625,-3 3.265625,-3.296875 3.65625,-3.296875 c 0.09375,0 0.1875,0.03125 0.25,0.109375 C 3.484375,-3.125 3.484375,-2.75 3.484375,-2.75 c 0,0.171875 0.140625,0.296875 0.3125,0.296875 0.21875,0 0.453125,-0.171875 0.453125,-0.5 0,-0.28125 -0.1875,-0.5625 -0.59375,-0.5625 -0.453125,0 -0.875,0.359375 -1.328125,0.8125 -0.46875,0.453125 -0.65625,0.53125 -0.796875,0.59375 z m 0,0"
           id="path10" />
      </g>
    </g>
    <g
       fill="#000000"
       fill-opacity="1"
       id="g8"
       transform="matrix(0.352778,0,0,0.352778,-0.823497,-0.646333)">
      <g
         id="use7"
         transform="translate(13.223,14.576)">
        <path
           d="M 3.46875,-1.8125 H 5.8125 c 0.109375,0 0.296875,0 0.296875,-0.171875 0,-0.1875 -0.1875,-0.1875 -0.296875,-0.1875 H 3.46875 V -4.53125 c 0,-0.109375 0,-0.28125 -0.171875,-0.28125 -0.1875,0 -0.1875,0.171875 -0.1875,0.28125 v 2.359375 H 0.75 c -0.109375,0 -0.28125,0 -0.28125,0.1875 0,0.171875 0.171875,0.171875 0.28125,0.171875 h 2.359375 v 2.359375 c 0,0.109375 0,0.28125 0.1875,0.28125 0.171875,0 0.171875,-0.171875 0.171875,-0.28125 z m 0,0"
           id="path11" />
      </g>
      <g
         id="use8"
         transform="translate(19.80949,14.576)">
        <path
           d="m 2.5,-5.078125 c 0,-0.21875 -0.015625,-0.21875 -0.234375,-0.21875 -0.328125,0.3125 -0.75,0.5 -1.5,0.5 v 0.265625 c 0.21875,0 0.640625,0 1.109375,-0.203125 v 4.078125 c 0,0.296875 -0.03125,0.390625 -0.78125,0.390625 H 0.8125 V 0 c 0.328125,-0.03125 1.015625,-0.03125 1.375,-0.03125 0.359375,0 1.046875,0 1.375,0.03125 V -0.265625 H 3.28125 c -0.75,0 -0.78125,-0.09375 -0.78125,-0.390625 z m 0,0"
           id="path12" />
      </g>
    </g>
  </g>
  <path
     style="fill:none;fill-rule:evenodd;stroke:#000000;stroke-width:0.264583px;stroke-linecap:butt;stroke-linejoin:miter;stroke-opacity:1"
     d="M 109.02626,132.49289 92.426962,118.54217"
     id="path49"
     inkscape:connector-type="polyline"
     inkscape:connector-curvature="0"
     inkscape:connection-start="#path5-6"
     inkscape:connection-end="#rect1" />
  <g
     inkscape:label=""
     transform="translate(74.958741,124.25174)"
     id="g57">
    <g
       fill="#000000"
       fill-opacity="1"
       id="g51"
       transform="matrix(0.352778,0,0,0.352778,-0.823497,-0.646333)">
      <g
         id="g50"
         transform="translate(1.993,11.467)">
        <path
           d="m 6.765625,-6.953125 c 0,-0.71875 -0.609375,-1.46875 -1.703125,-1.46875 -1.53125,0 -2.515625,1.890625 -2.828125,3.125 l -1.890625,7.5 C 0.328125,2.296875 0.390625,2.3125 0.453125,2.3125 c 0.078125,0 0.140625,0 0.15625,-0.0625 l 0.84375,-3.34375 C 1.5625,-0.4375 2.21875,0.125 2.921875,0.125 4.640625,0.125 6.25,-1.21875 6.25,-3 6.25,-3.453125 6.140625,-3.90625 5.890625,-4.296875 5.75,-4.515625 5.5625,-4.6875 5.375,-4.828125 c 0.859375,-0.453125 1.390625,-1.1875 1.390625,-2.125 z M 4.6875,-4.84375 C 4.5,-4.765625 4.296875,-4.75 4.078125,-4.75 3.90625,-4.75 3.75,-4.734375 3.53125,-4.8125 c 0.125,-0.078125 0.3125,-0.09375 0.5625,-0.09375 0.203125,0 0.421875,0.015625 0.59375,0.0625 z M 6.140625,-7.0625 c 0,0.65625 -0.3125,1.609375 -1.09375,2.046875 C 4.8125,-5.09375 4.5,-5.15625 4.25,-5.15625 4,-5.15625 3.28125,-5.171875 3.28125,-4.796875 3.28125,-4.46875 3.9375,-4.5 4.140625,-4.5 c 0.3125,0 0.578125,-0.078125 0.875,-0.15625 0.375,0.3125 0.546875,0.71875 0.546875,1.3125 0,0.6875 -0.203125,1.25 -0.421875,1.765625 C 4.75,-0.6875 3.8125,-0.125 2.984375,-0.125 c -0.875,0 -1.328125,-0.6875 -1.328125,-1.5 0,-0.109375 0,-0.265625 0.046875,-0.4375 l 0.78125,-3.15625 c 0.390625,-1.5625 1.40625,-2.96875 2.5625,-2.96875 0.859375,0 1.09375,0.59375 1.09375,1.125 z m 0,0"
           id="path50" />
      </g>
    </g>
    <g
       fill="#000000"
       fill-opacity="1"
       id="g53"
       transform="matrix(0.352778,0,0,0.352778,-0.823497,-0.646333)">
      <g
         id="g52"
         transform="translate(9.2639999,7.1290002)">
        <path
           d="m 2.25,-1.625 c 0.125,-0.125 0.453125,-0.390625 0.59375,-0.5 0.484375,-0.453125 0.953125,-0.890625 0.953125,-1.609375 0,-0.953125 -0.796875,-1.5625 -1.78125,-1.5625 -0.96875,0 -1.59375,0.71875 -1.59375,1.4375 0,0.390625 0.3125,0.4375 0.421875,0.4375 0.171875,0 0.421875,-0.109375 0.421875,-0.421875 0,-0.40625 -0.40625,-0.40625 -0.5,-0.40625 C 1,-4.84375 1.53125,-5.03125 1.921875,-5.03125 c 0.734375,0 1.125,0.625 1.125,1.296875 0,0.828125 -0.578125,1.4375 -1.53125,2.390625 l -1,1.046875 C 0.421875,-0.21875 0.421875,-0.203125 0.421875,0 H 3.5625 l 0.234375,-1.421875 h -0.25 C 3.53125,-1.265625 3.46875,-0.875 3.375,-0.71875 c -0.046875,0.0625 -0.65625,0.0625 -0.78125,0.0625 H 1.171875 Z m 0,0"
           id="path51" />
      </g>
    </g>
    <g
       fill="#000000"
       fill-opacity="1"
       id="g55"
       transform="matrix(0.352778,0,0,0.352778,-0.823497,-0.646333)">
      <g
         id="g54"
         transform="translate(8.6009998,14.576)">
        <path
           d="m 2.328125,-5.296875 c 0,-0.015625 0.03125,-0.109375 0.03125,-0.125 0,-0.03125 -0.03125,-0.109375 -0.125,-0.109375 -0.03125,0 -0.28125,0.03125 -0.46875,0.046875 l -0.4375,0.03125 C 1.140625,-5.4375 1.0625,-5.4375 1.0625,-5.296875 c 0,0.125 0.109375,0.125 0.21875,0.125 0.375,0 0.375,0.046875 0.375,0.109375 0,0.03125 0,0.046875 -0.03125,0.1875 l -1.140625,4.53125 c -0.03125,0.125 -0.03125,0.171875 -0.03125,0.171875 0,0.140625 0.109375,0.25 0.265625,0.25 0.265625,0 0.328125,-0.25 0.359375,-0.359375 0.078125,-0.34375 0.296875,-1.1875 0.375,-1.515625 0.4375,0.046875 0.984375,0.1875 0.984375,0.65625 0,0.03125 0,0.078125 -0.015625,0.15625 -0.03125,0.09375 -0.046875,0.21875 -0.046875,0.25 0,0.46875 0.34375,0.8125 0.8125,0.8125 0.328125,0 0.546875,-0.25 0.640625,-0.390625 C 4.03125,-0.609375 4.15625,-1.09375 4.15625,-1.140625 4.15625,-1.21875 4.09375,-1.25 4.03125,-1.25 c -0.09375,0 -0.109375,0.0625 -0.140625,0.203125 -0.109375,0.375 -0.3125,0.90625 -0.6875,0.90625 -0.203125,0 -0.25,-0.171875 -0.25,-0.390625 0,-0.109375 0,-0.203125 0.046875,-0.390625 0,-0.03125 0.03125,-0.15625 0.03125,-0.234375 0,-0.65625 -0.8125,-0.796875 -1.21875,-0.859375 C 2.109375,-2.1875 2.375,-2.46875 2.46875,-2.5625 2.90625,-3 3.265625,-3.296875 3.65625,-3.296875 c 0.09375,0 0.1875,0.03125 0.25,0.109375 C 3.484375,-3.125 3.484375,-2.75 3.484375,-2.75 c 0,0.171875 0.140625,0.296875 0.3125,0.296875 0.21875,0 0.453125,-0.171875 0.453125,-0.5 0,-0.28125 -0.1875,-0.5625 -0.59375,-0.5625 -0.453125,0 -0.875,0.359375 -1.328125,0.8125 -0.46875,0.453125 -0.65625,0.53125 -0.796875,0.59375 z m 0,0"
           id="path53" />
      </g>
    </g>
    <g
       fill="#000000"
       fill-opacity="1"
       id="g9"
       transform="matrix(0.352778,0,0,0.352778,-0.823497,-0.646333)">
      <g
         id="g56"
         transform="translate(13.223,14.576)">
        <path
           d="M 3.46875,-1.8125 H 5.8125 c 0.109375,0 0.296875,0 0.296875,-0.171875 0,-0.1875 -0.1875,-0.1875 -0.296875,-0.1875 H 3.46875 V -4.53125 c 0,-0.109375 0,-0.28125 -0.171875,-0.28125 -0.1875,0 -0.1875,0.171875 -0.1875,0.28125 v 2.359375 H 0.75 c -0.109375,0 -0.28125,0 -0.28125,0.1875 0,0.171875 0.171875,0.171875 0.28125,0.171875 h 2.359375 v 2.359375 c 0,0.109375 0,0.28125 0.1875,0.28125 0.171875,0 0.171875,-0.171875 0.171875,-0.28125 z m 0,0"
           id="path55" />
      </g>
      <g
         id="use9"
         transform="translate(19.80949,14.576)">
        <path
           d="m 2.5,-5.078125 c 0,-0.21875 -0.015625,-0.21875 -0.234375,-0.21875 -0.328125,0.3125 -0.75,0.5 -1.5,0.5 v 0.265625 c 0.21875,0 0.640625,0 1.109375,-0.203125 v 4.078125 c 0,0.296875 -0.03125,0.390625 -0.78125,0.390625 H 0.8125 V 0 c 0.328125,-0.03125 1.015625,-0.03125 1.375,-0.03125 0.359375,0 1.046875,0 1.375,0.03125 V -0.265625 H 3.28125 c -0.75,0 -0.78125,-0.09375 -0.78125,-0.390625 z m 0,0"
           id="path13" />
      </g>
    </g>
  </g>
  <g
     inkscape:label=""
     transform="translate(54.478199,143.34963)"
     id="g67">
    <g
       fill="#000000"
       fill-opacity="1"
       id="g59"
       transform="matrix(0.352778,0,0,0.352778,-0.945621,-0.646333)">
      <g
         id="g58"
         transform="translate(1.993,11.467)">
        <path
           d="M 8.359375,-7.796875 C 8.4375,-7.875 8.5,-7.953125 8.5,-8.0625 8.5,-8.15625 8.484375,-8.15625 8.21875,-8.15625 h -4.9375 c -0.28125,0 -0.296875,0 -0.359375,0.21875 l -0.65625,2.15625 C 2.21875,-5.671875 2.21875,-5.640625 2.21875,-5.625 c 0,0.0625 0.046875,0.125 0.125,0.125 0.09375,0 0.125,-0.046875 0.171875,-0.203125 C 2.953125,-7 3.53125,-7.8125 5.421875,-7.8125 h 1.96875 L 0.84375,-0.40625 C 0.734375,-0.28125 0.6875,-0.234375 0.6875,-0.09375 0.6875,0 0.734375,0 0.96875,0 H 6.078125 C 6.34375,0 6.359375,-0.015625 6.4375,-0.234375 L 7.265625,-2.875 c 0.015625,-0.03125 0.03125,-0.109375 0.03125,-0.15625 0,-0.0625 -0.046875,-0.125 -0.109375,-0.125 -0.09375,0 -0.109375,0.015625 -0.203125,0.3125 -0.5,1.546875 -1.03125,2.46875 -3.109375,2.46875 H 1.8125 Z m 0,0"
           id="path57" />
      </g>
    </g>
    <g
       fill="#000000"
       fill-opacity="1"
       id="g61"
       transform="matrix(0.352778,0,0,0.352778,-0.945621,-0.646333)">
      <g
         id="g60"
         transform="translate(10.863,7.1290002)">
        <path
           d="m 2.5,-5.078125 c 0,-0.21875 -0.015625,-0.21875 -0.234375,-0.21875 -0.328125,0.3125 -0.75,0.5 -1.5,0.5 v 0.265625 c 0.21875,0 0.640625,0 1.109375,-0.203125 v 4.078125 c 0,0.296875 -0.03125,0.390625 -0.78125,0.390625 H 0.8125 V 0 c 0.328125,-0.03125 1.015625,-0.03125 1.375,-0.03125 0.359375,0 1.046875,0 1.375,0.03125 V -0.265625 H 3.28125 c -0.75,0 -0.78125,-0.09375 -0.78125,-0.390625 z m 0,0"
           id="path59" />
      </g>
    </g>
    <g
       fill="#000000"
       fill-opacity="1"
       id="g63"
       transform="matrix(0.352778,0,0,0.352778,-0.945621,-0.646333)">
      <g
         id="g62"
         transform="translate(10.005,14.576)">
        <path
           d="m 2.328125,-5.296875 c 0,-0.015625 0.03125,-0.109375 0.03125,-0.125 0,-0.03125 -0.03125,-0.109375 -0.125,-0.109375 -0.03125,0 -0.28125,0.03125 -0.46875,0.046875 l -0.4375,0.03125 C 1.140625,-5.4375 1.0625,-5.4375 1.0625,-5.296875 c 0,0.125 0.109375,0.125 0.21875,0.125 0.375,0 0.375,0.046875 0.375,0.109375 0,0.03125 0,0.046875 -0.03125,0.1875 l -1.140625,4.53125 c -0.03125,0.125 -0.03125,0.171875 -0.03125,0.171875 0,0.140625 0.109375,0.25 0.265625,0.25 0.265625,0 0.328125,-0.25 0.359375,-0.359375 0.078125,-0.34375 0.296875,-1.1875 0.375,-1.515625 0.4375,0.046875 0.984375,0.1875 0.984375,0.65625 0,0.03125 0,0.078125 -0.015625,0.15625 -0.03125,0.09375 -0.046875,0.21875 -0.046875,0.25 0,0.46875 0.34375,0.8125 0.8125,0.8125 0.328125,0 0.546875,-0.25 0.640625,-0.390625 C 4.03125,-0.609375 4.15625,-1.09375 4.15625,-1.140625 4.15625,-1.21875 4.09375,-1.25 4.03125,-1.25 c -0.09375,0 -0.109375,0.0625 -0.140625,0.203125 -0.109375,0.375 -0.3125,0.90625 -0.6875,0.90625 -0.203125,0 -0.25,-0.171875 -0.25,-0.390625 0,-0.109375 0,-0.203125 0.046875,-0.390625 0,-0.03125 0.03125,-0.15625 0.03125,-0.234375 0,-0.65625 -0.8125,-0.796875 -1.21875,-0.859375 C 2.109375,-2.1875 2.375,-2.46875 2.46875,-2.5625 2.90625,-3 3.265625,-3.296875 3.65625,-3.296875 c 0.09375,0 0.1875,0.03125 0.25,0.109375 C 3.484375,-3.125 3.484375,-2.75 3.484375,-2.75 c 0,0.171875 0.140625,0.296875 0.3125,0.296875 0.21875,0 0.453125,-0.171875 0.453125,-0.5 0,-0.28125 -0.1875,-0.5625 -0.59375,-0.5625 -0.453125,0 -0.875,0.359375 -1.328125,0.8125 -0.46875,0.453125 -0.65625,0.53125 -0.796875,0.59375 z m 0,0"
           id="path61" />
      </g>
    </g>
    <g
       fill="#000000"
       fill-opacity="1"
       id="g66"
       transform="matrix(0.352778,0,0,0.352778,-0.945621,-0.646333)">
      <g
         id="g64"
         transform="translate(14.626,14.576)">
        <path
           d="M 3.46875,-1.8125 H 5.8125 c 0.109375,0 0.296875,0 0.296875,-0.171875 0,-0.1875 -0.1875,-0.1875 -0.296875,-0.1875 H 3.46875 V -4.53125 c 0,-0.109375 0,-0.28125 -0.171875,-0.28125 -0.1875,0 -0.1875,0.171875 -0.1875,0.28125 v 2.359375 H 0.75 c -0.109375,0 -0.28125,0 -0.28125,0.1875 0,0.171875 0.171875,0.171875 0.28125,0.171875 h 2.359375 v 2.359375 c 0,0.109375 0,0.28125 0.1875,0.28125 0.171875,0 0.171875,-0.171875 0.171875,-0.28125 z m 0,0"
           id="path63" />
      </g>
      <g
         id="g65"
         transform="translate(21.21249,14.576)">
        <path
           d="m 2.5,-5.078125 c 0,-0.21875 -0.015625,-0.21875 -0.234375,-0.21875 -0.328125,0.3125 -0.75,0.5 -1.5,0.5 v 0.265625 c 0.21875,0 0.640625,0 1.109375,-0.203125 v 4.078125 c 0,0.296875 -0.03125,0.390625 -0.78125,0.390625 H 0.8125 V 0 c 0.328125,-0.03125 1.015625,-0.03125 1.375,-0.03125 0.359375,0 1.046875,0 1.375,0.03125 V -0.265625 H 3.28125 c -0.75,0 -0.78125,-0.09375 -0.78125,-0.390625 z m 0,0"
           id="path64" />
      </g>
    </g>
  </g>
  <g
     inkscape:label=""
     transform="translate(83.658625,111.66545)"
     id="g77">
    <g
       fill="#000000"
       fill-opacity="1"
       id="g69"
       transform="matrix(0.352778,0,0,0.352778,-0.929084,-1.27807)">
      <g
         id="g68"
         transform="translate(1.993,13.576)">
        <path
           d="m 3.3125,-9.59375 c 0.015625,-0.0625 0.046875,-0.140625 0.046875,-0.21875 0,-0.140625 -0.140625,-0.140625 -0.171875,-0.140625 -0.015625,0 -0.53125,0.046875 -0.796875,0.0625 -0.234375,0.015625 -0.453125,0.046875 -0.71875,0.0625 -0.34375,0.03125 -0.4375,0.046875 -0.4375,0.296875 0,0.15625 0.140625,0.15625 0.28125,0.15625 C 2.25,-9.375 2.25,-9.25 2.25,-9.109375 c 0,0.09375 -0.109375,0.515625 -0.171875,0.78125 l -0.34375,1.375 C 1.59375,-6.390625 0.78125,-3.125 0.71875,-2.875 c -0.078125,0.359375 -0.078125,0.609375 -0.078125,0.796875 0,1.46875 0.828125,2.21875 1.75,2.21875 1.671875,0 3.390625,-2.140625 3.390625,-4.21875 0,-1.3125 -0.75,-2.25 -1.828125,-2.25 -0.734375,0 -1.421875,0.625 -1.6875,0.90625 z m -0.90625,9.453125 c -0.453125,0 -0.953125,-0.34375 -0.953125,-1.46875 0,-0.46875 0.03125,-0.75 0.296875,-1.75 0.046875,-0.1875 0.265625,-1.09375 0.328125,-1.28125 0.03125,-0.125 0.875,-1.390625 1.859375,-1.390625 0.625,0 0.90625,0.625 0.90625,1.375 0,0.6875 -0.390625,2.296875 -0.75,3.046875 -0.359375,0.78125 -1.03125,1.46875 -1.6875,1.46875 z m 0,0"
           id="path67" />
      </g>
    </g>
    <g
       fill="#000000"
       fill-opacity="1"
       id="g71"
       transform="matrix(0.352778,0,0,0.352778,-0.929084,-1.27807)">
      <g
         id="g70"
         transform="translate(7.9650002,7.8039999)">
        <path
           d="m 6.5625,-2.296875 c 0.171875,0 0.359375,0 0.359375,-0.203125 0,-0.1875 -0.1875,-0.1875 -0.359375,-0.1875 H 1.171875 c -0.171875,0 -0.34375,0 -0.34375,0.1875 0,0.203125 0.171875,0.203125 0.34375,0.203125 z m 0,0"
           id="path69" />
      </g>
    </g>
    <g
       fill="#000000"
       fill-opacity="1"
       id="g73"
       transform="matrix(0.352778,0,0,0.352778,-0.929084,-1.27807)">
      <g
         id="g72"
         transform="translate(7.9650002,17.848)">
        <path
           d="m 2.859375,-6.8125 c 0,0 0,-0.109375 -0.125,-0.109375 -0.234375,0 -0.953125,0.078125 -1.21875,0.109375 -0.078125,0 -0.1875,0.015625 -0.1875,0.1875 0,0.125 0.09375,0.125 0.234375,0.125 0.484375,0 0.5,0.0625 0.5,0.171875 L 2.03125,-6.125 0.59375,-0.390625 c -0.046875,0.140625 -0.046875,0.15625 -0.046875,0.21875 0,0.234375 0.203125,0.28125 0.296875,0.28125 0.125,0 0.265625,-0.09375 0.328125,-0.203125 0.046875,-0.09375 0.5,-1.9375 0.5625,-2.1875 0.34375,0.03125 1.15625,0.1875 1.15625,0.84375 0,0.078125 0,0.109375 -0.03125,0.21875 -0.015625,0.109375 -0.03125,0.234375 -0.03125,0.34375 0,0.578125 0.390625,0.984375 0.90625,0.984375 0.296875,0 0.578125,-0.15625 0.796875,-0.53125 0.25,-0.4375 0.359375,-0.984375 0.359375,-1 0,-0.109375 -0.09375,-0.109375 -0.125,-0.109375 -0.09375,0 -0.109375,0.046875 -0.140625,0.1875 -0.203125,0.71875 -0.421875,1.234375 -0.859375,1.234375 -0.203125,0 -0.328125,-0.109375 -0.328125,-0.46875 0,-0.171875 0.046875,-0.40625 0.078125,-0.5625 C 3.5625,-1.3125 3.5625,-1.34375 3.5625,-1.453125 3.5625,-2.09375 2.9375,-2.375 2.078125,-2.5 2.390625,-2.671875 2.71875,-2.984375 2.9375,-3.234375 3.421875,-3.765625 3.875,-4.1875 4.359375,-4.1875 c 0.0625,0 0.078125,0 0.09375,0.015625 0.125,0.015625 0.125,0.015625 0.21875,0.078125 0.015625,0 0.015625,0.015625 0.03125,0.03125 -0.46875,0.03125 -0.5625,0.421875 -0.5625,0.546875 0,0.15625 0.109375,0.34375 0.375,0.34375 0.265625,0 0.546875,-0.21875 0.546875,-0.609375 0,-0.296875 -0.234375,-0.625 -0.671875,-0.625 -0.28125,0 -0.734375,0.078125 -1.453125,0.875 -0.34375,0.375 -0.734375,0.78125 -1.109375,0.921875 z m 0,0"
           id="path71" />
      </g>
    </g>
    <g
       fill="#000000"
       fill-opacity="1"
       id="g76"
       transform="matrix(0.352778,0,0,0.352778,-0.929084,-1.27807)">
      <g
         id="g74"
         transform="translate(13.465,17.848)">
        <path
           d="m 4.078125,-2.296875 h 2.78125 C 7,-2.296875 7.1875,-2.296875 7.1875,-2.5 7.1875,-2.6875 7,-2.6875 6.859375,-2.6875 h -2.78125 v -2.796875 c 0,-0.140625 0,-0.328125 -0.203125,-0.328125 -0.203125,0 -0.203125,0.1875 -0.203125,0.328125 V -2.6875 h -2.78125 c -0.140625,0 -0.328125,0 -0.328125,0.1875 0,0.203125 0.1875,0.203125 0.328125,0.203125 h 2.78125 V 0.5 c 0,0.140625 0,0.328125 0.203125,0.328125 0.203125,0 0.203125,-0.1875 0.203125,-0.328125 z m 0,0"
           id="path73" />
      </g>
      <g
         id="g75"
         transform="translate(21.213909,17.848)">
        <path
           d="m 2.9375,-6.375 c 0,-0.25 0,-0.265625 -0.234375,-0.265625 C 2.078125,-6 1.203125,-6 0.890625,-6 v 0.3125 c 0.203125,0 0.78125,0 1.296875,-0.265625 v 5.171875 c 0,0.359375 -0.03125,0.46875 -0.921875,0.46875 h -0.3125 V 0 c 0.34375,-0.03125 1.203125,-0.03125 1.609375,-0.03125 0.390625,0 1.265625,0 1.609375,0.03125 v -0.3125 h -0.3125 c -0.90625,0 -0.921875,-0.109375 -0.921875,-0.46875 z m 0,0"
           id="path74" />
      </g>
    </g>
  </g>
  <g
     inkscape:label=""
     transform="translate(43.573619,157.12772)"
     id="g93">
    <g
       fill="#000000"
       fill-opacity="1"
       id="g87"
       transform="matrix(0.352778,0,0,0.352778,-0.978694,-0.703748)">
      <g
         id="g86"
         transform="translate(1.993,13.948)">
        <path
           d="M 3.984375,-11.515625 C 4,-11.59375 4.03125,-11.6875 4.03125,-11.78125 c 0,-0.171875 -0.171875,-0.171875 -0.203125,-0.171875 -0.015625,0 -0.640625,0.0625 -0.953125,0.09375 -0.296875,0.01563 -0.546875,0.04687 -0.859375,0.0625 -0.421875,0.03125 -0.53125,0.04687 -0.53125,0.359375 0,0.171875 0.171875,0.171875 0.34375,0.171875 0.875,0 0.875,0.15625 0.875,0.328125 0,0.125 -0.140625,0.625 -0.203125,0.9375 L 2.078125,-8.34375 C 1.90625,-7.65625 0.9375,-3.75 0.859375,-3.4375 0.78125,-3.015625 0.78125,-2.71875 0.78125,-2.5 c 0,1.765625 0.96875,2.671875 2.09375,2.671875 2,0 4.0625,-2.5625 4.0625,-5.0625 0,-1.578125 -0.890625,-2.703125 -2.1875,-2.703125 -0.890625,0 -1.703125,0.734375 -2.03125,1.078125 z m -1.09375,11.34375 c -0.546875,0 -1.15625,-0.40625 -1.15625,-1.75 0,-0.578125 0.0625,-0.90625 0.359375,-2.109375 C 2.15625,-4.25 2.421875,-5.359375 2.5,-5.578125 2.53125,-5.71875 3.546875,-7.25 4.71875,-7.25 c 0.75,0 1.09375,0.765625 1.09375,1.65625 0,0.828125 -0.46875,2.765625 -0.90625,3.671875 -0.421875,0.921875 -1.21875,1.75 -2.015625,1.75 z m 0,0"
           id="path85" />
      </g>
    </g>
    <g
       fill="#000000"
       fill-opacity="1"
       id="g89"
       transform="matrix(0.352778,0,0,0.352778,-0.978694,-0.703748)">
      <g
         id="g88"
         transform="translate(9.1599998,16.530001)">
        <path
           d="m 3.125,-7.453125 c 0,0 0,-0.109375 -0.140625,-0.109375 -0.25,0 -1.046875,0.078125 -1.328125,0.109375 -0.078125,0 -0.203125,0.015625 -0.203125,0.21875 0,0.125 0.09375,0.125 0.265625,0.125 0.515625,0 0.53125,0.078125 0.53125,0.1875 l -0.03125,0.21875 -1.578125,6.28125 C 0.59375,-0.265625 0.59375,-0.25 0.59375,-0.1875 c 0,0.25 0.21875,0.3125 0.328125,0.3125 C 1.0625,0.125 1.21875,0.015625 1.28125,-0.109375 1.34375,-0.203125 1.828125,-2.21875 1.890625,-2.5 c 0.375,0.03125 1.265625,0.203125 1.265625,0.921875 0,0.078125 0,0.125 -0.03125,0.234375 -0.015625,0.140625 -0.03125,0.265625 -0.03125,0.390625 0,0.640625 0.421875,1.078125 1,1.078125 0.328125,0 0.625,-0.171875 0.859375,-0.578125 C 5.21875,-0.9375 5.34375,-1.53125 5.34375,-1.5625 c 0,-0.109375 -0.09375,-0.109375 -0.125,-0.109375 -0.109375,0 -0.125,0.046875 -0.15625,0.203125 -0.21875,0.796875 -0.46875,1.34375 -0.953125,1.34375 -0.203125,0 -0.34375,-0.109375 -0.34375,-0.5 0,-0.1875 0.046875,-0.4375 0.078125,-0.625 0.046875,-0.171875 0.046875,-0.21875 0.046875,-0.328125 0,-0.71875 -0.6875,-1.03125 -1.609375,-1.140625 0.34375,-0.203125 0.6875,-0.546875 0.9375,-0.8125 0.515625,-0.578125 1.03125,-1.046875 1.5625,-1.046875 0.0625,0 0.078125,0 0.09375,0.015625 C 5,-4.546875 5.015625,-4.546875 5.109375,-4.484375 5.125,-4.46875 5.125,-4.453125 5.140625,-4.4375 4.625,-4.40625 4.53125,-3.984375 4.53125,-3.84375 c 0,0.171875 0.109375,0.375 0.40625,0.375 0.28125,0 0.609375,-0.234375 0.609375,-0.671875 0,-0.3125 -0.25,-0.6875 -0.75,-0.6875 -0.296875,0 -0.8125,0.09375 -1.59375,0.96875 C 2.828125,-3.453125 2.40625,-3.015625 2,-2.84375 Z m 0,0"
           id="path87" />
      </g>
    </g>
    <g
       fill="#000000"
       fill-opacity="1"
       id="g92"
       transform="matrix(0.352778,0,0,0.352778,-0.978694,-0.703748)">
      <g
         id="g90"
         transform="translate(15.182,16.530001)">
        <path
           d="M 4.453125,-2.515625 H 7.5 c 0.15625,0 0.359375,0 0.359375,-0.203125 C 7.859375,-2.9375 7.65625,-2.9375 7.5,-2.9375 H 4.453125 V -6 c 0,-0.15625 0,-0.359375 -0.203125,-0.359375 -0.21875,0 -0.21875,0.203125 -0.21875,0.359375 v 3.0625 h -3.0625 c -0.15625,0 -0.359375,0 -0.359375,0.21875 0,0.203125 0.203125,0.203125 0.359375,0.203125 h 3.0625 v 3.0625 c 0,0.15625 0,0.359375 0.21875,0.359375 0.203125,0 0.203125,-0.203125 0.203125,-0.359375 z m 0,0"
           id="path89" />
      </g>
      <g
         id="g91"
         transform="translate(23.667097,16.530001)">
        <path
           d="m 3.203125,-6.984375 c 0,-0.25 0,-0.28125 -0.25,-0.28125 C 2.28125,-6.5625 1.3125,-6.5625 0.96875,-6.5625 v 0.328125 c 0.21875,0 0.859375,0 1.4375,-0.28125 v 5.65625 c 0,0.390625 -0.046875,0.515625 -1.015625,0.515625 H 1.03125 V 0 c 0.390625,-0.03125 1.328125,-0.03125 1.765625,-0.03125 0.4375,0 1.390625,0 1.765625,0.03125 V -0.34375 H 4.21875 c -0.984375,0 -1.015625,-0.109375 -1.015625,-0.515625 z m 0,0"
           id="path90" />
      </g>
    </g>
  </g>
  <g
     id="g10"
     style="fill:none;stroke:#d10202;stroke-opacity:1"
     transform="matrix(0.69992479,0,0,0.69992479,42.539419,106.3894)">
    <path
       style="fill:none;stroke:#d10202;stroke-width:0.937081;stroke-linecap:butt;stroke-linejoin:miter;stroke-dasharray:none;stroke-opacity:1"
       d="m 50.33131,50.331306 9.338091,9.338192"
       id="path2"
       sodipodi:nodetypes="cc" />
    <path
       style="fill:none;stroke:#d10202;stroke-width:0.944052;stroke-linecap:butt;stroke-linejoin:miter;stroke-dasharray:none;stroke-opacity:1"
       d="m 59.665825,50.334129 -4.99338,4.993822 -4.339021,4.339405"
       id="path3"
       sodipodi:nodetypes="ccc" />
  </g>
</svg>
